SplineFontDB: 3.2
FontName: SundayHotdog
FullName: Sunday Hotdog
FamilyName: Sunday Hotdog
Weight: Book
Copyright: Copyright (c) 2023 by Khurasan. All rights reserved.
Version: 1.000
ItalicAngle: 0
UnderlinePosition: -100
UnderlineWidth: 50
Ascent: 800
Descent: 200
InvalidEm: 0
sfntRevision: 0x00010000
LayerCount: 2
Layer: 0 1 "Arri+AOgA-re" 1
Layer: 1 1 "Avant" 0
XUID: [1021 186 249839067 10281]
StyleMap: 0x0040
FSType: 4
OS2Version: 3
OS2_WeightWidthSlopeOnly: 0
OS2_UseTypoMetrics: 0
CreationTime: 1693453859
ModificationTime: 1712048995
PfmFamily: 81
TTFWeight: 400
TTFWidth: 5
LineGap: 26
VLineGap: 0
Panose: 0 0 0 0 0 0 0 0 0 0
OS2TypoAscent: 779
OS2TypoAOffset: 0
OS2TypoDescent: -139
OS2TypoDOffset: 0
OS2TypoLinegap: 52
OS2WinAscent: 935
OS2WinAOffset: 0
OS2WinDescent: 238
OS2WinDOffset: 0
HheadAscent: 935
HheadAOffset: 0
HheadDescent: -238
HheadDOffset: 0
OS2SubXSize: 700
OS2SubYSize: 650
OS2SubXOff: 0
OS2SubYOff: 140
OS2SupXSize: 700
OS2SupYSize: 650
OS2SupXOff: 0
OS2SupYOff: 477
OS2StrikeYSize: 50
OS2StrikeYPos: 250
OS2CapHeight: 700
OS2XHeight: 500
OS2Vendor: 'PYRS'
OS2CodePages: 00000001.00000000
OS2UnicodeRanges: 80000003.0000000a.00000000.00000000
Lookup: 258 0 0 "'kern' Cr+AOkA-nage horizontal dans Latin lookup 0" { "sous-table 'kern' Cr+AOkA-nage horizontal dans Latin lookup 0"  } ['kern' ('DFLT' <'dflt' > 'latn' <'dflt' > ) ]
DEI: 91125
TtTable: prep
PUSHW_1
 0
CALL
SVTCA[y-axis]
PUSHW_3
 1
 3
 2
CALL
SVTCA[x-axis]
PUSHW_3
 4
 1
 2
CALL
SVTCA[x-axis]
PUSHW_8
 4
 35
 29
 25
 17
 12
 0
 8
CALL
SVTCA[y-axis]
PUSHW_8
 1
 35
 29
 25
 17
 12
 0
 8
CALL
PUSHW_8
 2
 54
 44
 34
 25
 12
 0
 8
CALL
PUSHW_8
 3
 44
 36
 25
 17
 12
 0
 8
CALL
SVTCA[y-axis]
PUSHW_3
 5
 4
 7
CALL
PUSHW_1
 0
DUP
RCVT
RDTG
ROUND[Black]
RTG
WCVTP
EndTTInstrs
TtTable: fpgm
PUSHW_1
 0
FDEF
MPPEM
PUSHW_1
 9
LT
IF
PUSHB_2
 1
 1
INSTCTRL
EIF
PUSHW_1
 511
SCANCTRL
PUSHW_1
 68
SCVTCI
PUSHW_2
 9
 3
SDS
SDB
ENDF
PUSHW_1
 1
FDEF
DUP
DUP
RCVT
ROUND[Black]
WCVTP
PUSHB_1
 1
ADD
ENDF
PUSHW_1
 2
FDEF

StartChar: backslash
Encoding: 92 92 4
Width: 434
GlyphClass: 1
Flags: W
LayerCount: 2
Fore
SplineSet
245 23 m 0,0,1
 233 81 233 81 218 145 c 128,-1,2
 203 209 203 209 184 277 c 128,-1,3
 165 345 165 345 142.5 415.5 c 128,-1,4
 120 486 120 486 95 555 c 0,5,6
 81 593 81 593 67.5 632.5 c 128,-1,7
 54 672 54 672 43 711 c 0,8,9
 41 720 41 720 38.5 729 c 128,-1,10
 36 738 36 738 36 748 c 0,11,12
 36 766 36 766 46 780 c 128,-1,13
 56 794 56 794 71 800 c 128,-1,14
 86 806 86 806 103 803.5 c 128,-1,15
 120 801 120 801 134 786 c 0,16,17
 172 746 172 746 205.5 690 c 128,-1,18
 239 634 239 634 267 569.5 c 128,-1,19
 295 505 295 505 317 434.5 c 128,-1,20
 339 364 339 364 355 296 c 128,-1,21
 371 228 371 228 380 165 c 128,-1,22
 389 102 389 102 391 52 c 0,23,24
 391 10 391 10 382.5 -9.5 c 128,-1,25
 374 -29 374 -29 353 -37 c 0,26,27
 341 -42 341 -42 324.5 -42.5 c 128,-1,28
 308 -43 308 -43 292 -37 c 128,-1,29
 276 -31 276 -31 263 -17 c 128,-1,30
 250 -3 250 -3 245 23 c 0,0,1
EndSplineSet
Validated: 33
EndChar

StartChar: bracketleft
Encoding: 91 91 5
Width: 477
GlyphClass: 1
Flags: W
LayerCount: 2
Fore
SplineSet
234 -71 m 1,0,1
 261 -69 261 -69 287 -67 c 128,-1,2
 313 -65 313 -65 339 -67 c 0,3,4
 355 -68 355 -68 371.5 -71 c 128,-1,5
 388 -74 388 -74 402 -82 c 0,6,7
 418 -91 418 -91 426 -103.5 c 128,-1,8
 434 -116 434 -116 434 -130 c 128,-1,9
 434 -144 434 -144 426.5 -157.5 c 128,-1,10
 419 -171 419 -171 405 -181 c 0,11,12
 386 -195 386 -195 355 -203.5 c 128,-1,13
 324 -212 324 -212 289 -213.5 c 128,-1,14
 254 -215 254 -215 217.5 -209 c 128,-1,15
 181 -203 181 -203 151.5 -189.5 c 128,-1,16
 122 -176 122 -176 101.5 -153.5 c 128,-1,17
 81 -131 81 -131 78 -99 c 0,18,19
 63 34 63 34 63 169.5 c 128,-1,20
 63 305 63 305 76 438 c 0,21,22
 84 530 84 530 83.5 623 c 128,-1,23
 83 716 83 716 95 807 c 0,24,25
 107 889 107 889 190 911 c 0,26,27
 210 916 210 916 238.5 920 c 128,-1,28
 267 924 267 924 296.5 925 c 128,-1,29
 326 926 326 926 354 924 c 128,-1,30
 382 922 382 922 402 916 c 0,31,32
 423 910 423 910 436.5 896 c 128,-1,33
 450 882 450 882 451 860 c 0,34,35
 452 840 452 840 441 826.5 c 128,-1,36
 430 813 430 813 411 805.5 c 128,-1,37
 392 798 392 798 369 794 c 128,-1,38
 346 790 346 790 322 788.5 c 128,-1,39
 298 787 298 787 277 787 c 128,-1,40
 256 787 256 787 242 787 c 1,41,42
 242 671 242 671 244 556 c 128,-1,43
 246 441 246 441 238 325 c 0,44,45
 233 227 233 227 229 126.5 c 128,-1,46
 225 26 225 26 234 -71 c 1,0,1
EndSplineSet
Validated: 33
EndChar

StartChar: Z
Encoding: 90 90 6
Width: 610
GlyphClass: 1
Flags: W
LayerCount: 2
Fore
SplineSet
310 570 m 1,0,1
 292 572 292 572 265.5 572 c 128,-1,2
 239 572 239 572 211.5 571.5 c 128,-1,3
 184 571 184 571 157.5 571.5 c 128,-1,4
 131 572 131 572 113 576 c 0,5,6
 84 582 84 582 65 602.5 c 128,-1,7
 46 623 46 623 41.5 648.5 c 128,-1,8
 37 674 37 674 49.5 700.5 c 128,-1,9
 62 727 62 727 96 746 c 0,10,11
 107 752 107 752 140.5 756.5 c 128,-1,12
 174 761 174 761 218 763.5 c 128,-1,13
 262 766 262 766 312 766 c 128,-1,14
 362 766 362 766 406.5 765 c 128,-1,15
 451 764 451 764 485 761 c 128,-1,16
 519 758 519 758 532 753 c 0,17,18
 580 734 580 734 589 682 c 0,19,20
 592 656 592 656 583.5 635 c 128,-1,21
 575 614 575 614 555 600 c 0,22,23
 524 578 524 578 494.5 545 c 128,-1,24
 465 512 465 512 438.5 474 c 128,-1,25
 412 436 412 436 389 395 c 128,-1,26
 366 354 366 354 347.5 316 c 128,-1,27
 329 278 329 278 315.5 244.5 c 128,-1,28
 302 211 302 211 294 189 c 1,29,30
 324 189 324 189 358.5 191 c 128,-1,31
 393 193 393 193 426.5 190.5 c 128,-1,32
 460 188 460 188 489.5 177.5 c 128,-1,33
 519 167 519 167 540 143 c 0,34,35
 555 125 555 125 555 104 c 128,-1,36
 555 83 555 83 544.5 64 c 128,-1,37
 534 45 534 45 516 30 c 128,-1,38
 498 15 498 15 477 10 c 0,39,40
 441 1 441 1 403.5 0.5 c 128,-1,41
 366 0 366 0 328.5 2 c 128,-1,42
 291 4 291 4 252.5 5 c 128,-1,43
 214 6 214 6 177 1 c 0,44,45
 140 -5 140 -5 103 1 c 0,46,47
 80 5 80 5 64.5 17.5 c 128,-1,48
 49 30 49 30 41 53 c 0,49,50
 33 77 33 77 38.5 98 c 128,-1,51
 44 119 44 119 58 139 c 0,52,53
 133 245 133 245 197.5 355.5 c 128,-1,54
 262 466 262 466 310 570 c 1,0,1
EndSplineSet
Validated: 33
EndChar

StartChar: Y
Encoding: 89 89 7
Width: 606
GlyphClass: 1
Flags: W
LayerCount: 2
Fore
SplineSet
292 480 m 1,0,1
 312 518 312 518 331.5 554 c 128,-1,2
 351 590 351 590 374 626 c 0,3,4
 402 669 402 669 435 704 c 0,5,6
 455 725 455 725 480 730.5 c 128,-1,7
 505 736 505 736 526.5 728.5 c 128,-1,8
 548 721 548 721 561 701.5 c 128,-1,9
 574 682 574 682 570 652 c 0,10,11
 567 624 567 624 557 598 c 128,-1,12
 547 572 547 572 536 547 c 0,13,14
 516 503 516 503 492 460.5 c 128,-1,15
 468 418 468 418 445 374 c 0,16,17
 408 301 408 301 376 227.5 c 128,-1,18
 344 154 344 154 318 76 c 0,19,20
 310 44 310 44 292 17 c 0,21,22
 278 -5 278 -5 258.5 -15.5 c 128,-1,23
 239 -26 239 -26 212 -21 c 0,24,25
 181 -16 181 -16 166.5 3 c 128,-1,26
 152 22 152 22 148.5 49.5 c 128,-1,27
 145 77 145 77 149.5 110 c 128,-1,28
 154 143 154 143 162.5 175 c 128,-1,29
 171 207 171 207 180.5 234.5 c 128,-1,30
 190 262 190 262 196 279 c 256,31,32
 202 296 202 296 200.5 307.5 c 128,-1,33
 199 319 199 319 189 333 c 0,34,35
 144 396 144 396 109 460.5 c 128,-1,36
 74 525 74 525 59 600 c 0,37,38
 54 621 54 621 53.5 643 c 128,-1,39
 53 665 53 665 55 687 c 0,40,41
 56 696 56 696 58.5 705 c 128,-1,42
 61 714 61 714 65 723 c 0,43,44
 76 743 76 743 93.5 754 c 128,-1,45
 111 765 111 765 130.5 766.5 c 128,-1,46
 150 768 150 768 168.5 759.5 c 128,-1,47
 187 751 187 751 201 732 c 0,48,49
 213 716 213 716 225 683.5 c 128,-1,50
 237 651 237 651 248.5 613.5 c 128,-1,51
 260 576 260 576 271 539.5 c 128,-1,52
 282 503 282 503 292 480 c 1,0,1
EndSplineSet
Validated: 33
EndChar

StartChar: W
Encoding: 87 87 8
Width: 793
GlyphClass: 1
Flags: W
LayerCount: 2
Fore
SplineSet
584 304 m 0,0,1
 587 352 587 352 588.5 405.5 c 128,-1,2
 590 459 590 459 591 508.5 c 128,-1,3
 592 558 592 558 593 599 c 128,-1,4
 594 640 594 640 596 663 c 0,5,6
 599 692 599 692 615 716 c 128,-1,7
 631 740 631 740 664 740 c 0,8,9
 696 740 696 740 712 717.5 c 128,-1,10
 728 695 728 695 734 668 c 0,11,12
 740 640 740 640 742.5 594.5 c 128,-1,13
 745 549 745 549 745 495 c 128,-1,14
 745 441 745 441 741.5 382 c 128,-1,15
 738 323 738 323 732 269 c 128,-1,16
 726 215 726 215 717 170.5 c 128,-1,17
 708 126 708 126 697 100 c 0,18,19
 676 51 676 51 640 23.5 c 128,-1,20
 604 -4 604 -4 563 -8.5 c 128,-1,21
 522 -13 522 -13 481 5 c 128,-1,22
 440 23 440 23 407 65 c 0,23,24
 394 82 394 82 384 100 c 128,-1,25
 374 118 374 118 363 136 c 1,26,27
 358 125 358 125 349 109.5 c 128,-1,28
 340 94 340 94 330 78 c 128,-1,29
 320 62 320 62 309.5 48 c 128,-1,30
 299 34 299 34 290 25 c 0,31,32
 253 -11 253 -11 207.5 -10 c 128,-1,33
 162 -9 162 -9 124 26 c 0,34,35
 94 54 94 54 75.5 105 c 128,-1,36
 57 156 57 156 48 218.5 c 128,-1,37
 39 281 39 281 39 350 c 128,-1,38
 39 419 39 419 45.5 483.5 c 128,-1,39
 52 548 52 548 64 603 c 128,-1,40
 76 658 76 658 92 692 c 0,41,42
 102 714 102 714 122 729.5 c 128,-1,43
 142 745 142 745 168 738 c 0,44,45
 196 731 196 731 207 708.5 c 128,-1,46
 218 686 218 686 216 660 c 0,47,48
 214 635 214 635 210 593.5 c 128,-1,49
 206 552 206 552 201.5 503 c 128,-1,50
 197 454 197 454 194 401.5 c 128,-1,51
 191 349 191 349 193 302 c 0,52,53
 195 229 195 229 203.5 203 c 128,-1,54
 212 177 212 177 223.5 183.5 c 128,-1,55
 235 190 235 190 246.5 223.5 c 128,-1,56
 258 257 258 257 267 302 c 0,57,58
 281 370 281 370 291 438.5 c 128,-1,59
 301 507 301 507 314 575 c 0,60,61
 319 598 319 598 329.5 616 c 128,-1,62
 340 634 340 634 365 640 c 0,63,64
 397 648 397 648 417 631 c 128,-1,65
 437 614 437 614 445 585 c 0,66,67
 452 557 452 557 457.5 522 c 128,-1,68
 463 487 463 487 468 449.5 c 128,-1,69
 473 412 473 412 478.5 373 c 128,-1,70
 484 334 484 334 492 297 c 0,71,72
 505 238 505 238 519 204 c 128,-1,73
 533 170 533 170 546 168 c 128,-1,74
 559 166 559 166 569 198 c 128,-1,75
 579 230 579 230 584 304 c 0,0,1
EndSplineSet
Validated: 33
EndChar

StartChar: U
Encoding: 85 85 9
Width: 660
GlyphClass: 1
Flags: W
LayerCount: 2
Fore
SplineSet
476 690 m 0,0,1
 489 721 489 721 515 734 c 128,-1,2
 541 747 541 747 567.5 738.5 c 128,-1,3
 594 730 594 730 613 699 c 128,-1,4
 632 668 632 668 630 613 c 0,5,6
 629 564 629 564 628.5 503 c 128,-1,7
 628 442 628 442 623 378 c 128,-1,8
 618 314 618 314 606 251.5 c 128,-1,9
 594 189 594 189 569 136 c 128,-1,10
 544 83 544 83 503 44.5 c 128,-1,11
 462 6 462 6 400 -9 c 0,12,13
 351 -21 351 -21 302 -14 c 128,-1,14
 253 -7 253 -7 209.5 14.5 c 128,-1,15
 166 36 166 36 130.5 70.5 c 128,-1,16
 95 105 95 105 73 148 c 0,17,18
 59 176 59 176 50 220.5 c 128,-1,19
 41 265 41 265 36 318 c 128,-1,20
 31 371 31 371 31 428.5 c 128,-1,21
 31 486 31 486 34.5 539.5 c 128,-1,22
 38 593 38 593 46 638 c 128,-1,23
 54 683 54 683 66 711 c 0,24,25
 77 734 77 734 97 748 c 128,-1,26
 117 762 117 762 143 760 c 0,27,28
 171 758 171 758 189 742 c 128,-1,29
 207 726 207 726 212 700 c 0,30,31
 219 669 219 669 218 621 c 128,-1,32
 217 573 217 573 214.5 518 c 128,-1,33
 212 463 212 463 210.5 406 c 128,-1,34
 209 349 209 349 215 301 c 128,-1,35
 221 253 221 253 237.5 219 c 128,-1,36
 254 185 254 185 286 176 c 0,37,38
 325 165 325 165 352.5 174 c 128,-1,39
 380 183 380 183 399 204.5 c 128,-1,40
 418 226 418 226 429 257.5 c 128,-1,41
 440 289 440 289 446 324 c 0,42,43
 454 372 454 372 453 419 c 128,-1,44
 452 466 452 466 451.5 512 c 128,-1,45
 451 558 451 558 455 603 c 128,-1,46
 459 648 459 648 476 690 c 0,0,1
EndSplineSet
Validated: 33
EndChar

StartChar: T
Encoding: 84 84 10
Width: 559
GlyphClass: 1
Flags: W
LayerCount: 2
Fore
SplineSet
206 604 m 1,0,1
 186 604 186 604 155.5 603 c 128,-1,2
 125 602 125 602 96 607 c 128,-1,3
 67 612 67 612 46 626.5 c 128,-1,4
 25 641 25 641 24 673 c 0,5,6
 23 699 23 699 39 715.5 c 128,-1,7
 55 732 55 732 78 739 c 0,8,9
 99 745 99 745 145 748 c 128,-1,10
 191 751 191 751 243.5 752.5 c 128,-1,11
 296 754 296 754 344.5 754 c 128,-1,12
 393 754 393 754 420 754 c 0,13,14
 472 754 472 754 499 735 c 128,-1,15
 526 716 526 716 531 690.5 c 128,-1,16
 536 665 536 665 522.5 641 c 128,-1,17
 509 617 509 617 480 607 c 0,18,19
 454 598 454 598 426.5 597.5 c 128,-1,20
 399 597 399 597 371 597 c 1,21,22
 371 571 371 571 372 525.5 c 128,-1,23
 373 480 373 480 373.5 425 c 128,-1,24
 374 370 374 370 373 310.5 c 128,-1,25
 372 251 372 251 370 197.5 c 128,-1,26
 368 144 368 144 363 101 c 128,-1,27
 358 58 358 58 351 36 c 0,28,29
 340 6 340 6 316 -6.5 c 128,-1,30
 292 -19 292 -19 266.5 -15 c 128,-1,31
 241 -11 241 -11 221.5 7.5 c 128,-1,32
 202 26 202 26 202 58 c 0,33,34
 201 126 201 126 201.5 196.5 c 128,-1,35
 202 267 202 267 203 337 c 128,-1,36
 204 407 204 407 205 474.5 c 128,-1,37
 206 542 206 542 206 604 c 1,0,1
EndSplineSet
Validated: 33
EndChar

StartChar: S
Encoding: 83 83 11
Width: 621
GlyphClass: 1
Flags: W
LayerCount: 2
Fore
SplineSet
388 231 m 1,0,1
 357 261 357 261 315.5 284 c 128,-1,2
 274 307 274 307 230 329 c 128,-1,3
 186 351 186 351 145.5 375 c 128,-1,4
 105 399 105 399 77 431.5 c 128,-1,5
 49 464 49 464 37.5 507.5 c 128,-1,6
 26 551 26 551 41 613 c 0,7,8
 58 679 58 679 102.5 714 c 128,-1,9
 147 749 147 749 208 766 c 0,10,11
 248 777 248 777 300 777 c 128,-1,12
 352 777 352 777 403.5 765 c 128,-1,13
 455 753 455 753 499.5 728.5 c 128,-1,14
 544 704 544 704 570 667 c 0,15,16
 586 642 586 642 586.5 615 c 128,-1,17
 587 588 587 588 572 563 c 0,18,19
 554 533 554 533 528 525.5 c 128,-1,20
 502 518 502 518 471 523.5 c 128,-1,21
 440 529 440 529 406 542.5 c 128,-1,22
 372 556 372 556 338.5 570 c 128,-1,23
 305 584 305 584 273.5 592.5 c 128,-1,24
 242 601 242 601 215 597 c 0,25,26
 195 594 195 594 182 582.5 c 128,-1,27
 169 571 169 571 163.5 556 c 128,-1,28
 158 541 158 541 161 523.5 c 128,-1,29
 164 506 164 506 177 491 c 0,30,31
 197 467 197 467 239 449.5 c 128,-1,32
 281 432 281 432 330.5 413.5 c 128,-1,33
 380 395 380 395 429 371.5 c 128,-1,34
 478 348 478 348 511 312 c 0,35,36
 541 280 541 280 553.5 243.5 c 128,-1,37
 566 207 566 207 563 171.5 c 128,-1,38
 560 136 560 136 540.5 103 c 128,-1,39
 521 70 521 70 487 44 c 0,40,41
 454 19 454 19 401 1 c 128,-1,42
 348 -17 348 -17 291 -24.5 c 128,-1,43
 234 -32 234 -32 180 -27 c 128,-1,44
 126 -22 126 -22 90 -1 c 0,45,46
 67 12 67 12 55.5 32.5 c 128,-1,47
 44 53 44 53 43 75.5 c 128,-1,48
 42 98 42 98 51.5 120 c 128,-1,49
 61 142 61 142 81 159 c 0,50,51
 112 186 112 186 150 190.5 c 128,-1,52
 188 195 188 195 228 195.5 c 128,-1,53
 268 196 268 196 309 200.5 c 128,-1,54
 350 205 350 205 388 231 c 1,0,1
EndSplineSet
Validated: 33
EndChar

StartChar: R
Encoding: 82 82 12
Width: 658
GlyphClass: 1
Flags: W
LayerCount: 2
Fore
SplineSet
200 669 m 1,0,1
 267 727 267 727 329 750.5 c 128,-1,2
 391 774 391 774 444.5 771 c 128,-1,3
 498 768 498 768 539 742 c 128,-1,4
 580 716 580 716 603.5 675 c 128,-1,5
 627 634 627 634 631 581 c 128,-1,6
 635 528 635 528 614 471.5 c 128,-1,7
 593 415 593 415 544 358 c 128,-1,8
 495 301 495 301 413 252 c 1,9,10
 423 243 423 243 448 229.5 c 128,-1,11
 473 216 473 216 500.5 201 c 128,-1,12
 528 186 528 186 553 172 c 128,-1,13
 578 158 578 158 588 148 c 0,14,15
 616 121 616 121 617.5 88.5 c 128,-1,16
 619 56 619 56 603.5 31 c 128,-1,17
 588 6 588 6 560 -6.5 c 128,-1,18
 532 -19 532 -19 501 -5 c 0,19,20
 476 6 476 6 451 27 c 128,-1,21
 426 48 426 48 400.5 72 c 128,-1,22
 375 96 375 96 349 120 c 128,-1,23
 323 144 323 144 297 160.5 c 128,-1,24
 271 177 271 177 245 183.5 c 128,-1,25
 219 190 219 190 193 179 c 1,26,27
 188 155 188 155 183 121.5 c 128,-1,28
 178 88 178 88 168 58 c 128,-1,29
 158 28 158 28 140.5 8 c 128,-1,30
 123 -12 123 -12 92 -7 c 0,31,32
 77 -5 77 -5 66 3 c 128,-1,33
 55 11 55 11 48.5 23 c 128,-1,34
 42 35 42 35 39 49 c 128,-1,35
 36 63 36 63 36 78 c 0,36,37
 36 105 36 105 37 160.5 c 128,-1,38
 38 216 38 216 39.5 283 c 128,-1,39
 41 350 41 350 42.5 421.5 c 128,-1,40
 44 493 44 493 45.5 552.5 c 128,-1,41
 47 612 47 612 48 652.5 c 128,-1,42
 49 693 49 693 50 698 c 0,43,44
 53 723 53 723 67 739.5 c 128,-1,45
 81 756 81 756 99 761 c 128,-1,46
 117 766 117 766 135.5 759 c 128,-1,47
 154 752 154 752 168 732 c 0,48,49
 178 717 178 717 185 701 c 128,-1,50
 192 685 192 685 200 669 c 1,0,1
336 377 m 0,51,52
 379 397 379 397 414 433.5 c 128,-1,53
 449 470 449 470 466 520 c 0,54,55
 475 545 475 545 466 559 c 128,-1,56
 457 573 457 573 437 577 c 128,-1,57
 417 581 417 581 389 575 c 128,-1,58
 361 569 361 569 332.5 554.5 c 128,-1,59
 304 540 304 540 277 517.5 c 128,-1,60
 250 495 250 495 232 466 c 0,61,62
 202 416 202 416 202.5 390.5 c 128,-1,63
 203 365 203 365 221.5 356.5 c 128,-1,64
 240 348 240 348 271.5 355 c 128,-1,65
 303 362 303 362 336 377 c 0,51,52
EndSplineSet
Validated: 33
EndChar

StartChar: Q
Encoding: 81 81 13
Width: 727
GlyphClass: 1
Flags: W
LayerCount: 2
Fore
SplineSet
530 129 m 1,0,1
 541 132 541 132 559.5 137.5 c 128,-1,2
 578 143 578 143 598.5 148 c 128,-1,3
 619 153 619 153 639.5 155 c 128,-1,4
 660 157 660 157 675 152 c 128,-1,5
 690 147 690 147 697 133 c 128,-1,6
 704 119 704 119 698 92 c 0,7,8
 695 79 695 79 687 66.5 c 128,-1,9
 679 54 679 54 670 45 c 0,10,11
 639 14 639 14 608 -1.5 c 128,-1,12
 577 -17 577 -17 543.5 -21.5 c 128,-1,13
 510 -26 510 -26 474 -21 c 128,-1,14
 438 -16 438 -16 398 -7 c 0,15,16
 371 -1 371 -1 352.5 -11 c 128,-1,17
 334 -21 334 -21 318.5 -32 c 128,-1,18
 303 -43 303 -43 287.5 -48 c 128,-1,19
 272 -53 272 -53 251 -38 c 0,20,21
 237 -28 237 -28 233 -14.5 c 128,-1,22
 229 -1 229 -1 233 16 c 0,23,24
 237 29 237 29 243 41.5 c 128,-1,25
 249 54 249 54 254 66 c 1,26,27
 175 102 175 102 124.5 157.5 c 128,-1,28
 74 213 74 213 51.5 277.5 c 128,-1,29
 29 342 29 342 34 411 c 128,-1,30
 39 480 39 480 69 544 c 0,31,32
 97 603 97 603 141 650 c 128,-1,33
 185 697 185 697 237 728 c 128,-1,34
 289 759 289 759 346 770.5 c 128,-1,35
 403 782 403 782 457 769.5 c 128,-1,36
 511 757 511 757 558.5 717.5 c 128,-1,37
 606 678 606 678 640 606 c 0,38,39
 670 544 670 544 674.5 482 c 128,-1,40
 679 420 679 420 664 361 c 128,-1,41
 649 302 649 302 616.5 248 c 128,-1,42
 584 194 584 194 538 148 c 2,43,-1
 527 136 l 1,44,-1
 530 129 l 1,0,1
521 431 m 0,45,46
 518 509 518 509 484 550.5 c 128,-1,47
 450 592 450 592 404.5 599.5 c 128,-1,48
 359 607 359 607 310.5 580.5 c 128,-1,49
 262 554 262 554 229 495 c 0,50,51
 203 449 203 449 198.5 394 c 128,-1,52
 194 339 194 339 217 282 c 0,53,54
 235 234 235 234 265.5 215.5 c 128,-1,55
 296 197 296 197 330.5 200.5 c 128,-1,56
 365 204 365 204 399.5 226 c 128,-1,57
 434 248 434 248 461.5 280.5 c 128,-1,58
 489 313 489 313 506 352.5 c 128,-1,59
 523 392 523 392 521 431 c 0,45,46
EndSplineSet
Validated: 33
EndChar

StartChar: P
Encoding: 80 80 14
Width: 658
GlyphClass: 1
Flags: W
LayerCount: 2
Fore
SplineSet
213 651 m 1,0,1
 247 701 247 701 289.5 729.5 c 128,-1,2
 332 758 332 758 392 763 c 0,3,4
 459 770 459 770 506.5 748.5 c 128,-1,5
 554 727 554 727 582 688 c 128,-1,6
 610 649 610 649 619 596 c 128,-1,7
 628 543 628 543 619 487 c 128,-1,8
 610 431 610 431 583.5 376.5 c 128,-1,9
 557 322 557 322 513 279 c 128,-1,10
 469 236 469 236 408.5 209 c 128,-1,11
 348 182 348 182 272 181 c 2,12,-1
 213 181 l 1,13,14
 212 156 212 156 211.5 123 c 128,-1,15
 211 90 211 90 203.5 60.5 c 128,-1,16
 196 31 196 31 178 11 c 128,-1,17
 160 -9 160 -9 124 -8 c 0,18,19
 94 -7 94 -7 74 10.5 c 128,-1,20
 54 28 54 28 46 58 c 0,21,22
 43 71 43 71 42 114.5 c 128,-1,23
 41 158 41 158 41 217 c 128,-1,24
 41 276 41 276 42 343.5 c 128,-1,25
 43 411 43 411 44.5 472.5 c 128,-1,26
 46 534 46 534 48 581 c 128,-1,27
 50 628 50 628 52 646 c 0,28,29
 55 682 55 682 73.5 702.5 c 128,-1,30
 92 723 92 723 115 727 c 128,-1,31
 138 731 138 731 161.5 718 c 128,-1,32
 185 705 185 705 198 675 c 0,33,34
 200 669 200 669 205 663 c 128,-1,35
 210 657 210 657 213 651 c 1,0,1
384 379 m 0,36,37
 421 407 421 407 438.5 442.5 c 128,-1,38
 456 478 456 478 457.5 511.5 c 128,-1,39
 459 545 459 545 446.5 571 c 128,-1,40
 434 597 434 597 411 605.5 c 128,-1,41
 388 614 388 614 356.5 601.5 c 128,-1,42
 325 589 325 589 288 544 c 0,43,44
 260 510 260 510 245.5 476.5 c 128,-1,45
 231 443 231 443 229 414.5 c 128,-1,46
 227 386 227 386 236.5 366 c 128,-1,47
 246 346 246 346 266 338.5 c 128,-1,48
 286 331 286 331 315.5 340 c 128,-1,49
 345 349 345 349 384 379 c 0,36,37
EndSplineSet
Validated: 33
EndChar

StartChar: N
Encoding: 78 78 15
Width: 740
GlyphClass: 1
Flags: W
LayerCount: 2
Fore
SplineSet
510 268 m 1,0,1
 506 351 506 351 502.5 432 c 128,-1,2
 499 513 499 513 496 596 c 0,3,4
 495 625 495 625 496 653 c 128,-1,5
 497 681 497 681 504 708 c 0,6,7
 511 739 511 739 532 755 c 128,-1,8
 553 771 553 771 578.5 771.5 c 128,-1,9
 604 772 604 772 627.5 758 c 128,-1,10
 651 744 651 744 663 714 c 0,11,12
 671 693 671 693 675 644.5 c 128,-1,13
 679 596 679 596 680.5 533 c 128,-1,14
 682 470 682 470 680.5 399.5 c 128,-1,15
 679 329 679 329 676.5 264.5 c 128,-1,16
 674 200 674 200 669.5 149 c 128,-1,17
 665 98 665 98 660 74 c 0,18,19
 653 44 653 44 636 22.5 c 128,-1,20
 619 1 619 1 597 -7.5 c 128,-1,21
 575 -16 575 -16 550.5 -10 c 128,-1,22
 526 -4 526 -4 504 20 c 0,23,24
 462 66 462 66 428.5 115.5 c 128,-1,25
 395 165 395 165 364.5 213 c 128,-1,26
 334 261 334 261 305 304 c 128,-1,27
 276 347 276 347 244 379 c 1,28,29
 236 324 236 324 234.5 269 c 128,-1,30
 233 214 233 214 235 157 c 0,31,32
 238 82 238 82 217.5 44.5 c 128,-1,33
 197 7 197 7 168 -2 c 128,-1,34
 139 -11 139 -11 110 5 c 128,-1,35
 81 21 81 21 67 53 c 0,36,37
 54 83 54 83 48 136 c 128,-1,38
 42 189 42 189 42 253 c 128,-1,39
 42 317 42 317 47.5 387 c 128,-1,40
 53 457 53 457 62.5 520.5 c 128,-1,41
 72 584 72 584 85.5 635 c 128,-1,42
 99 686 99 686 115 714 c 0,43,44
 128 736 128 736 147.5 748.5 c 128,-1,45
 167 761 167 761 189 762 c 128,-1,46
 211 763 211 763 232 753 c 128,-1,47
 253 743 253 743 269 722 c 0,48,49
 279 709 279 709 284.5 694 c 128,-1,50
 290 679 290 679 295 664 c 0,51,52
 333 558 333 558 384 457 c 128,-1,53
 435 356 435 356 510 268 c 1,0,1
EndSplineSet
Validated: 33
EndChar

StartChar: L
Encoding: 76 76 16
Width: 537
GlyphClass: 1
Flags: W
LayerCount: 2
Fore
SplineSet
217 165 m 1,0,1
 241 165 241 165 269 167.5 c 128,-1,2
 297 170 297 170 325.5 172 c 128,-1,3
 354 174 354 174 382 174.5 c 128,-1,4
 410 175 410 175 434 171 c 0,5,6
 460 166 460 166 477 148.5 c 128,-1,7
 494 131 494 131 498.5 108 c 128,-1,8
 503 85 503 85 494 61 c 128,-1,9
 485 37 485 37 459 21 c 0,10,11
 435 6 435 6 393.5 -1.5 c 128,-1,12
 352 -9 352 -9 307 -10.5 c 128,-1,13
 262 -12 262 -12 219 -9 c 128,-1,14
 176 -6 176 -6 148 0 c 0,15,16
 116 6 116 6 97 26 c 128,-1,17
 78 46 78 46 67 72 c 128,-1,18
 56 98 56 98 51 127 c 128,-1,19
 46 156 46 156 44 179 c 0,20,21
 39 237 39 237 40 312.5 c 128,-1,22
 41 388 41 388 46.5 462.5 c 128,-1,23
 52 537 52 537 60.5 601.5 c 128,-1,24
 69 666 69 666 80 703 c 0,25,26
 88 728 88 728 106 744 c 128,-1,27
 124 760 124 760 151 760 c 0,28,29
 179 760 179 760 196.5 744 c 128,-1,30
 214 728 214 728 220 703 c 0,31,32
 232 650 232 650 232.5 581 c 128,-1,33
 233 512 233 512 229.5 439 c 128,-1,34
 226 366 226 366 221.5 294.5 c 128,-1,35
 217 223 217 223 217 165 c 1,0,1
EndSplineSet
Validated: 33
EndChar

StartChar: M
Encoding: 77 77 17
Width: 833
GlyphClass: 1
Flags: W
LayerCount: 2
Fore
SplineSet
232 335 m 256,0,1
 232 299 232 299 232.5 257 c 128,-1,2
 233 215 233 215 232 175.5 c 128,-1,3
 231 136 231 136 228.5 102.5 c 128,-1,4
 226 69 226 69 221 50 c 0,5,6
 213 26 213 26 197 10.5 c 128,-1,7
 181 -5 181 -5 155 -7 c 0,8,9
 121 -10 121 -10 98.5 12 c 128,-1,10
 76 34 76 34 63 73.5 c 128,-1,11
 50 113 50 113 45 164.5 c 128,-1,12
 40 216 40 216 40 272.5 c 128,-1,13
 40 329 40 329 44 385.5 c 128,-1,14
 48 442 48 442 53.5 490 c 128,-1,15
 59 538 59 538 65 573.5 c 128,-1,16
 71 609 71 609 75 623 c 0,17,18
 87 670 87 670 115 704 c 128,-1,19
 143 738 143 738 175 748.5 c 128,-1,20
 207 759 207 759 239 741 c 128,-1,21
 271 723 271 723 292 668 c 0,22,23
 305 633 305 633 317 597.5 c 128,-1,24
 329 562 329 562 342.5 525 c 128,-1,25
 356 488 356 488 372.5 449 c 128,-1,26
 389 410 389 410 412 368 c 1,27,28
 429 403 429 403 451.5 454.5 c 128,-1,29
 474 506 474 506 500.5 558.5 c 128,-1,30
 527 611 527 611 555.5 657 c 128,-1,31
 584 703 584 703 612 727 c 0,32,33
 647 757 647 757 685.5 752 c 128,-1,34
 724 747 724 747 747 706 c 0,35,36
 758 686 758 686 766 643 c 128,-1,37
 774 600 774 600 778.5 544 c 128,-1,38
 783 488 783 488 785 426 c 128,-1,39
 787 364 787 364 787 306 c 128,-1,40
 787 248 787 248 786 199.5 c 128,-1,41
 785 151 785 151 784 124 c 0,42,43
 781 65 781 65 756 33.5 c 128,-1,44
 731 2 731 2 699.5 -5.5 c 128,-1,45
 668 -13 668 -13 638.5 3 c 128,-1,46
 609 19 609 19 597 55 c 0,47,48
 592 72 592 72 593 102.5 c 128,-1,49
 594 133 594 133 597 171 c 128,-1,50
 600 209 600 209 604 250.5 c 128,-1,51
 608 292 608 292 609 330 c 0,52,53
 610 363 610 363 606 375.5 c 128,-1,54
 602 388 602 388 594.5 386 c 128,-1,55
 587 384 587 384 575.5 369.5 c 128,-1,56
 564 355 564 355 549 333 c 0,57,58
 527 300 527 300 508.5 267 c 128,-1,59
 490 234 490 234 472 209.5 c 128,-1,60
 454 185 454 185 435 174 c 128,-1,61
 416 163 416 163 393 174 c 128,-1,62
 370 185 370 185 342 222 c 128,-1,63
 314 259 314 259 277 332 c 0,64,65
 266 355 266 355 257.5 372 c 128,-1,66
 249 389 249 389 243.5 393 c 128,-1,67
 238 397 238 397 235 384 c 128,-1,68
 232 371 232 371 232 335 c 256,0,1
EndSplineSet
Validated: 33
EndChar

StartChar: K
Encoding: 75 75 18
Width: 597
GlyphClass: 1
Flags: W
LayerCount: 2
Fore
SplineSet
238 474 m 1,0,1
 284 495 284 495 311 525 c 128,-1,2
 338 555 338 555 356 591 c 128,-1,3
 374 627 374 627 387 666.5 c 128,-1,4
 400 706 400 706 418 745 c 0,5,6
 429 769 429 769 454.5 776 c 128,-1,7
 480 783 480 783 507 775 c 0,8,9
 533 768 533 768 549 750 c 128,-1,10
 565 732 565 732 567 706 c 0,11,12
 570 666 570 666 560 631 c 0,13,14
 546 571 546 571 512.5 523 c 128,-1,15
 479 475 479 475 436 433 c 0,16,17
 422 419 422 419 421 392.5 c 128,-1,18
 420 366 420 366 427 334 c 128,-1,19
 434 302 434 302 447.5 266 c 128,-1,20
 461 230 461 230 475.5 198 c 128,-1,21
 490 166 490 166 504 139.5 c 128,-1,22
 518 113 518 113 527 99 c 0,23,24
 539 79 539 79 543 59.5 c 128,-1,25
 547 40 547 40 533 20 c 0,26,27
 521 1 521 1 500.5 -7 c 128,-1,28
 480 -15 480 -15 459 -8 c 0,29,30
 412 5 412 5 379.5 39.5 c 128,-1,31
 347 74 347 74 325.5 119 c 128,-1,32
 304 164 304 164 291.5 215.5 c 128,-1,33
 279 267 279 267 272 316 c 1,34,35
 263 318 263 318 255.5 314.5 c 128,-1,36
 248 311 248 311 242.5 305 c 128,-1,37
 237 299 237 299 233.5 291.5 c 128,-1,38
 230 284 230 284 230 278 c 0,39,40
 225 220 225 220 222 157.5 c 128,-1,41
 219 95 219 95 205 38 c 0,42,43
 200 15 200 15 184.5 0 c 128,-1,44
 169 -15 169 -15 144 -18 c 0,45,46
 122 -20 122 -20 107 -13 c 128,-1,47
 92 -6 92 -6 82.5 7 c 128,-1,48
 73 20 73 20 67.5 37 c 128,-1,49
 62 54 62 54 59 72 c 0,50,51
 53 107 53 107 47.5 161.5 c 128,-1,52
 42 216 42 216 39 280 c 128,-1,53
 36 344 36 344 35.5 412.5 c 128,-1,54
 35 481 35 481 38.5 544 c 128,-1,55
 42 607 42 607 50.5 658.5 c 128,-1,56
 59 710 59 710 73 741 c 0,57,58
 83 762 83 762 110.5 772 c 128,-1,59
 138 782 138 782 162 780 c 0,60,61
 189 777 189 777 205 758.5 c 128,-1,62
 221 740 221 740 229.5 712.5 c 128,-1,63
 238 685 238 685 240.5 651.5 c 128,-1,64
 243 618 243 618 242.5 585 c 128,-1,65
 242 552 242 552 240 522.5 c 128,-1,66
 238 493 238 493 238 474 c 1,0,1
EndSplineSet
Validated: 33
EndChar

StartChar: J
Encoding: 74 74 19
Width: 553
GlyphClass: 1
Flags: W
LayerCount: 2
Fore
SplineSet
327 592 m 1,0,-1
 256 596 l 2,1,2
 239 597 239 597 222 597 c 128,-1,3
 205 597 205 597 189 602 c 0,4,5
 162 608 162 608 151 629 c 128,-1,6
 140 650 140 650 142 674 c 128,-1,7
 144 698 144 698 159.5 718.5 c 128,-1,8
 175 739 175 739 202 745 c 0,9,10
 221 749 221 749 251 754 c 128,-1,11
 281 759 281 759 314.5 761 c 128,-1,12
 348 763 348 763 381.5 760.5 c 128,-1,13
 415 758 415 758 441.5 748 c 128,-1,14
 468 738 468 738 483.5 718.5 c 128,-1,15
 499 699 499 699 496 666 c 0,16,17
 493 634 493 634 491 600.5 c 128,-1,18
 489 567 489 567 496 536 c 0,19,20
 510 465 510 465 510 378.5 c 128,-1,21
 510 292 510 292 490 211 c 0,22,23
 477 160 477 160 453 119 c 128,-1,24
 429 78 429 78 397.5 50 c 128,-1,25
 366 22 366 22 328 7.5 c 128,-1,26
 290 -7 290 -7 250 -7 c 0,27,28
 212 -7 212 -7 174 7.5 c 128,-1,29
 136 22 136 22 105 51 c 128,-1,30
 74 80 74 80 54 124.5 c 128,-1,31
 34 169 34 169 32 230 c 0,32,33
 32 253 32 253 33.5 281 c 128,-1,34
 35 309 35 309 42 335.5 c 128,-1,35
 49 362 49 362 62 384.5 c 128,-1,36
 75 407 75 407 96 419 c 0,37,38
 111 428 111 428 129 431 c 128,-1,39
 147 434 147 434 163 429 c 128,-1,40
 179 424 179 424 191.5 410.5 c 128,-1,41
 204 397 204 397 209 374 c 0,42,43
 214 349 214 349 214.5 321.5 c 128,-1,44
 215 294 215 294 217 274 c 0,45,46
 222 229 222 229 241 211 c 128,-1,47
 260 193 260 193 281.5 198.5 c 128,-1,48
 303 204 303 204 321.5 229 c 128,-1,49
 340 254 340 254 345 295 c 0,50,51
 349 332 349 332 348 369.5 c 128,-1,52
 347 407 347 407 343.5 444 c 128,-1,53
 340 481 340 481 335.5 518 c 128,-1,54
 331 555 331 555 327 592 c 1,0,-1
EndSplineSet
Validated: 33
EndChar

StartChar: I
Encoding: 73 73 20
Width: 471
GlyphClass: 1
Flags: W
LayerCount: 2
Fore
SplineSet
155 116 m 1,0,1
 150 193 150 193 148 257 c 128,-1,2
 146 321 146 321 146 382.5 c 128,-1,3
 146 444 146 444 148 508 c 128,-1,4
 150 572 150 572 154 649 c 1,5,6
 117 652 117 652 92.5 666 c 128,-1,7
 68 680 68 680 60 698 c 128,-1,8
 52 716 52 716 61.5 734.5 c 128,-1,9
 71 753 71 753 101 765 c 0,10,11
 118 771 118 771 155.5 773.5 c 128,-1,12
 193 776 193 776 235 776.5 c 128,-1,13
 277 777 277 777 316.5 776 c 128,-1,14
 356 775 356 775 377 774 c 0,15,16
 401 773 401 773 416 761 c 128,-1,17
 431 749 431 749 435 733 c 128,-1,18
 439 717 439 717 431 700.5 c 128,-1,19
 423 684 423 684 402 674 c 0,20,21
 383 665 383 665 360.5 660.5 c 128,-1,22
 338 656 338 656 318 651 c 1,23,-1
 318 122 l 1,24,25
 333 117 333 117 351 111 c 128,-1,26
 369 105 369 105 383 95.5 c 128,-1,27
 397 86 397 86 404.5 72.5 c 128,-1,28
 412 59 412 59 406 39 c 0,29,30
 398 17 398 17 380.5 8.5 c 128,-1,31
 363 0 363 0 342 -2 c 0,32,33
 316 -4 316 -4 282.5 -7 c 128,-1,34
 249 -10 249 -10 214 -12 c 128,-1,35
 179 -14 179 -14 147 -13 c 128,-1,36
 115 -12 115 -12 92 -6 c 0,37,38
 67 1 67 1 55.5 19 c 128,-1,39
 44 37 44 37 49.5 57.5 c 128,-1,40
 55 78 55 78 80 95 c 128,-1,41
 105 112 105 112 155 116 c 1,0,1
EndSplineSet
Validated: 33
EndChar

StartChar: H
Encoding: 72 72 21
Width: 650
GlyphClass: 1
Flags: W
LayerCount: 2
Fore
SplineSet
235 404 m 1,0,-1
 419 404 l 1,1,2
 420 429 420 429 421 465 c 128,-1,3
 422 501 422 501 424.5 542 c 128,-1,4
 427 583 427 583 432.5 625 c 128,-1,5
 438 667 438 667 447 705 c 0,6,7
 455 739 455 739 478.5 756 c 128,-1,8
 502 773 502 773 528 772.5 c 128,-1,9
 554 772 554 772 576 754.5 c 128,-1,10
 598 737 598 737 604 703 c 0,11,12
 609 673 609 673 610.5 630.5 c 128,-1,13
 612 588 612 588 610 539 c 128,-1,14
 608 490 608 490 605 438 c 128,-1,15
 602 386 602 386 598 336.5 c 128,-1,16
 594 287 594 287 590.5 243 c 128,-1,17
 587 199 587 199 586 168 c 0,18,19
 585 154 585 154 583.5 133.5 c 128,-1,20
 582 113 582 113 578 92 c 128,-1,21
 574 71 574 71 568.5 52.5 c 128,-1,22
 563 34 563 34 554 22 c 0,23,24
 543 6 543 6 527 -2 c 128,-1,25
 511 -10 511 -10 494.5 -10 c 128,-1,26
 478 -10 478 -10 463 -1 c 128,-1,27
 448 8 448 8 438 26 c 0,28,29
 429 42 429 42 424.5 74.5 c 128,-1,30
 420 107 420 107 417.5 142.5 c 128,-1,31
 415 178 415 178 414 211.5 c 128,-1,32
 413 245 413 245 411 264 c 1,33,-1
 234 255 l 1,34,35
 233 207 233 207 231.5 159.5 c 128,-1,36
 230 112 230 112 233 64 c 0,37,38
 234 37 234 37 220 17 c 128,-1,39
 206 -3 206 -3 185.5 -12 c 128,-1,40
 165 -21 165 -21 142.5 -16.5 c 128,-1,41
 120 -12 120 -12 104 10 c 0,42,43
 80 42 80 42 65 97.5 c 128,-1,44
 50 153 50 153 42 220 c 128,-1,45
 34 287 34 287 33 360.5 c 128,-1,46
 32 434 32 434 36 503 c 128,-1,47
 40 572 40 572 48.5 630.5 c 128,-1,48
 57 689 57 689 69 726 c 0,49,50
 77 749 77 749 96.5 759 c 128,-1,51
 116 769 116 769 140 767 c 0,52,53
 183 766 183 766 205 725 c 0,54,55
 214 705 214 705 219.5 662.5 c 128,-1,56
 225 620 225 620 227.5 571 c 128,-1,57
 230 522 230 522 231.5 476 c 128,-1,58
 233 430 233 430 235 404 c 1,0,-1
EndSplineSet
Validated: 33
EndChar

StartChar: G
Encoding: 71 71 22
Width: 594
GlyphClass: 1
Flags: W
LayerCount: 2
Fore
SplineSet
405 304 m 1,0,1
 389 301 389 301 376 297 c 128,-1,2
 363 293 363 293 350 290.5 c 128,-1,3
 337 288 337 288 324 289 c 128,-1,4
 311 290 311 290 295 296 c 0,5,6
 273 304 273 304 260 321 c 128,-1,7
 247 338 247 338 243.5 358 c 128,-1,8
 240 378 240 378 247 398.5 c 128,-1,9
 254 419 254 419 272 434 c 0,10,11
 291 450 291 450 317.5 457.5 c 128,-1,12
 344 465 344 465 372.5 467.5 c 128,-1,13
 401 470 401 470 429 468.5 c 128,-1,14
 457 467 457 467 480 466 c 0,15,16
 507 464 507 464 524.5 445 c 128,-1,17
 542 426 542 426 548 397 c 0,18,19
 562 334 562 334 554 267 c 0,20,21
 546 195 546 195 523.5 141.5 c 128,-1,22
 501 88 501 88 468 53 c 128,-1,23
 435 18 435 18 394.5 -0.5 c 128,-1,24
 354 -19 354 -19 311 -20 c 0,25,26
 260 -22 260 -22 211 -1.5 c 128,-1,27
 162 19 162 19 122.5 59.5 c 128,-1,28
 83 100 83 100 58 160 c 128,-1,29
 33 220 33 220 30 299 c 0,30,31
 28 343 28 343 31.5 389.5 c 128,-1,32
 35 436 35 436 44 481.5 c 128,-1,33
 53 527 53 527 69 569.5 c 128,-1,34
 85 612 85 612 109 648 c 0,35,36
 142 698 142 698 187 726.5 c 128,-1,37
 232 755 232 755 281 764 c 128,-1,38
 330 773 330 773 377.5 764.5 c 128,-1,39
 425 756 425 756 463 733 c 128,-1,40
 501 710 501 710 525 672.5 c 128,-1,41
 549 635 549 635 550 587 c 0,42,43
 552 555 552 555 539 531.5 c 128,-1,44
 526 508 526 508 506.5 497.5 c 128,-1,45
 487 487 487 487 465 492 c 128,-1,46
 443 497 443 497 425 521 c 0,47,48
 413 538 413 538 398 555.5 c 128,-1,49
 383 573 383 573 354 581 c 0,50,51
 320 590 320 590 291 576.5 c 128,-1,52
 262 563 262 563 240 535 c 128,-1,53
 218 507 218 507 203 468 c 128,-1,54
 188 429 188 429 182.5 387.5 c 128,-1,55
 177 346 177 346 181 305 c 128,-1,56
 185 264 185 264 200.5 231.5 c 128,-1,57
 216 199 216 199 243.5 179 c 128,-1,58
 271 159 271 159 313 159 c 0,59,60
 340 159 340 159 361 172.5 c 128,-1,61
 382 186 382 186 394.5 207.5 c 128,-1,62
 407 229 407 229 410.5 254.5 c 128,-1,63
 414 280 414 280 405 304 c 1,0,1
EndSplineSet
Validated: 33
EndChar

StartChar: at
Encoding: 64 64 23
Width: 750
GlyphClass: 1
Flags: W
LayerCount: 2
Fore
SplineSet
469 250 m 1,0,1
 428 203 428 203 389.5 192.5 c 128,-1,2
 351 182 351 182 321 197 c 128,-1,3
 291 212 291 212 272 247 c 128,-1,4
 253 282 253 282 251.5 326 c 128,-1,5
 250 370 250 370 269 417.5 c 128,-1,6
 288 465 288 465 333 505 c 0,7,8
 362 530 362 530 395 532 c 128,-1,9
 428 534 428 534 462 518 c 0,10,11
 485 508 485 508 497 495 c 128,-1,12
 509 482 509 482 515 467 c 128,-1,13
 521 452 521 452 522.5 435.5 c 128,-1,14
 524 419 524 419 526 402 c 0,15,16
 528 372 528 372 534.5 359 c 128,-1,17
 541 346 541 346 549 348 c 128,-1,18
 557 350 557 350 564.5 365.5 c 128,-1,19
 572 381 572 381 577 407 c 256,20,21
 582 433 582 433 581 460.5 c 128,-1,22
 580 488 580 488 572 514 c 0,23,24
 564 541 564 541 540 557.5 c 128,-1,25
 516 574 516 574 484 582 c 128,-1,26
 452 590 452 590 415 589 c 128,-1,27
 378 588 378 588 344.5 580 c 128,-1,28
 311 572 311 572 284.5 557 c 128,-1,29
 258 542 258 542 247 522 c 0,30,31
 213 460 213 460 199.5 390 c 128,-1,32
 186 320 186 320 200 251 c 0,33,34
 212 193 212 193 237 165 c 128,-1,35
 262 137 262 137 295 128.5 c 128,-1,36
 328 120 328 120 367 125.5 c 128,-1,37
 406 131 406 131 446 141 c 128,-1,38
 486 151 486 151 524 159 c 128,-1,39
 562 167 562 167 594 164 c 0,40,41
 611 162 611 162 624 154.5 c 128,-1,42
 637 147 637 147 643.5 135.5 c 128,-1,43
 650 124 650 124 649.5 109.5 c 128,-1,44
 649 95 649 95 640 80 c 0,45,46
 632 67 632 67 619.5 57 c 128,-1,47
 607 47 607 47 593 40 c 0,48,49
 545 14 545 14 488 -1.5 c 128,-1,50
 431 -17 431 -17 377 -22 c 0,51,52
 288 -29 288 -29 224.5 -4 c 128,-1,53
 161 21 161 21 119.5 68.5 c 128,-1,54
 78 116 78 116 57.5 179.5 c 128,-1,55
 37 243 37 243 35 312 c 128,-1,56
 33 381 33 381 48.5 451 c 128,-1,57
 64 521 64 521 95 580 c 0,58,59
 133 653 133 653 194.5 689.5 c 128,-1,60
 256 726 256 726 339 734 c 0,61,62
 391 739 391 739 442.5 736 c 128,-1,63
 494 733 494 733 545 719 c 0,64,65
 592 707 592 707 624 680 c 128,-1,66
 656 653 656 653 675 616.5 c 128,-1,67
 694 580 694 580 700.5 537.5 c 128,-1,68
 707 495 707 495 704.5 451 c 128,-1,69
 702 407 702 407 691.5 364.5 c 128,-1,70
 681 322 681 322 664 287 c 0,71,72
 647 254 647 254 625.5 237 c 128,-1,73
 604 220 604 220 578.5 217 c 128,-1,74
 553 214 553 214 525 223 c 128,-1,75
 497 232 497 232 469 250 c 1,0,1
413 355 m 0,76,77
 416 363 416 363 415 373 c 128,-1,78
 414 383 414 383 409 389 c 128,-1,79
 404 395 404 395 397 393.5 c 128,-1,80
 390 392 390 392 381 378 c 0,81,82
 364 352 364 352 362 334.5 c 128,-1,83
 360 317 360 317 367 312 c 128,-1,84
 374 307 374 307 386.5 316.5 c 128,-1,85
 399 326 399 326 413 355 c 0,76,77
EndSplineSet
Validated: 33
EndChar

StartChar: question
Encoding: 63 63 24
Width: 536
GlyphClass: 1
Flags: W
LayerCount: 2
Fore
SplineSet
492 550 m 0,0,1
 492 517 492 517 480.5 487.5 c 128,-1,2
 469 458 469 458 451 432 c 128,-1,3
 433 406 433 406 409.5 383 c 128,-1,4
 386 360 386 360 362 338 c 0,5,6
 333 313 333 313 313 290.5 c 128,-1,7
 293 268 293 268 278 233 c 0,8,9
 270 215 270 215 265 203.5 c 128,-1,10
 260 192 260 192 243 182 c 0,11,12
 227 173 227 173 208.5 171.5 c 128,-1,13
 190 170 190 170 173 175 c 128,-1,14
 156 180 156 180 143.5 191.5 c 128,-1,15
 131 203 131 203 127 220 c 0,16,17
 118 254 118 254 124 281 c 128,-1,18
 130 308 130 308 145.5 330.5 c 128,-1,19
 161 353 161 353 183 373 c 128,-1,20
 205 393 205 393 227.5 413.5 c 128,-1,21
 250 434 250 434 270 456 c 128,-1,22
 290 478 290 478 302 505 c 0,23,24
 321 549 321 549 310.5 571.5 c 128,-1,25
 300 594 300 594 278 598.5 c 128,-1,26
 256 603 256 603 232 591 c 128,-1,27
 208 579 208 579 199 554 c 0,28,29
 194 541 194 541 190.5 526.5 c 128,-1,30
 187 512 187 512 180 497 c 0,31,32
 169 473 169 473 150.5 457.5 c 128,-1,33
 132 442 132 442 94 447 c 0,34,35
 74 449 74 449 61 459 c 128,-1,36
 48 469 48 469 40.5 482.5 c 128,-1,37
 33 496 33 496 30.5 512 c 128,-1,38
 28 528 28 528 29 542 c 0,39,40
 31 611 31 611 66.5 657 c 128,-1,41
 102 703 102 703 153.5 726 c 128,-1,42
 205 749 205 749 264.5 749.5 c 128,-1,43
 324 750 324 750 375 727.5 c 128,-1,44
 426 705 426 705 459 660.5 c 128,-1,45
 492 616 492 616 492 550 c 0,0,1
97 65 m 0,46,47
 98 88 98 88 110.5 103.5 c 128,-1,48
 123 119 123 119 141.5 126.5 c 128,-1,49
 160 134 160 134 181 134 c 128,-1,50
 202 134 202 134 220 126 c 128,-1,51
 238 118 238 118 250 102.5 c 128,-1,52
 262 87 262 87 262 65 c 0,53,54
 262 40 262 40 249 24 c 128,-1,55
 236 8 236 8 217.5 0 c 128,-1,56
 199 -8 199 -8 177.5 -8 c 128,-1,57
 156 -8 156 -8 137.5 0 c 128,-1,58
 119 8 119 8 107.5 24.5 c 128,-1,59
 96 41 96 41 97 65 c 0,46,47
EndSplineSet
Validated: 33
EndChar

StartChar: greater
Encoding: 62 62 25
Width: 505
GlyphClass: 1
Flags: W
LayerCount: 2
Fore
SplineSet
440 402 m 0,0,1
 440 370 440 370 430 340 c 128,-1,2
 420 310 420 310 400 284 c 0,3,4
 388 270 388 270 366 247.5 c 128,-1,5
 344 225 344 225 316 200.5 c 128,-1,6
 288 176 288 176 256.5 152.5 c 128,-1,7
 225 129 225 129 195 112 c 128,-1,8
 165 95 165 95 138 87 c 128,-1,9
 111 79 111 79 92 86 c 0,10,11
 63 97 63 97 54 113.5 c 128,-1,12
 45 130 45 130 48.5 148 c 128,-1,13
 52 166 52 166 65 184 c 128,-1,14
 78 202 78 202 94 216 c 0,15,16
 133 251 133 251 172.5 285 c 128,-1,17
 212 319 212 319 249 357 c 0,18,19
 270 378 270 378 278.5 392.5 c 128,-1,20
 287 407 287 407 284 418 c 128,-1,21
 281 429 281 429 266.5 438.5 c 128,-1,22
 252 448 252 448 225 459 c 0,23,24
 211 465 211 465 190 472 c 128,-1,25
 169 479 169 479 146 488.5 c 128,-1,26
 123 498 123 498 101.5 509.5 c 128,-1,27
 80 521 80 521 65 535.5 c 128,-1,28
 50 550 50 550 44.5 568 c 128,-1,29
 39 586 39 586 49 608 c 0,30,31
 59 631 59 631 81.5 642.5 c 128,-1,32
 104 654 104 654 128 649 c 0,33,34
 150 645 150 645 187 628.5 c 128,-1,35
 224 612 224 612 263 591 c 128,-1,36
 302 570 302 570 337 548 c 128,-1,37
 372 526 372 526 389 511 c 0,38,39
 440 468 440 468 440 402 c 0,0,1
EndSplineSet
Validated: 33
EndChar

StartChar: equal
Encoding: 61 61 26
Width: 599
GlyphClass: 1
Flags: W
LayerCount: 2
Fore
SplineSet
488 335 m 0,0,1
 391 331 391 331 330.5 329 c 128,-1,2
 270 327 270 327 233 326 c 128,-1,3
 196 325 196 325 175.5 325 c 128,-1,4
 155 325 155 325 138 326 c 0,5,6
 102 328 102 328 85 349 c 128,-1,7
 68 370 68 370 72.5 394 c 128,-1,8
 77 418 77 418 104.5 438 c 128,-1,9
 132 458 132 458 187 460 c 0,10,11
 201 460 201 460 227.5 460.5 c 128,-1,12
 254 461 254 461 286.5 460.5 c 128,-1,13
 319 460 319 460 354 459 c 128,-1,14
 389 458 389 458 420.5 455.5 c 128,-1,15
 452 453 452 453 476 450 c 128,-1,16
 500 447 500 447 511 442 c 0,17,18
 532 433 532 433 541 415.5 c 128,-1,19
 550 398 550 398 547 380.5 c 128,-1,20
 544 363 544 363 529.5 349.5 c 128,-1,21
 515 336 515 336 488 335 c 0,0,1
155 142 m 0,22,23
 122 142 122 142 105.5 147 c 128,-1,24
 89 152 89 152 81 159.5 c 128,-1,25
 73 167 73 167 70.5 177 c 128,-1,26
 68 187 68 187 64 199 c 0,27,28
 57 221 57 221 72.5 241 c 128,-1,29
 88 261 88 261 122 268 c 0,30,31
 159 275 159 275 199 278.5 c 128,-1,32
 239 282 239 282 280 283.5 c 128,-1,33
 321 285 321 285 361 285 c 128,-1,34
 401 285 401 285 439 286 c 0,35,36
 485 287 485 287 510.5 271.5 c 128,-1,37
 536 256 536 256 541 236 c 128,-1,38
 546 216 546 216 532 197.5 c 128,-1,39
 518 179 518 179 486 175 c 0,40,41
 453 170 453 170 410 164.5 c 128,-1,42
 367 159 367 159 322 153.5 c 128,-1,43
 277 148 277 148 233 145 c 128,-1,44
 189 142 189 142 155 142 c 0,22,23
EndSplineSet
Validated: 33
EndChar

StartChar: less
Encoding: 60 60 27
Width: 505
GlyphClass: 1
Flags: W
LayerCount: 2
Fore
SplineSet
57 310 m 0,0,1
 57 342 57 342 67 372 c 128,-1,2
 77 402 77 402 97 428 c 0,3,4
 108 442 108 442 130.5 464.5 c 128,-1,5
 153 487 153 487 181 511.5 c 128,-1,6
 209 536 209 536 240.5 559.5 c 128,-1,7
 272 583 272 583 302 600 c 128,-1,8
 332 617 332 617 359 625 c 128,-1,9
 386 633 386 633 405 626 c 0,10,11
 433 615 433 615 442.5 598.5 c 128,-1,12
 452 582 452 582 448.5 564 c 128,-1,13
 445 546 445 546 432 528 c 128,-1,14
 419 510 419 510 403 496 c 0,15,16
 364 461 364 461 324.5 427 c 128,-1,17
 285 393 285 393 248 355 c 0,18,19
 227 334 227 334 218.5 319.5 c 128,-1,20
 210 305 210 305 213 294 c 128,-1,21
 216 283 216 283 230.5 273.5 c 128,-1,22
 245 264 245 264 272 253 c 0,23,24
 286 247 286 247 307 240 c 128,-1,25
 328 233 328 233 351 223.5 c 128,-1,26
 374 214 374 214 395.5 202.5 c 128,-1,27
 417 191 417 191 432 176.5 c 128,-1,28
 447 162 447 162 452.5 144 c 128,-1,29
 458 126 458 126 448 104 c 0,30,31
 438 81 438 81 415.5 69.5 c 128,-1,32
 393 58 393 58 369 63 c 0,33,34
 347 67 347 67 310 83.5 c 128,-1,35
 273 100 273 100 234 121 c 128,-1,36
 195 142 195 142 160 164 c 128,-1,37
 125 186 125 186 108 201 c 0,38,39
 57 244 57 244 57 310 c 0,0,1
EndSplineSet
Validated: 33
EndChar

StartChar: semicolon
Encoding: 59 59 28
Width: 263
GlyphClass: 1
Flags: W
LayerCount: 2
Fore
SplineSet
200 98 m 0,0,1
 201 56 201 56 188 23.5 c 128,-1,2
 175 -9 175 -9 155 -30 c 128,-1,3
 135 -51 135 -51 113 -59.5 c 128,-1,4
 91 -68 91 -68 74 -63 c 128,-1,5
 57 -58 57 -58 49.5 -38 c 128,-1,6
 42 -18 42 -18 52 18 c 0,7,8
 57 36 57 36 57 62.5 c 128,-1,9
 57 89 57 89 61 116 c 128,-1,10
 65 143 65 143 76.5 164.5 c 128,-1,11
 88 186 88 186 115 193 c 0,12,13
 133 197 133 197 149 193 c 128,-1,14
 165 189 165 189 177 177 c 128,-1,15
 189 165 189 165 195.5 145 c 128,-1,16
 202 125 202 125 200 98 c 0,0,1
59 415 m 0,17,18
 61 450 61 450 74 471 c 128,-1,19
 87 492 87 492 105 500.5 c 128,-1,20
 123 509 123 509 143.5 507 c 128,-1,21
 164 505 164 505 181 494 c 128,-1,22
 198 483 198 483 208.5 464 c 128,-1,23
 219 445 219 445 217 421 c 0,24,25
 215 392 215 392 202 372 c 128,-1,26
 189 352 189 352 171 341.5 c 128,-1,27
 153 331 153 331 132.5 330 c 128,-1,28
 112 329 112 329 95 338 c 128,-1,29
 78 347 78 347 67.5 366 c 128,-1,30
 57 385 57 385 59 415 c 0,17,18
EndSplineSet
Validated: 33
EndChar

StartChar: nine
Encoding: 57 57 29
Width: 576
GlyphClass: 1
Flags: W
LayerCount: 2
Fore
SplineSet
383 282 m 1,0,1
 357 280 357 280 332.5 278 c 128,-1,2
 308 276 308 276 283 275 c 0,3,4
 225 273 225 273 184 293.5 c 128,-1,5
 143 314 143 314 118.5 349.5 c 128,-1,6
 94 385 94 385 85 430 c 128,-1,7
 76 475 76 475 82.5 520.5 c 128,-1,8
 89 566 89 566 109.5 608 c 128,-1,9
 130 650 130 650 163.5 679 c 128,-1,10
 197 708 197 708 244 720 c 128,-1,11
 291 732 291 732 350 717 c 0,12,13
 406 703 406 703 442.5 665 c 128,-1,14
 479 627 479 627 499 575 c 128,-1,15
 519 523 519 523 525.5 461.5 c 128,-1,16
 532 400 532 400 527.5 338.5 c 128,-1,17
 523 277 523 277 510.5 220.5 c 128,-1,18
 498 164 498 164 480 123 c 0,19,20
 462 80 462 80 441.5 51.5 c 128,-1,21
 421 23 421 23 395 6.5 c 128,-1,22
 369 -10 369 -10 335 -15.5 c 128,-1,23
 301 -21 301 -21 255 -18 c 0,24,25
 226 -16 226 -16 193.5 -3 c 128,-1,26
 161 10 161 10 131 30 c 128,-1,27
 101 50 101 50 77 75 c 128,-1,28
 53 100 53 100 41.5 126 c 128,-1,29
 30 152 30 152 33.5 177 c 128,-1,30
 37 202 37 202 63 222 c 0,31,32
 86 240 86 240 111 234 c 128,-1,33
 136 228 136 228 161 212 c 128,-1,34
 186 196 186 196 211.5 176.5 c 128,-1,35
 237 157 237 157 261.5 147.5 c 128,-1,36
 286 138 286 138 309.5 146 c 128,-1,37
 333 154 333 154 355 193 c 0,38,39
 366 214 366 214 375 236 c 128,-1,40
 384 258 384 258 383 282 c 1,0,1
366 544 m 0,41,42
 349 576 349 576 329.5 584.5 c 128,-1,43
 310 593 310 593 292 586 c 128,-1,44
 274 579 274 579 259.5 560 c 128,-1,45
 245 541 245 541 238.5 519 c 128,-1,46
 232 497 232 497 236.5 476 c 128,-1,47
 241 455 241 455 261 443 c 0,48,49
 294 422 294 422 320.5 424.5 c 128,-1,50
 347 427 347 427 362 444 c 128,-1,51
 377 461 377 461 379 488 c 128,-1,52
 381 515 381 515 366 544 c 0,41,42
EndSplineSet
Validated: 33
EndChar

StartChar: seven
Encoding: 55 55 30
Width: 615
GlyphClass: 1
Flags: W
LayerCount: 2
Fore
SplineSet
424 371 m 1,0,1
 436 371 436 371 448 372 c 128,-1,2
 460 373 460 373 472 371 c 0,3,4
 489 368 489 368 506.5 364 c 128,-1,5
 524 360 524 360 538 351 c 0,6,7
 555 340 555 340 563.5 325 c 128,-1,8
 572 310 572 310 572.5 294 c 128,-1,9
 573 278 573 278 564.5 262.5 c 128,-1,10
 556 247 556 247 540 236 c 256,11,12
 524 225 524 225 503 219.5 c 128,-1,13
 482 214 482 214 460 210.5 c 128,-1,14
 438 207 438 207 416 205.5 c 128,-1,15
 394 204 394 204 375 203 c 0,16,17
 356 201 356 201 343.5 193.5 c 128,-1,18
 331 186 331 186 325 167 c 0,19,20
 319 150 319 150 313 127 c 128,-1,21
 307 104 307 104 299.5 80.5 c 128,-1,22
 292 57 292 57 283 35.5 c 128,-1,23
 274 14 274 14 262 1 c 0,24,25
 230 -35 230 -35 186 -18 c 0,26,27
 151 -5 151 -5 144 21 c 128,-1,28
 137 47 137 47 145 76.5 c 128,-1,29
 153 106 153 106 169 135.5 c 128,-1,30
 185 165 185 165 196 186 c 1,31,32
 179 191 179 191 162 194 c 128,-1,33
 145 197 145 197 129 203 c 0,34,35
 105 212 105 212 93 229 c 128,-1,36
 81 246 81 246 80.5 265 c 128,-1,37
 80 284 80 284 91.5 300 c 128,-1,38
 103 316 103 316 127 324 c 0,39,40
 139 328 139 328 160 331.5 c 128,-1,41
 181 335 181 335 203 340 c 128,-1,42
 225 345 225 345 242.5 351.5 c 128,-1,43
 260 358 260 358 265 368 c 0,44,45
 287 415 287 415 305.5 462 c 128,-1,46
 324 509 324 509 344 557 c 1,47,48
 316 557 316 557 288 556 c 128,-1,49
 260 555 260 555 232 557 c 0,50,51
 163 560 163 560 121.5 573 c 128,-1,52
 80 586 80 586 59.5 604 c 128,-1,53
 39 622 39 622 37 642.5 c 128,-1,54
 35 663 35 663 45.5 681 c 128,-1,55
 56 699 56 699 76 711 c 128,-1,56
 96 723 96 723 120 725 c 0,57,58
 205 732 205 732 289 737 c 128,-1,59
 373 742 373 742 459 740 c 0,60,61
 485 739 485 739 508.5 732 c 128,-1,62
 532 725 532 725 546 710.5 c 128,-1,63
 560 696 560 696 561 675 c 128,-1,64
 562 654 562 654 543 625 c 0,65,66
 530 605 530 605 511.5 571 c 128,-1,67
 493 537 493 537 475 500 c 128,-1,68
 457 463 457 463 442.5 428 c 128,-1,69
 428 393 428 393 424 371 c 1,0,1
EndSplineSet
Validated: 33
EndChar

StartChar: eight
Encoding: 56 56 31
Width: 586
GlyphClass: 1
Flags: W
LayerCount: 2
Fore
SplineSet
114 385 m 1,0,1
 103 409 103 409 91 432 c 128,-1,2
 79 455 79 455 73 481 c 0,3,4
 63 522 63 522 71 558 c 128,-1,5
 79 594 79 594 100 623 c 128,-1,6
 121 652 121 652 152 673.5 c 128,-1,7
 183 695 183 695 220 706 c 128,-1,8
 257 717 257 717 296.5 717 c 128,-1,9
 336 717 336 717 374 704 c 0,10,11
 423 687 423 687 455 653 c 128,-1,12
 487 619 487 619 499 577 c 128,-1,13
 511 535 511 535 503 490 c 128,-1,14
 495 445 495 445 465 406 c 2,15,-1
 453 391 l 1,16,17
 457 387 457 387 460 383 c 128,-1,18
 463 379 463 379 467 376 c 0,19,20
 499 348 499 348 518 312.5 c 128,-1,21
 537 277 537 277 541.5 238 c 128,-1,22
 546 199 546 199 537 159.5 c 128,-1,23
 528 120 528 120 505 85 c 0,24,25
 476 41 476 41 430 16.5 c 128,-1,26
 384 -8 384 -8 331.5 -15 c 128,-1,27
 279 -22 279 -22 225.5 -12 c 128,-1,28
 172 -2 172 -2 129 24.5 c 128,-1,29
 86 51 86 51 59 94 c 128,-1,30
 32 137 32 137 33 194 c 0,31,32
 34 248 34 248 53 297.5 c 128,-1,33
 72 347 72 347 114 385 c 1,0,1
264 128 m 0,34,35
 293 127 293 127 319.5 136 c 128,-1,36
 346 145 346 145 367 160 c 128,-1,37
 388 175 388 175 400.5 194.5 c 128,-1,38
 413 214 413 214 413.5 233 c 128,-1,39
 414 252 414 252 399.5 269.5 c 128,-1,40
 385 287 385 287 352 298 c 0,41,42
 308 313 308 313 274 307 c 128,-1,43
 240 301 240 301 217.5 282.5 c 128,-1,44
 195 264 195 264 185 238.5 c 128,-1,45
 175 213 175 213 180 189 c 128,-1,46
 185 165 185 165 205.5 147.5 c 128,-1,47
 226 130 226 130 264 128 c 0,34,35
233 455 m 0,48,49
 247 445 247 445 263.5 446 c 128,-1,50
 280 447 280 447 295 454.5 c 128,-1,51
 310 462 310 462 322 474.5 c 128,-1,52
 334 487 334 487 339.5 501 c 128,-1,53
 345 515 345 515 343.5 527.5 c 128,-1,54
 342 540 342 540 329 549 c 256,55,56
 316 558 316 558 296 559.5 c 128,-1,57
 276 561 276 561 256.5 556 c 128,-1,58
 237 551 237 551 221 541 c 128,-1,59
 205 531 205 531 198.5 517.5 c 128,-1,60
 192 504 192 504 199 488 c 128,-1,61
 206 472 206 472 233 455 c 0,48,49
EndSplineSet
Validated: 33
EndChar

StartChar: six
Encoding: 54 54 32
Width: 594
GlyphClass: 1
Flags: W
LayerCount: 2
Fore
SplineSet
254 485 m 1,0,1
 339 490 339 490 397.5 469 c 128,-1,2
 456 448 456 448 491.5 411 c 128,-1,3
 527 374 527 374 541 325.5 c 128,-1,4
 555 277 555 277 550 227.5 c 128,-1,5
 545 178 545 178 523 131.5 c 128,-1,6
 501 85 501 85 464.5 52 c 128,-1,7
 428 19 428 19 379 3.5 c 128,-1,8
 330 -12 330 -12 271 0 c 256,9,10
 212 12 212 12 164.5 42 c 128,-1,11
 117 72 117 72 85.5 115.5 c 128,-1,12
 54 159 54 159 40.5 213 c 128,-1,13
 27 267 27 267 35 327 c 0,14,15
 49 436 49 436 100.5 524.5 c 128,-1,16
 152 613 152 613 242 676 c 0,17,18
 264 691 264 691 287.5 704 c 128,-1,19
 311 717 311 717 336 724 c 128,-1,20
 361 731 361 731 386 729 c 128,-1,21
 411 727 411 727 436 713 c 0,22,23
 446 707 446 707 452.5 697 c 128,-1,24
 459 687 459 687 463 675 c 128,-1,25
 467 663 467 663 467.5 650 c 128,-1,26
 468 637 468 637 465 626 c 0,27,28
 460 608 460 608 448 599.5 c 128,-1,29
 436 591 436 591 419 585.5 c 128,-1,30
 402 580 402 580 381 575 c 128,-1,31
 360 570 360 570 338 560.5 c 128,-1,32
 316 551 316 551 294.5 533.5 c 128,-1,33
 273 516 273 516 254 485 c 1,0,1
307 160 m 0,34,35
 346 164 346 164 370 187 c 128,-1,36
 394 210 394 210 398.5 237 c 128,-1,37
 403 264 403 264 385.5 288 c 128,-1,38
 368 312 368 312 326 318 c 0,39,40
 303 321 303 321 282 309.5 c 128,-1,41
 261 298 261 298 246 280 c 128,-1,42
 231 262 231 262 224.5 240 c 128,-1,43
 218 218 218 218 223.5 199.5 c 128,-1,44
 229 181 229 181 249 169.5 c 128,-1,45
 269 158 269 158 307 160 c 0,34,35
EndSplineSet
Validated: 33
EndChar

StartChar: five
Encoding: 53 53 33
Width: 606
GlyphClass: 1
Flags: W
LayerCount: 2
Fore
SplineSet
171 537 m 1,0,-1
 180 439 l 1,1,-1
 221 452 l 2,2,3
 301 477 301 477 367 461.5 c 128,-1,4
 433 446 433 446 477.5 405.5 c 128,-1,5
 522 365 522 365 542.5 308 c 128,-1,6
 563 251 563 251 553 193 c 128,-1,7
 543 135 543 135 499.5 83.5 c 128,-1,8
 456 32 456 32 373 4 c 0,9,10
 352 -3 352 -3 319.5 -6.5 c 128,-1,11
 287 -10 287 -10 250.5 -9 c 128,-1,12
 214 -8 214 -8 178.5 -0.5 c 128,-1,13
 143 7 143 7 116 22.5 c 128,-1,14
 89 38 89 38 75.5 62 c 128,-1,15
 62 86 62 86 69 120 c 0,16,17
 77 156 77 156 95 170.5 c 128,-1,18
 113 185 113 185 137 187.5 c 128,-1,19
 161 190 161 190 189 185.5 c 128,-1,20
 217 181 217 181 246 179 c 128,-1,21
 275 177 275 177 301.5 182.5 c 128,-1,22
 328 188 328 188 350 211 c 0,23,24
 358 220 358 220 365 230.5 c 128,-1,25
 372 241 372 241 375 253 c 0,26,27
 381 281 381 281 371.5 299.5 c 128,-1,28
 362 318 362 318 333 324 c 256,29,30
 304 330 304 330 275 324.5 c 128,-1,31
 246 319 246 319 218.5 309.5 c 128,-1,32
 191 300 191 300 166 291 c 128,-1,33
 141 282 141 282 120 281.5 c 128,-1,34
 99 281 99 281 83 293.5 c 128,-1,35
 67 306 67 306 59 340 c 0,36,37
 51 371 51 371 49.5 404.5 c 128,-1,38
 48 438 48 438 48 472.5 c 128,-1,39
 48 507 48 507 48 541 c 128,-1,40
 48 575 48 575 42 607 c 0,41,42
 37 638 37 638 49.5 664.5 c 128,-1,43
 62 691 62 691 94 699 c 0,44,45
 108 703 108 703 138 704 c 128,-1,46
 168 705 168 705 205.5 704 c 128,-1,47
 243 703 243 703 284 700 c 128,-1,48
 325 697 325 697 361.5 692.5 c 128,-1,49
 398 688 398 688 426 681.5 c 128,-1,50
 454 675 454 675 465 667 c 0,51,52
 477 659 477 659 482.5 645 c 128,-1,53
 488 631 488 631 488 615.5 c 128,-1,54
 488 600 488 600 483 584.5 c 128,-1,55
 478 569 478 569 469 558 c 0,56,57
 448 532 448 532 409.5 523.5 c 128,-1,58
 371 515 371 515 327.5 516.5 c 128,-1,59
 284 518 284 518 242 525 c 128,-1,60
 200 532 200 532 171 537 c 1,0,-1
EndSplineSet
Validated: 33
EndChar

StartChar: four
Encoding: 52 52 34
Width: 645
GlyphClass: 1
Flags: W
LayerCount: 2
Fore
SplineSet
474 376 m 1,0,1
 537 376 537 376 566.5 358 c 128,-1,2
 596 340 596 340 601 317 c 128,-1,3
 606 294 606 294 591.5 272 c 128,-1,4
 577 250 577 250 553 242 c 0,5,6
 534 236 534 236 513.5 234.5 c 128,-1,7
 493 233 493 233 473 230 c 1,8,9
 471 192 471 192 470 153 c 128,-1,10
 469 114 469 114 465 76 c 0,11,12
 462 47 462 47 445 27.5 c 128,-1,13
 428 8 428 8 406.5 1.5 c 128,-1,14
 385 -5 385 -5 363.5 4 c 128,-1,15
 342 13 342 13 330 41 c 0,16,17
 312 83 312 83 312 130.5 c 128,-1,18
 312 178 312 178 312 223 c 1,19,20
 296 224 296 224 272.5 223 c 128,-1,21
 249 222 249 222 222 220 c 128,-1,22
 195 218 195 218 167 217.5 c 128,-1,23
 139 217 139 217 114.5 219.5 c 128,-1,24
 90 222 90 222 71 229.5 c 128,-1,25
 52 237 52 237 44 252 c 0,26,27
 32 274 32 274 35 295 c 128,-1,28
 38 316 38 316 52 336 c 0,29,30
 113 422 113 422 181 500 c 128,-1,31
 249 578 249 578 313 661 c 0,32,33
 340 696 340 696 366.5 713 c 128,-1,34
 393 730 393 730 415 729.5 c 128,-1,35
 437 729 437 729 452.5 711 c 128,-1,36
 468 693 468 693 473 659 c 0,37,38
 475 642 475 642 474.5 625.5 c 128,-1,39
 474 609 474 609 474 592 c 2,40,-1
 474 376 l 1,0,1
319 355 m 1,41,-1
 322 436 l 1,42,43
 301 418 301 418 281.5 398 c 128,-1,44
 262 378 262 378 253 349 c 1,45,-1
 319 355 l 1,41,-1
EndSplineSet
Validated: 33
EndChar

StartChar: three
Encoding: 51 51 35
Width: 545
GlyphClass: 1
Flags: W
LayerCount: 2
Fore
SplineSet
263 571 m 0,0,1
 240 574 240 574 203.5 570.5 c 128,-1,2
 167 567 167 567 131.5 567 c 128,-1,3
 96 567 96 567 70 577.5 c 128,-1,4
 44 588 44 588 43 620 c 0,5,6
 42 644 42 644 49.5 662 c 128,-1,7
 57 680 57 680 71 693 c 0,8,9
 84 706 84 706 107 713 c 128,-1,10
 130 720 130 720 158.5 723.5 c 128,-1,11
 187 727 187 727 219 726 c 128,-1,12
 251 725 251 725 281 721.5 c 128,-1,13
 311 718 311 718 337.5 712.5 c 128,-1,14
 364 707 364 707 382 701 c 0,15,16
 414 690 414 690 436 671.5 c 128,-1,17
 458 653 458 653 466.5 627 c 128,-1,18
 475 601 475 601 468.5 568 c 128,-1,19
 462 535 462 535 437 494 c 0,20,21
 426 476 426 476 413 460.5 c 128,-1,22
 400 445 400 445 387 429 c 1,23,-1
 421 403 l 2,24,25
 467 365 467 365 488 320 c 128,-1,26
 509 275 509 275 509 229.5 c 128,-1,27
 509 184 509 184 489.5 141 c 128,-1,28
 470 98 470 98 436.5 64.5 c 128,-1,29
 403 31 403 31 356.5 11 c 128,-1,30
 310 -9 310 -9 256 -9 c 0,31,32
 221 -9 221 -9 187.5 -6.5 c 128,-1,33
 154 -4 154 -4 120 1 c 0,34,35
 91 6 91 6 66 23 c 0,36,37
 40 41 40 41 32.5 68.5 c 128,-1,38
 25 96 25 96 32 122 c 128,-1,39
 39 148 39 148 59.5 167 c 128,-1,40
 80 186 80 186 112 187 c 0,41,42
 132 188 132 188 151.5 184 c 128,-1,43
 171 180 171 180 191 175 c 0,44,45
 220 169 220 169 248.5 169.5 c 128,-1,46
 277 170 277 170 303 185 c 0,47,48
 339 207 339 207 343.5 235.5 c 128,-1,49
 348 264 348 264 332 288.5 c 128,-1,50
 316 313 316 313 285 328.5 c 128,-1,51
 254 344 254 344 221 340 c 0,52,53
 190 337 190 337 166 347 c 128,-1,54
 142 357 142 357 134 390 c 0,55,56
 126 420 126 420 137 434.5 c 128,-1,57
 148 449 148 449 168.5 457 c 128,-1,58
 189 465 189 465 215 470 c 128,-1,59
 241 475 241 475 265 486 c 0,60,61
 286 496 286 496 297 509 c 128,-1,62
 308 522 308 522 308.5 535 c 128,-1,63
 309 548 309 548 298 558 c 128,-1,64
 287 568 287 568 263 571 c 0,0,1
EndSplineSet
Validated: 33
EndChar

StartChar: two
Encoding: 50 50 36
Width: 643
GlyphClass: 1
Flags: W
LayerCount: 2
Fore
SplineSet
415 168 m 1,0,1
 450 168 450 168 485 165 c 128,-1,2
 520 162 520 162 553 146 c 0,3,4
 577 135 577 135 587.5 115.5 c 128,-1,5
 598 96 598 96 596 70 c 0,6,7
 593 42 593 42 573.5 26.5 c 128,-1,8
 554 11 554 11 524 3.5 c 128,-1,9
 494 -4 494 -4 458 -4.5 c 128,-1,10
 422 -5 422 -5 386.5 -3 c 128,-1,11
 351 -1 351 -1 319.5 2 c 128,-1,12
 288 5 288 5 268 4 c 0,13,14
 255 4 255 4 242.5 1 c 128,-1,15
 230 -2 230 -2 217 -5 c 128,-1,16
 204 -8 204 -8 191.5 -10.5 c 128,-1,17
 179 -13 179 -13 167 -12 c 0,18,19
 144 -11 144 -11 126.5 0.5 c 128,-1,20
 109 12 109 12 100 29.5 c 128,-1,21
 91 47 91 47 91.5 67.5 c 128,-1,22
 92 88 92 88 105 107 c 0,23,24
 112 117 112 117 121 125 c 128,-1,25
 130 133 130 133 141 140 c 0,26,27
 181 166 181 166 220 200 c 128,-1,28
 259 234 259 234 292 274 c 128,-1,29
 325 314 325 314 349.5 358.5 c 128,-1,30
 374 403 374 403 385 450 c 0,31,32
 390 474 390 474 391 496 c 128,-1,33
 392 518 392 518 385.5 534.5 c 128,-1,34
 379 551 379 551 364.5 560 c 128,-1,35
 350 569 350 569 324 566 c 0,36,37
 293 563 293 563 269.5 546 c 128,-1,38
 246 529 246 529 231.5 505 c 128,-1,39
 217 481 217 481 212 452.5 c 128,-1,40
 207 424 207 424 213 396 c 0,41,42
 215 387 215 387 218.5 378.5 c 128,-1,43
 222 370 222 370 224 361 c 0,44,45
 229 339 229 339 220.5 317.5 c 128,-1,46
 212 296 212 296 192 283 c 0,47,48
 173 271 173 271 149 271.5 c 128,-1,49
 125 272 125 272 107 287 c 0,50,51
 66 322 66 322 51 368 c 128,-1,52
 36 414 36 414 41 462 c 128,-1,53
 46 510 46 510 69.5 557 c 128,-1,54
 93 604 93 604 130.5 641 c 128,-1,55
 168 678 168 678 217.5 701 c 128,-1,56
 267 724 267 724 324 726 c 0,57,58
 397 727 397 727 465 695 c 0,59,60
 521 668 521 668 544.5 628 c 128,-1,61
 568 588 568 588 569 540.5 c 128,-1,62
 570 493 570 493 553.5 442 c 128,-1,63
 537 391 537 391 512.5 341.5 c 128,-1,64
 488 292 488 292 461.5 247 c 128,-1,65
 435 202 435 202 415 168 c 1,0,1
EndSplineSet
Validated: 33
EndChar

StartChar: one
Encoding: 49 49 37
Width: 473
GlyphClass: 1
Flags: W
LayerCount: 2
Fore
SplineSet
246 431 m 1,0,1
 231 422 231 422 215.5 412.5 c 128,-1,2
 200 403 200 403 183.5 395 c 128,-1,3
 167 387 167 387 149.5 382 c 128,-1,4
 132 377 132 377 112 377 c 0,5,6
 91 377 91 377 75 385 c 128,-1,7
 59 393 59 393 50 405.5 c 128,-1,8
 41 418 41 418 40.5 433.5 c 128,-1,9
 40 449 40 449 50 464 c 0,10,11
 54 470 54 470 71 486.5 c 128,-1,12
 88 503 88 503 110.5 524 c 128,-1,13
 133 545 133 545 160 569 c 128,-1,14
 187 593 187 593 211.5 615 c 128,-1,15
 236 637 236 637 255.5 654.5 c 128,-1,16
 275 672 275 672 285 680 c 0,17,18
 307 700 307 700 331.5 707 c 128,-1,19
 356 714 356 714 387 703 c 0,20,21
 419 692 419 692 432 669 c 128,-1,22
 445 646 445 646 443 620 c 0,23,24
 441 588 441 588 436 557 c 128,-1,25
 431 526 431 526 427 495 c 0,26,27
 412 391 412 391 404.5 290 c 128,-1,28
 397 189 397 189 400 84 c 0,29,30
 400 52 400 52 384 24 c 0,31,32
 371 4 371 4 345 -6.5 c 128,-1,33
 319 -17 319 -17 291 -12 c 0,34,35
 262 -7 262 -7 242.5 11 c 128,-1,36
 223 29 223 29 219 53 c 0,37,38
 211 97 211 97 216.5 145 c 128,-1,39
 222 193 222 193 230.5 241.5 c 128,-1,40
 239 290 239 290 245.5 338 c 128,-1,41
 252 386 252 386 246 431 c 1,0,1
EndSplineSet
Validated: 33
EndChar

StartChar: zero
Encoding: 48 48 38
Width: 667
GlyphClass: 1
Flags: W
LayerCount: 2
Fore
SplineSet
445 23 m 0,0,1
 388 -11 388 -11 325 -15 c 128,-1,2
 262 -19 262 -19 206.5 11.5 c 128,-1,3
 151 42 151 42 109.5 108.5 c 128,-1,4
 68 175 68 175 53 281 c 0,5,6
 39 378 39 378 61 461.5 c 128,-1,7
 83 545 83 545 140 607 c 0,8,9
 179 649 179 649 225 675.5 c 128,-1,10
 271 702 271 702 319 712 c 128,-1,11
 367 722 367 722 413 715.5 c 128,-1,12
 459 709 459 709 498 685.5 c 128,-1,13
 537 662 537 662 565.5 621 c 128,-1,14
 594 580 594 580 607 522 c 0,15,16
 621 456 621 456 619.5 382.5 c 128,-1,17
 618 309 618 309 599 240.5 c 128,-1,18
 580 172 580 172 542 114.5 c 128,-1,19
 504 57 504 57 445 23 c 0,0,1
380 547 m 0,20,21
 337 545 337 545 305.5 525.5 c 128,-1,22
 274 506 274 506 254 474.5 c 128,-1,23
 234 443 234 443 225 403.5 c 128,-1,24
 216 364 216 364 218 324.5 c 128,-1,25
 220 285 220 285 232.5 247.5 c 128,-1,26
 245 210 245 210 268 183 c 0,27,28
 284 164 284 164 302 157.5 c 128,-1,29
 320 151 320 151 338 154 c 128,-1,30
 356 157 356 157 373 168 c 128,-1,31
 390 179 390 179 405 195 c 0,32,33
 442 234 442 234 453 278 c 128,-1,34
 464 322 464 322 467 369 c 0,35,36
 469 399 469 399 467.5 431.5 c 128,-1,37
 466 464 466 464 457 490 c 128,-1,38
 448 516 448 516 429.5 532 c 128,-1,39
 411 548 411 548 380 547 c 0,20,21
EndSplineSet
Validated: 33
EndChar

StartChar: slash
Encoding: 47 47 39
Width: 434
GlyphClass: 1
Flags: W
LayerCount: 2
Fore
SplineSet
245 752 m 0,0,1
 250 777 250 777 263 791.5 c 128,-1,2
 276 806 276 806 292 812 c 128,-1,3
 308 818 308 818 324.5 817.5 c 128,-1,4
 341 817 341 817 353 812 c 0,5,6
 374 804 374 804 382.5 784.5 c 128,-1,7
 391 765 391 765 391 723 c 0,8,9
 389 673 389 673 380 610 c 128,-1,10
 371 547 371 547 355 479 c 128,-1,11
 339 411 339 411 317 340.5 c 128,-1,12
 295 270 295 270 267 205.5 c 128,-1,13
 239 141 239 141 205.5 85 c 128,-1,14
 172 29 172 29 134 -11 c 0,15,16
 120 -26 120 -26 103 -28.5 c 128,-1,17
 86 -31 86 -31 71 -25 c 128,-1,18
 56 -19 56 -19 46 -5 c 128,-1,19
 36 9 36 9 36 27 c 0,20,21
 36 37 36 37 38.5 46 c 128,-1,22
 41 55 41 55 43 64 c 0,23,24
 54 103 54 103 67.5 142.5 c 128,-1,25
 81 182 81 182 95 220 c 0,26,27
 146 359 146 359 184 497.5 c 128,-1,28
 222 636 222 636 245 752 c 0,0,1
EndSplineSet
Validated: 33
EndChar

StartChar: period
Encoding: 46 46 40
Width: 286
GlyphClass: 1
Flags: W
LayerCount: 2
Fore
SplineSet
59 80 m 0,0,1
 61 115 61 115 74 136 c 128,-1,2
 87 157 87 157 105 165.5 c 128,-1,3
 123 174 123 174 143.5 172 c 128,-1,4
 164 170 164 170 181 159 c 128,-1,5
 198 148 198 148 208.5 129 c 128,-1,6
 219 110 219 110 217 86 c 0,7,8
 215 57 215 57 202 37 c 128,-1,9
 189 17 189 17 171 6.5 c 128,-1,10
 153 -4 153 -4 132.5 -5 c 128,-1,11
 112 -6 112 -6 95 3 c 128,-1,12
 78 12 78 12 67.5 31 c 128,-1,13
 57 50 57 50 59 80 c 0,0,1
EndSplineSet
Validated: 33
EndChar

StartChar: hyphen
Encoding: 45 45 41
Width: 587
GlyphClass: 1
Flags: W
LayerCount: 2
Fore
SplineSet
77 213 m 0,0,1
 52 223 52 223 42 244 c 128,-1,2
 32 265 32 265 37.5 286 c 128,-1,3
 43 307 43 307 65 323 c 128,-1,4
 87 339 87 339 127 340 c 0,5,6
 214 342 214 342 300.5 343.5 c 128,-1,7
 387 345 387 345 474 343 c 0,8,9
 506 343 506 343 522.5 327.5 c 128,-1,10
 539 312 539 312 541 292 c 128,-1,11
 543 272 543 272 529.5 253 c 128,-1,12
 516 234 516 234 488 227 c 0,13,14
 451 218 451 218 397 208.5 c 128,-1,15
 343 199 343 199 285 194.5 c 128,-1,16
 227 190 227 190 171.5 193 c 128,-1,17
 116 196 116 196 77 213 c 0,0,1
EndSplineSet
Validated: 33
EndChar

StartChar: comma
Encoding: 44 44 42
Width: 250
GlyphClass: 1
Flags: W
LayerCount: 2
Fore
SplineSet
200 98 m 0,0,1
 201 56 201 56 188 23.5 c 128,-1,2
 175 -9 175 -9 155 -30 c 128,-1,3
 135 -51 135 -51 113 -59.5 c 128,-1,4
 91 -68 91 -68 74 -63 c 128,-1,5
 57 -58 57 -58 49.5 -38 c 128,-1,6
 42 -18 42 -18 52 18 c 0,7,8
 57 36 57 36 57 62.5 c 128,-1,9
 57 89 57 89 61 116 c 128,-1,10
 65 143 65 143 76.5 164.5 c 128,-1,11
 88 186 88 186 115 193 c 0,12,13
 133 197 133 197 149 193 c 128,-1,14
 165 189 165 189 177 177 c 128,-1,15
 189 165 189 165 195.5 145 c 128,-1,16
 202 125 202 125 200 98 c 0,0,1
EndSplineSet
Validated: 33
EndChar

StartChar: plus
Encoding: 43 43 43
Width: 578
GlyphClass: 1
Flags: W
LayerCount: 2
Fore
SplineSet
199 271 m 1,0,1
 178 269 178 269 155.5 268 c 128,-1,2
 133 267 133 267 112 270 c 0,3,4
 82 274 82 274 66 290 c 128,-1,5
 50 306 50 306 49 325.5 c 128,-1,6
 48 345 48 345 62 363.5 c 128,-1,7
 76 382 76 382 105 391 c 0,8,9
 130 398 130 398 155 400 c 128,-1,10
 180 402 180 402 206 404 c 1,11,12
 208 422 208 422 210.5 450.5 c 128,-1,13
 213 479 213 479 220 505 c 128,-1,14
 227 531 227 531 241.5 549 c 128,-1,15
 256 567 256 567 283 566 c 0,16,17
 308 564 308 564 320.5 546 c 128,-1,18
 333 528 333 528 339 502.5 c 128,-1,19
 345 477 345 477 346 450 c 128,-1,20
 347 423 347 423 349 404 c 1,21,22
 362 403 362 403 382.5 401 c 128,-1,23
 403 399 403 399 424.5 396.5 c 128,-1,24
 446 394 446 394 465.5 390.5 c 128,-1,25
 485 387 485 387 496 383 c 0,26,27
 516 375 516 375 525 359.5 c 128,-1,28
 534 344 534 344 532 327.5 c 128,-1,29
 530 311 530 311 516.5 298.5 c 128,-1,30
 503 286 503 286 478 285 c 0,31,32
 443 283 443 283 409 283.5 c 128,-1,33
 375 284 375 284 340 284 c 1,34,35
 335 245 335 245 331 204 c 128,-1,36
 327 163 327 163 316 125 c 0,37,38
 309 100 309 100 294.5 84.5 c 128,-1,39
 280 69 280 69 252 72 c 0,40,41
 223 75 223 75 211.5 99 c 128,-1,42
 200 123 200 123 197 154.5 c 128,-1,43
 194 186 194 186 196.5 218.5 c 128,-1,44
 199 251 199 251 199 271 c 1,0,1
EndSplineSet
Validated: 33
EndChar

StartChar: asterisk
Encoding: 42 42 44
Width: 426
GlyphClass: 1
Flags: W
LayerCount: 2
Fore
SplineSet
215 513 m 1,0,1
 195 495 195 495 174.5 476.5 c 128,-1,2
 154 458 154 458 134 441 c 0,3,4
 119 429 119 429 105 430.5 c 128,-1,5
 91 432 91 432 82 442.5 c 128,-1,6
 73 453 73 453 71.5 469.5 c 128,-1,7
 70 486 70 486 81 502 c 0,8,9
 89 513 89 513 96.5 521.5 c 128,-1,10
 104 530 104 530 112 540 c 1,11,12
 86 550 86 550 74 564.5 c 128,-1,13
 62 579 62 579 61 592.5 c 128,-1,14
 60 606 60 606 70 617 c 128,-1,15
 80 628 80 628 98 632 c 0,16,17
 116 635 116 635 136.5 634.5 c 128,-1,18
 157 634 157 634 176 634 c 1,19,20
 177 654 177 654 176.5 672.5 c 128,-1,21
 176 691 176 691 176 710 c 0,22,23
 177 730 177 730 186.5 740.5 c 128,-1,24
 196 751 196 751 208 752.5 c 128,-1,25
 220 754 220 754 231.5 746 c 128,-1,26
 243 738 243 738 248 720 c 0,27,28
 253 701 253 701 254.5 679.5 c 128,-1,29
 256 658 256 658 257 639 c 1,30,31
 277 639 277 639 301.5 639.5 c 128,-1,32
 326 640 326 640 346 633 c 0,33,34
 361 628 361 628 369 616.5 c 128,-1,35
 377 605 377 605 377.5 592 c 128,-1,36
 378 579 378 579 371.5 567 c 128,-1,37
 365 555 365 555 351 548 c 0,38,39
 341 543 341 543 331 540.5 c 128,-1,40
 321 538 321 538 311 535 c 1,41,42
 322 521 322 521 334 505.5 c 128,-1,43
 346 490 346 490 355 474 c 0,44,45
 365 457 365 457 361 443 c 128,-1,46
 357 429 357 429 345.5 421.5 c 128,-1,47
 334 414 334 414 318 414.5 c 128,-1,48
 302 415 302 415 289 428 c 0,49,50
 268 447 268 447 250 468.5 c 128,-1,51
 232 490 232 490 215 513 c 1,0,1
EndSplineSet
Validated: 33
EndChar

StartChar: parenleft
Encoding: 40 40 45
Width: 621
GlyphClass: 1
Flags: W
LayerCount: 2
Fore
SplineSet
200 294 m 0,0,1
 199 246 199 246 205 194.5 c 128,-1,2
 211 143 211 143 233 102.5 c 128,-1,3
 255 62 255 62 296.5 39 c 128,-1,4
 338 16 338 16 408 24 c 0,5,6
 428 26 428 26 448 26.5 c 128,-1,7
 468 27 468 27 488 23 c 0,8,9
 518 17 518 17 536.5 2.5 c 128,-1,10
 555 -12 555 -12 562 -30.5 c 128,-1,11
 569 -49 569 -49 563 -70.5 c 128,-1,12
 557 -92 557 -92 537 -112 c 0,13,14
 514 -137 514 -137 482.5 -147 c 128,-1,15
 451 -157 451 -157 416 -158 c 0,16,17
 310 -159 310 -159 239.5 -124.5 c 128,-1,18
 169 -90 169 -90 127 -32 c 128,-1,19
 85 26 85 26 68 102 c 128,-1,20
 51 178 51 178 51 260 c 0,21,22
 52 342 52 342 58.5 425 c 128,-1,23
 65 508 65 508 85 589 c 0,24,25
 97 637 97 637 113.5 684 c 128,-1,26
 130 731 130 731 158 770.5 c 128,-1,27
 186 810 186 810 227.5 838.5 c 128,-1,28
 269 867 269 867 329 878 c 0,29,30
 361 884 361 884 396 886 c 128,-1,31
 431 888 431 888 464 883 c 128,-1,32
 497 878 497 878 527 865 c 128,-1,33
 557 852 557 852 578 828 c 0,34,35
 593 811 593 811 595.5 791.5 c 128,-1,36
 598 772 598 772 590.5 753.5 c 128,-1,37
 583 735 583 735 567 720.5 c 128,-1,38
 551 706 551 706 529 701 c 0,39,40
 499 694 499 694 471 694.5 c 128,-1,41
 443 695 443 695 417 696 c 128,-1,42
 391 697 391 697 367 696 c 128,-1,43
 343 695 343 695 321 686 c 128,-1,44
 299 677 299 677 280.5 656.5 c 128,-1,45
 262 636 262 636 247 597 c 0,46,47
 220 525 220 525 211 447 c 128,-1,48
 202 369 202 369 200 294 c 0,0,1
EndSplineSet
Validated: 33
EndChar

StartChar: parenright
Encoding: 41 41 46
Width: 621
GlyphClass: 1
Flags: W
LayerCount: 2
Fore
SplineSet
431 438 m 0,0,1
 432 486 432 486 426 537.5 c 128,-1,2
 420 589 420 589 398 629.5 c 128,-1,3
 376 670 376 670 334.5 693 c 128,-1,4
 293 716 293 716 223 708 c 0,5,6
 203 706 203 706 183 705.5 c 128,-1,7
 163 705 163 705 143 709 c 0,8,9
 113 715 113 715 94.5 729 c 128,-1,10
 76 743 76 743 69 762 c 128,-1,11
 62 781 62 781 68 802.5 c 128,-1,12
 74 824 74 824 94 844 c 0,13,14
 117 869 117 869 148.5 879 c 128,-1,15
 180 889 180 889 215 890 c 0,16,17
 321 891 321 891 391.5 856.5 c 128,-1,18
 462 822 462 822 504 764 c 128,-1,19
 546 706 546 706 563 630 c 128,-1,20
 580 554 580 554 580 472 c 0,21,22
 579 390 579 390 572.5 307 c 128,-1,23
 566 224 566 224 546 143 c 0,24,25
 534 95 534 95 517 48 c 128,-1,26
 500 1 500 1 472.5 -38.5 c 128,-1,27
 445 -78 445 -78 403.5 -107 c 128,-1,28
 362 -136 362 -136 302 -146 c 0,29,30
 270 -152 270 -152 235 -154 c 128,-1,31
 200 -156 200 -156 167 -151 c 128,-1,32
 134 -146 134 -146 104 -133 c 128,-1,33
 74 -120 74 -120 53 -96 c 0,34,35
 38 -80 38 -80 35.5 -60 c 128,-1,36
 33 -40 33 -40 40.5 -21.5 c 128,-1,37
 48 -3 48 -3 64 11.5 c 128,-1,38
 80 26 80 26 102 31 c 0,39,40
 131 38 131 38 159.5 37.5 c 128,-1,41
 188 37 188 37 214 36 c 128,-1,42
 240 35 240 35 264 36 c 128,-1,43
 288 37 288 37 310 46 c 128,-1,44
 332 55 332 55 350.5 76 c 128,-1,45
 369 97 369 97 384 135 c 0,46,47
 411 207 411 207 420 285 c 128,-1,48
 429 363 429 363 431 438 c 0,0,1
EndSplineSet
Validated: 33
EndChar

StartChar: quotesingle
Encoding: 39 39 47
Width: 267
GlyphClass: 1
Flags: W
LayerCount: 2
Fore
SplineSet
180 545 m 0,0,1
 170 514 170 514 148.5 503 c 128,-1,2
 127 492 127 492 106 496 c 128,-1,3
 85 500 85 500 72 516.5 c 128,-1,4
 59 533 59 533 67 557 c 0,5,6
 74 578 74 578 78 597 c 128,-1,7
 82 616 82 616 84 634.5 c 128,-1,8
 86 653 86 653 86.5 672 c 128,-1,9
 87 691 87 691 87 713 c 0,10,11
 87 752 87 752 107.5 765 c 128,-1,12
 128 778 128 778 152 776 c 0,13,14
 175 773 175 773 187.5 759 c 128,-1,15
 200 745 200 745 204.5 724 c 128,-1,16
 209 703 209 703 207.5 678 c 128,-1,17
 206 653 206 653 201.5 628 c 128,-1,18
 197 603 197 603 190.5 581 c 128,-1,19
 184 559 184 559 180 545 c 0,0,1
EndSplineSet
Validated: 33
EndChar

StartChar: ampersand
Encoding: 38 38 48
Width: 798
GlyphClass: 1
Flags: W
LayerCount: 2
Fore
SplineSet
487 58 m 1,0,1
 453 28 453 28 412 7 c 128,-1,2
 371 -14 371 -14 324 -22 c 0,3,4
 290 -28 290 -28 252.5 -23.5 c 128,-1,5
 215 -19 215 -19 180 -6 c 128,-1,6
 145 7 145 7 115 28 c 128,-1,7
 85 49 85 49 66 76 c 0,8,9
 38 115 38 115 34 155.5 c 128,-1,10
 30 196 30 196 41.5 236 c 128,-1,11
 53 276 53 276 76 313.5 c 128,-1,12
 99 351 99 351 125 384 c 0,13,14
 137 399 137 399 137.5 423 c 128,-1,15
 138 447 138 447 135.5 475.5 c 128,-1,16
 133 504 133 504 132.5 534.5 c 128,-1,17
 132 565 132 565 142 593 c 0,18,19
 166 660 166 660 217 706 c 128,-1,20
 268 752 268 752 342 771 c 0,21,22
 382 782 382 782 424.5 777.5 c 128,-1,23
 467 773 467 773 505 757 c 128,-1,24
 543 741 543 741 572.5 716 c 128,-1,25
 602 691 602 691 616 660.5 c 128,-1,26
 630 630 630 630 625 595.5 c 128,-1,27
 620 561 620 561 588 527 c 0,28,29
 567 502 567 502 538 484.5 c 128,-1,30
 509 467 509 467 486 443 c 1,31,32
 534 451 534 451 582.5 458.5 c 128,-1,33
 631 466 631 466 680 463 c 0,34,35
 708 461 708 461 724.5 446 c 128,-1,36
 741 431 741 431 743.5 412 c 128,-1,37
 746 393 746 393 734 375 c 128,-1,38
 722 357 722 357 694 348 c 0,39,40
 680 344 680 344 666 342.5 c 128,-1,41
 652 341 652 341 638 339 c 1,42,43
 627 298 627 298 615 261 c 128,-1,44
 603 224 603 224 588 184 c 1,45,46
 603 175 603 175 623 163 c 128,-1,47
 643 151 643 151 663.5 137.5 c 128,-1,48
 684 124 684 124 702 111 c 128,-1,49
 720 98 720 98 731 86 c 0,50,51
 743 72 743 72 747.5 56.5 c 128,-1,52
 752 41 752 41 744 25 c 0,53,54
 734 4 734 4 715.5 -3.5 c 128,-1,55
 697 -11 697 -11 673 -9.5 c 128,-1,56
 649 -8 649 -8 622 0.5 c 128,-1,57
 595 9 595 9 570 19.5 c 128,-1,58
 545 30 545 30 523 41 c 128,-1,59
 501 52 501 52 487 58 c 1,0,1
282 517 m 1,60,61
 311 528 311 528 338 540 c 128,-1,62
 365 552 365 552 391 566 c 0,63,64
 444 593 444 593 454 612.5 c 128,-1,65
 464 632 464 632 448.5 642 c 128,-1,66
 433 652 433 652 401.5 650.5 c 128,-1,67
 370 649 370 649 340 634.5 c 128,-1,68
 310 620 310 620 291 591 c 128,-1,69
 272 562 272 562 282 517 c 1,60,61
354 129 m 1,70,-1
 221 250 l 1,71,72
 214 232 214 232 206 215 c 128,-1,73
 198 198 198 198 193 179 c 0,74,75
 185 151 185 151 202.5 135.5 c 128,-1,76
 220 120 220 120 247.5 114.5 c 128,-1,77
 275 109 275 109 305.5 113 c 128,-1,78
 336 117 336 117 354 129 c 1,70,-1
345 374 m 1,79,80
 369 334 369 334 403.5 305 c 128,-1,81
 438 276 438 276 478 251 c 1,82,-1
 502 327 l 1,83,84
 478 334 478 334 462 339.5 c 128,-1,85
 446 345 446 345 437.5 353 c 128,-1,86
 429 361 429 361 426 374.5 c 128,-1,87
 423 388 423 388 425 412 c 1,88,-1
 345 374 l 1,79,80
EndSplineSet
Validated: 33
EndChar

StartChar: percent
Encoding: 37 37 49
Width: 880
GlyphClass: 1
Flags: W
LayerCount: 2
Fore
SplineSet
693 641 m 0,0,1
 638 572 638 572 593 502.5 c 128,-1,2
 548 433 548 433 503 357 c 0,3,4
 456 276 456 276 412.5 193.5 c 128,-1,5
 369 111 369 111 324 28 c 0,6,7
 318 17 318 17 310.5 4.5 c 128,-1,8
 303 -8 303 -8 293.5 -18 c 128,-1,9
 284 -28 284 -28 271.5 -32 c 128,-1,10
 259 -36 259 -36 243 -30 c 0,11,12
 213 -17 213 -17 213 13 c 0,13,14
 213 35 213 35 225.5 76.5 c 128,-1,15
 238 118 238 118 259.5 171 c 128,-1,16
 281 224 281 224 309.5 285 c 128,-1,17
 338 346 338 346 369.5 407 c 128,-1,18
 401 468 401 468 434 526 c 128,-1,19
 467 584 467 584 497.5 630.5 c 128,-1,20
 528 677 528 677 554.5 708.5 c 128,-1,21
 581 740 581 740 599 749 c 0,22,23
 634 765 634 765 659 758 c 128,-1,24
 684 751 684 751 697 732 c 128,-1,25
 710 713 710 713 709.5 687.5 c 128,-1,26
 709 662 709 662 693 641 c 0,0,1
833 178 m 0,27,28
 833 117 833 117 807.5 77 c 128,-1,29
 782 37 782 37 744.5 17 c 128,-1,30
 707 -3 707 -3 663 -3.5 c 128,-1,31
 619 -4 619 -4 582 14.5 c 128,-1,32
 545 33 545 33 520.5 70 c 128,-1,33
 496 107 496 107 497 162 c 0,34,35
 498 190 498 190 503 208 c 128,-1,36
 508 226 508 226 517.5 240 c 128,-1,37
 527 254 527 254 541 267 c 128,-1,38
 555 280 555 280 573 298 c 0,39,40
 609 334 609 334 654 337 c 128,-1,41
 699 340 699 340 739 319.5 c 128,-1,42
 779 299 779 299 806 261 c 128,-1,43
 833 223 833 223 833 178 c 0,27,28
722 160 m 0,44,45
 722 185 722 185 706.5 197.5 c 128,-1,46
 691 210 691 210 672.5 210.5 c 128,-1,47
 654 211 654 211 638 199 c 128,-1,48
 622 187 622 187 621 162 c 0,49,50
 621 134 621 134 636.5 120.5 c 128,-1,51
 652 107 652 107 670.5 107.5 c 128,-1,52
 689 108 689 108 705 121 c 128,-1,53
 721 134 721 134 722 160 c 0,44,45
373 550 m 0,54,55
 372 493 372 493 346 458.5 c 128,-1,56
 320 424 320 424 281.5 411 c 128,-1,57
 243 398 243 398 199.5 404.5 c 128,-1,58
 156 411 156 411 119.5 435.5 c 128,-1,59
 83 460 83 460 61.5 501.5 c 128,-1,60
 40 543 40 543 46 600 c 0,61,62
 51 653 51 653 77.5 685.5 c 128,-1,63
 104 718 104 718 140.5 731 c 128,-1,64
 177 744 177 744 218 738 c 128,-1,65
 259 732 259 732 293.5 709 c 128,-1,66
 328 686 328 686 350.5 645.5 c 128,-1,67
 373 605 373 605 373 550 c 0,54,55
178 617 m 1,68,69
 166 582 166 582 176 557 c 128,-1,70
 186 532 186 532 203 520 c 128,-1,71
 220 508 220 508 238.5 510.5 c 128,-1,72
 257 513 257 513 262 534 c 0,73,74
 267 552 267 552 261.5 569 c 128,-1,75
 256 586 256 586 244 598.5 c 128,-1,76
 232 611 232 611 214.5 616.5 c 128,-1,77
 197 622 197 622 178 617 c 1,68,69
EndSplineSet
Validated: 33
EndChar

StartChar: numbersign
Encoding: 35 35 50
Width: 929
GlyphClass: 1
Flags: W
LayerCount: 2
Fore
SplineSet
271 588 m 1,0,1
 285 629 285 629 298.5 671 c 128,-1,2
 312 713 312 713 332 751 c 0,3,4
 339 764 339 764 349 774.5 c 128,-1,5
 359 785 359 785 371 791.5 c 128,-1,6
 383 798 383 798 397 799.5 c 128,-1,7
 411 801 411 801 426 796 c 0,8,9
 453 786 453 786 462.5 764 c 128,-1,10
 472 742 472 742 472 715.5 c 128,-1,11
 472 689 472 689 467 662 c 128,-1,12
 462 635 462 635 459 614 c 1,13,-1
 564 614 l 1,14,15
 577 651 577 651 588 689.5 c 128,-1,16
 599 728 599 728 618 762 c 0,17,18
 629 782 629 782 647 792 c 128,-1,19
 665 802 665 802 688 798 c 0,20,21
 719 792 719 792 732 769 c 128,-1,22
 745 746 745 746 747 716.5 c 128,-1,23
 749 687 749 687 744.5 656 c 128,-1,24
 740 625 740 625 737 603 c 1,25,26
 750 600 750 600 762.5 598 c 128,-1,27
 775 596 775 596 787 592 c 0,28,29
 811 585 811 585 822.5 570 c 128,-1,30
 834 555 834 555 833.5 539.5 c 128,-1,31
 833 524 833 524 820.5 510.5 c 128,-1,32
 808 497 808 497 783 493 c 0,33,34
 767 490 767 490 750.5 489.5 c 128,-1,35
 734 489 734 489 717 487 c 1,36,-1
 697 380 l 1,37,38
 716 378 716 378 737 376.5 c 128,-1,39
 758 375 758 375 779 372 c 128,-1,40
 800 369 800 369 820 364 c 128,-1,41
 840 359 840 359 858 350 c 0,42,43
 875 342 875 342 881.5 327 c 128,-1,44
 888 312 888 312 884 298 c 128,-1,45
 880 284 880 284 865 273.5 c 128,-1,46
 850 263 850 263 824 264 c 0,47,48
 788 265 788 265 751.5 265 c 128,-1,49
 715 265 715 265 679 265 c 1,50,51
 674 244 674 244 666.5 208 c 128,-1,52
 659 172 659 172 649.5 135 c 128,-1,53
 640 98 640 98 628.5 66 c 128,-1,54
 617 34 617 34 604 20 c 0,55,56
 590 5 590 5 572 0.5 c 128,-1,57
 554 -4 554 -4 537.5 1 c 128,-1,58
 521 6 521 6 508 19.5 c 128,-1,59
 495 33 495 33 490 53 c 0,60,61
 486 68 486 68 485.5 92 c 128,-1,62
 485 116 485 116 486.5 142.5 c 128,-1,63
 488 169 488 169 490 194 c 128,-1,64
 492 219 492 219 493 236 c 1,65,-1
 489 248 l 1,66,67
 470 246 470 246 451 245 c 128,-1,68
 432 244 432 244 413 242 c 0,69,70
 402 240 402 240 393 217 c 128,-1,71
 384 194 384 194 376 164 c 128,-1,72
 368 134 368 134 361.5 105 c 128,-1,73
 355 76 355 76 349 64 c 0,74,75
 336 37 336 37 312.5 26 c 128,-1,76
 289 15 289 15 266 19 c 128,-1,77
 243 23 243 23 225 41 c 128,-1,78
 207 59 207 59 205 89 c 0,79,80
 203 124 203 124 204 158.5 c 128,-1,81
 205 193 205 193 205 228 c 1,82,83
 187 228 187 228 157 227 c 128,-1,84
 127 226 127 226 98.5 230.5 c 128,-1,85
 70 235 70 235 49.5 247.5 c 128,-1,86
 29 260 29 260 30 288 c 256,87,88
 31 316 31 316 53.5 329.5 c 128,-1,89
 76 343 76 343 106.5 348.5 c 128,-1,90
 137 354 137 354 168.5 353.5 c 128,-1,91
 200 353 200 353 220 353 c 1,92,-1
 241 459 l 1,93,94
 223 460 223 460 195.5 461.5 c 128,-1,95
 168 463 168 463 142.5 470.5 c 128,-1,96
 117 478 117 478 100 493 c 128,-1,97
 83 508 83 508 86 535 c 0,98,99
 90 572 90 572 128 581 c 0,100,101
 162 589 162 589 199 588.5 c 128,-1,102
 236 588 236 588 271 588 c 1,0,1
511 375 m 1,103,-1
 532 488 l 1,104,-1
 433 476 l 1,105,-1
 418 371 l 1,106,107
 441 372 441 372 464.5 372.5 c 128,-1,108
 488 373 488 373 511 375 c 1,103,-1
EndSplineSet
Validated: 33
EndChar

StartChar: quotedbl
Encoding: 34 34 51
Width: 459
GlyphClass: 1
Flags: W
LayerCount: 2
Fore
SplineSet
180 545 m 0,0,1
 170 514 170 514 148.5 503 c 128,-1,2
 127 492 127 492 106 496 c 128,-1,3
 85 500 85 500 72 516.5 c 128,-1,4
 59 533 59 533 67 557 c 0,5,6
 74 578 74 578 78 597 c 128,-1,7
 82 616 82 616 84 634.5 c 128,-1,8
 86 653 86 653 86.5 672 c 128,-1,9
 87 691 87 691 87 713 c 0,10,11
 87 752 87 752 107.5 765 c 128,-1,12
 128 778 128 778 152 776 c 0,13,14
 175 773 175 773 187.5 759 c 128,-1,15
 200 745 200 745 204.5 724 c 128,-1,16
 209 703 209 703 207.5 678 c 128,-1,17
 206 653 206 653 201.5 628 c 128,-1,18
 197 603 197 603 190.5 581 c 128,-1,19
 184 559 184 559 180 545 c 0,0,1
352 545 m 0,20,21
 342 514 342 514 320.5 503 c 128,-1,22
 299 492 299 492 278 496 c 128,-1,23
 257 500 257 500 244 516.5 c 128,-1,24
 231 533 231 533 239 557 c 0,25,26
 246 578 246 578 250 597 c 128,-1,27
 254 616 254 616 256 634.5 c 128,-1,28
 258 653 258 653 258.5 672 c 128,-1,29
 259 691 259 691 259 713 c 0,30,31
 259 752 259 752 279.5 765 c 128,-1,32
 300 778 300 778 324 776 c 0,33,34
 347 773 347 773 359.5 759 c 128,-1,35
 372 745 372 745 376.5 724 c 128,-1,36
 381 703 381 703 379.5 678 c 128,-1,37
 378 653 378 653 373.5 628 c 128,-1,38
 369 603 369 603 362.5 581 c 128,-1,39
 356 559 356 559 352 545 c 0,20,21
EndSplineSet
Validated: 33
EndChar

StartChar: exclam
Encoding: 33 33 52
Width: 301
GlyphClass: 1
Flags: W
LayerCount: 2
Fore
SplineSet
179 779 m 0,0,1
 208 775 208 775 224.5 759 c 128,-1,2
 241 743 241 743 247.5 718.5 c 128,-1,3
 254 694 254 694 253.5 664 c 128,-1,4
 253 634 253 634 249 603 c 128,-1,5
 245 572 245 572 239.5 543 c 128,-1,6
 234 514 234 514 231 492 c 0,7,8
 228 468 228 468 224.5 440.5 c 128,-1,9
 221 413 221 413 218.5 384 c 128,-1,10
 216 355 216 355 214.5 327 c 128,-1,11
 213 299 213 299 215 275 c 0,12,13
 217 250 217 250 201.5 234.5 c 128,-1,14
 186 219 186 219 164 215.5 c 128,-1,15
 142 212 142 212 119 221 c 128,-1,16
 96 230 96 230 83 254 c 0,17,18
 73 273 73 273 64.5 320.5 c 128,-1,19
 56 368 56 368 52.5 428 c 128,-1,20
 49 488 49 488 52 552 c 128,-1,21
 55 616 55 616 69 668 c 128,-1,22
 83 720 83 720 109.5 751.5 c 128,-1,23
 136 783 136 783 179 779 c 0,0,1
68 78 m 0,24,25
 67 115 67 115 88.5 134 c 128,-1,26
 110 153 110 153 136.5 153 c 128,-1,27
 163 153 163 153 186 134.5 c 128,-1,28
 209 116 209 116 211 80 c 0,29,30
 212 54 212 54 202.5 36 c 128,-1,31
 193 18 193 18 177 8.5 c 128,-1,32
 161 -1 161 -1 142.5 -2 c 128,-1,33
 124 -3 124 -3 108 5.5 c 128,-1,34
 92 14 92 14 80.5 32 c 128,-1,35
 69 50 69 50 68 78 c 0,24,25
EndSplineSet
Validated: 33
EndChar

StartChar: asciitilde
Encoding: 126 126 53
Width: 682
GlyphClass: 1
Flags: W
LayerCount: 2
Fore
SplineSet
494 371 m 0,0,1
 500 387 500 387 509.5 402 c 128,-1,2
 519 417 519 417 532.5 427 c 128,-1,3
 546 437 546 437 564.5 439.5 c 128,-1,4
 583 442 583 442 607 434 c 0,5,6
 628 428 628 428 633.5 409.5 c 128,-1,7
 639 391 639 391 637 369 c 128,-1,8
 635 347 635 347 629 325.5 c 128,-1,9
 623 304 623 304 619 291 c 0,10,11
 606 249 606 249 577.5 218.5 c 128,-1,12
 549 188 549 188 512.5 175.5 c 128,-1,13
 476 163 476 163 435 171.5 c 128,-1,14
 394 180 394 180 356 215 c 0,15,16
 324 244 324 244 305.5 286.5 c 128,-1,17
 287 329 287 329 273 364 c 1,18,19
 257 342 257 342 249 322.5 c 128,-1,20
 241 303 241 303 235 284.5 c 128,-1,21
 229 266 229 266 223.5 247 c 128,-1,22
 218 228 218 228 207 207 c 0,23,24
 195 181 195 181 168.5 171 c 128,-1,25
 142 161 142 161 115.5 167.5 c 128,-1,26
 89 174 89 174 69 197.5 c 128,-1,27
 49 221 49 221 49 264 c 0,28,29
 49 298 49 298 61 333.5 c 128,-1,30
 73 369 73 369 94 400.5 c 128,-1,31
 115 432 115 432 143 457.5 c 128,-1,32
 171 483 171 483 202 497 c 128,-1,33
 233 511 233 511 266 512 c 128,-1,34
 299 513 299 513 330 496 c 0,35,36
 368 474 368 474 392 436.5 c 128,-1,37
 416 399 416 399 432 363 c 0,38,39
 447 330 447 330 454 316 c 128,-1,40
 461 302 461 302 466 304 c 128,-1,41
 471 306 471 306 476.5 323.5 c 128,-1,42
 482 341 482 341 494 371 c 0,0,1
EndSplineSet
Validated: 33
EndChar

StartChar: braceright
Encoding: 125 125 54
Width: 536
GlyphClass: 1
Flags: W
LayerCount: 2
Fore
SplineSet
285 367 m 1,0,1
 240 395 240 395 227 437.5 c 128,-1,2
 214 480 214 480 218 528 c 128,-1,3
 222 576 222 576 236 624.5 c 128,-1,4
 250 673 250 673 259 712 c 0,5,6
 264 732 264 732 263 744.5 c 128,-1,7
 262 757 262 757 254.5 763.5 c 128,-1,8
 247 770 247 770 232 772.5 c 128,-1,9
 217 775 217 775 194 776 c 0,10,11
 179 777 179 777 164.5 775.5 c 128,-1,12
 150 774 150 774 136 775 c 0,13,14
 105 776 105 776 87 788.5 c 128,-1,15
 69 801 69 801 63 819 c 128,-1,16
 57 837 57 837 64 857.5 c 128,-1,17
 71 878 71 878 89 895.5 c 128,-1,18
 107 913 107 913 137 924 c 128,-1,19
 167 935 167 935 208 934 c 0,20,21
 228 933 228 933 248.5 929.5 c 128,-1,22
 269 926 269 926 289 921 c 0,23,24
 345 904 345 904 374 876 c 128,-1,25
 403 848 403 848 413 812.5 c 128,-1,26
 423 777 423 777 418.5 736 c 128,-1,27
 414 695 414 695 404 653 c 128,-1,28
 394 611 394 611 382 570 c 128,-1,29
 370 529 370 529 365 493 c 0,30,31
 362 474 362 474 369.5 465 c 128,-1,32
 377 456 377 456 390 451.5 c 128,-1,33
 403 447 403 447 419.5 445 c 128,-1,34
 436 443 436 443 451.5 438 c 128,-1,35
 467 433 467 433 479.5 422.5 c 128,-1,36
 492 412 492 412 497 391 c 0,37,38
 503 366 503 366 489 349 c 128,-1,39
 475 332 475 332 453 318.5 c 128,-1,40
 431 305 431 305 406 293.5 c 128,-1,41
 381 282 381 282 365 269 c 0,42,43
 338 247 338 247 351 216 c 0,44,45
 358 199 358 199 366.5 183.5 c 128,-1,46
 375 168 375 168 383 153 c 0,47,48
 410 100 410 100 407.5 48.5 c 128,-1,49
 405 -3 405 -3 379 -46.5 c 128,-1,50
 353 -90 353 -90 306 -122.5 c 128,-1,51
 259 -155 259 -155 196 -171 c 0,52,53
 156 -181 156 -181 124 -176.5 c 128,-1,54
 92 -172 92 -172 72 -157 c 128,-1,55
 52 -142 52 -142 45.5 -119.5 c 128,-1,56
 39 -97 39 -97 50 -70 c 0,57,58
 58 -47 58 -47 78.5 -38.5 c 128,-1,59
 99 -30 99 -30 125 -30 c 0,60,61
 164 -30 164 -30 193 -17 c 128,-1,62
 222 -4 222 -4 238.5 18 c 128,-1,63
 255 40 255 40 257.5 69 c 128,-1,64
 260 98 260 98 247 128 c 0,65,66
 229 170 229 170 219.5 199.5 c 128,-1,67
 210 229 210 229 213 254.5 c 128,-1,68
 216 280 216 280 233 306 c 128,-1,69
 250 332 250 332 285 367 c 1,0,1
EndSplineSet
Validated: 33
EndChar

StartChar: bar
Encoding: 124 124 55
Width: 286
GlyphClass: 1
Flags: W
LayerCount: 2
Fore
SplineSet
40 -90 m 0,0,1
 47 44 47 44 51 147.5 c 128,-1,2
 55 251 55 251 57.5 330.5 c 128,-1,3
 60 410 60 410 60.5 469.5 c 128,-1,4
 61 529 61 529 61 575.5 c 128,-1,5
 61 622 61 622 61 659.5 c 128,-1,6
 61 697 61 697 62 732 c 0,7,8
 63 770 63 770 79.5 794 c 128,-1,9
 96 818 96 818 117.5 825.5 c 128,-1,10
 139 833 139 833 161.5 822.5 c 128,-1,11
 184 812 184 812 197 781 c 0,12,13
 205 761 205 761 210 714.5 c 128,-1,14
 215 668 215 668 218 606.5 c 128,-1,15
 221 545 221 545 222 476 c 128,-1,16
 223 407 223 407 223.5 343 c 128,-1,17
 224 279 224 279 223.5 227 c 128,-1,18
 223 175 223 175 223 147 c 0,19,20
 222 79 222 79 214 11 c 128,-1,21
 206 -57 206 -57 197 -124 c 0,22,23
 190 -177 190 -177 168.5 -204 c 128,-1,24
 147 -231 147 -231 122.5 -236 c 128,-1,25
 98 -241 98 -241 76.5 -226 c 128,-1,26
 55 -211 55 -211 48 -180 c 0,27,28
 44 -163 44 -163 42.5 -140 c 128,-1,29
 41 -117 41 -117 40 -90 c 0,0,1
EndSplineSet
Validated: 33
EndChar

StartChar: braceleft
Encoding: 123 123 56
Width: 536
GlyphClass: 1
Flags: W
LayerCount: 2
Fore
SplineSet
262 373 m 1,0,1
 307 345 307 345 320 302.5 c 128,-1,2
 333 260 333 260 329 212 c 128,-1,3
 325 164 325 164 311 115.5 c 128,-1,4
 297 67 297 67 288 28 c 0,5,6
 283 8 283 8 284 -4.5 c 128,-1,7
 285 -17 285 -17 292.5 -23.5 c 128,-1,8
 300 -30 300 -30 315 -32.5 c 128,-1,9
 330 -35 330 -35 353 -36 c 0,10,11
 368 -37 368 -37 382.5 -35.5 c 128,-1,12
 397 -34 397 -34 411 -35 c 0,13,14
 442 -36 442 -36 460 -48.5 c 128,-1,15
 478 -61 478 -61 484 -79 c 128,-1,16
 490 -97 490 -97 483 -117.5 c 128,-1,17
 476 -138 476 -138 458 -155.5 c 128,-1,18
 440 -173 440 -173 410 -184 c 128,-1,19
 380 -195 380 -195 339 -194 c 0,20,21
 319 -193 319 -193 298.5 -189.5 c 128,-1,22
 278 -186 278 -186 258 -181 c 0,23,24
 202 -165 202 -165 173 -136.5 c 128,-1,25
 144 -108 144 -108 134 -72.5 c 128,-1,26
 124 -37 124 -37 128.5 4 c 128,-1,27
 133 45 133 45 143 87 c 128,-1,28
 153 129 153 129 165 170 c 128,-1,29
 177 211 177 211 182 247 c 0,30,31
 185 266 185 266 177.5 275 c 128,-1,32
 170 284 170 284 157 288.5 c 128,-1,33
 144 293 144 293 127.5 295 c 128,-1,34
 111 297 111 297 95.5 302 c 128,-1,35
 80 307 80 307 67.5 317.5 c 128,-1,36
 55 328 55 328 50 349 c 0,37,38
 44 374 44 374 58 391 c 128,-1,39
 72 408 72 408 94 421.5 c 128,-1,40
 116 435 116 435 140.5 446.5 c 128,-1,41
 165 458 165 458 182 471 c 0,42,43
 209 493 209 493 196 524 c 0,44,45
 189 541 189 541 180.5 556.5 c 128,-1,46
 172 572 172 572 164 587 c 0,47,48
 137 640 137 640 139.5 691.5 c 128,-1,49
 142 743 142 743 168 786.5 c 128,-1,50
 194 830 194 830 241 862.5 c 128,-1,51
 288 895 288 895 351 911 c 0,52,53
 391 921 391 921 423 916.5 c 128,-1,54
 455 912 455 912 475 897 c 128,-1,55
 495 882 495 882 501 859.5 c 128,-1,56
 507 837 507 837 497 810 c 0,57,58
 489 787 489 787 468.5 778.5 c 128,-1,59
 448 770 448 770 422 770 c 0,60,61
 383 770 383 770 354 757 c 128,-1,62
 325 744 325 744 308.5 722 c 128,-1,63
 292 700 292 700 289 671 c 128,-1,64
 286 642 286 642 300 612 c 0,65,66
 318 570 318 570 327.5 540.5 c 128,-1,67
 337 511 337 511 334 485.5 c 128,-1,68
 331 460 331 460 314 434 c 128,-1,69
 297 408 297 408 262 373 c 1,0,1
EndSplineSet
Validated: 33
EndChar

StartChar: z
Encoding: 122 122 57
Width: 594
GlyphClass: 1
Flags: W
LayerCount: 2
Fore
SplineSet
294 444 m 1,0,1
 265 444 265 444 228 442 c 128,-1,2
 191 440 191 440 162 442 c 0,3,4
 141 443 141 443 120 446 c 128,-1,5
 99 449 99 449 82.5 458.5 c 128,-1,6
 66 468 66 468 57 485.5 c 128,-1,7
 48 503 48 503 52 533 c 0,8,9
 56 565 56 565 78.5 579.5 c 128,-1,10
 101 594 101 594 130 594 c 0,11,12
 164 594 164 594 213.5 594.5 c 128,-1,13
 263 595 263 595 315.5 595 c 128,-1,14
 368 595 368 595 417 593.5 c 128,-1,15
 466 592 466 592 498 589 c 0,16,17
 518 587 518 587 533 576 c 128,-1,18
 548 565 548 565 553 545 c 0,19,20
 558 524 558 524 551.5 508 c 128,-1,21
 545 492 545 492 530 478 c 0,22,23
 459 412 459 412 400.5 336 c 128,-1,24
 342 260 342 260 284 183 c 1,25,26
 331 183 331 183 378.5 181.5 c 128,-1,27
 426 180 426 180 473 175 c 0,28,29
 487 173 487 173 501 167 c 128,-1,30
 515 161 515 161 526 151.5 c 128,-1,31
 537 142 537 142 543.5 128.5 c 128,-1,32
 550 115 550 115 549 100 c 0,33,34
 548 66 548 66 533.5 46 c 128,-1,35
 519 26 519 26 498 16 c 128,-1,36
 477 6 477 6 454 4.5 c 128,-1,37
 431 3 431 3 412 5 c 0,38,39
 399 6 399 6 374 7 c 128,-1,40
 349 8 349 8 319 7.5 c 128,-1,41
 289 7 289 7 256.5 6.5 c 128,-1,42
 224 6 224 6 195.5 4.5 c 128,-1,43
 167 3 167 3 145 0.5 c 128,-1,44
 123 -2 123 -2 115 -4 c 0,45,46
 96 -10 96 -10 81.5 -1 c 128,-1,47
 67 8 67 8 58.5 24.5 c 128,-1,48
 50 41 50 41 49.5 62 c 128,-1,49
 49 83 49 83 57 101 c 0,50,51
 70 130 70 130 101 174 c 128,-1,52
 132 218 132 218 167.5 266 c 128,-1,53
 203 314 203 314 238 361.5 c 128,-1,54
 273 409 273 409 294 444 c 1,0,1
EndSplineSet
Validated: 33
EndChar

StartChar: y
Encoding: 121 121 58
Width: 667
GlyphClass: 1
Flags: W
LayerCount: 2
Fore
SplineSet
421 129 m 1,0,1
 395 118 395 118 369.5 103.5 c 128,-1,2
 344 89 344 89 316 82 c 0,3,4
 278 72 278 72 243.5 75.5 c 128,-1,5
 209 79 209 79 178.5 92.5 c 128,-1,6
 148 106 148 106 123.5 129.5 c 128,-1,7
 99 153 99 153 82 183 c 0,8,9
 61 222 61 222 52.5 263.5 c 128,-1,10
 44 305 44 305 44.5 347.5 c 128,-1,11
 45 390 45 390 51.5 433 c 128,-1,12
 58 476 58 476 66 517 c 0,13,14
 71 542 71 542 87 560.5 c 128,-1,15
 103 579 103 579 132 585 c 0,16,17
 173 593 173 593 194.5 579.5 c 128,-1,18
 216 566 216 566 225.5 538.5 c 128,-1,19
 235 511 235 511 235.5 474 c 128,-1,20
 236 437 236 437 234 397.5 c 128,-1,21
 232 358 232 358 232 321 c 128,-1,22
 232 284 232 284 240 258 c 0,23,24
 253 218 253 218 277.5 214.5 c 128,-1,25
 302 211 302 211 331 241 c 0,26,27
 352 263 352 263 368 300.5 c 128,-1,28
 384 338 384 338 396 380.5 c 128,-1,29
 408 423 408 423 415.5 464 c 128,-1,30
 423 505 423 505 428 534 c 0,31,32
 434 575 434 575 462 590 c 128,-1,33
 490 605 490 605 532 607 c 0,34,35
 572 610 572 610 594 586 c 128,-1,36
 616 562 616 562 621 529 c 0,37,38
 625 505 625 505 625 461.5 c 128,-1,39
 625 418 625 418 622.5 365 c 128,-1,40
 620 312 620 312 615 254 c 128,-1,41
 610 196 610 196 603.5 143.5 c 128,-1,42
 597 91 597 91 589 47.5 c 128,-1,43
 581 4 581 4 574 -19 c 0,44,45
 556 -75 556 -75 518.5 -107 c 128,-1,46
 481 -139 481 -139 436 -152 c 128,-1,47
 391 -165 391 -165 344 -162 c 128,-1,48
 297 -159 297 -159 261 -144.5 c 128,-1,49
 225 -130 225 -130 205.5 -107 c 128,-1,50
 186 -84 186 -84 196 -57 c 0,51,52
 208 -24 208 -24 228.5 -16.5 c 128,-1,53
 249 -9 249 -9 273.5 -11.5 c 128,-1,54
 298 -14 298 -14 323 -18.5 c 128,-1,55
 348 -23 348 -23 369 -13.5 c 128,-1,56
 390 -4 390 -4 404.5 28 c 128,-1,57
 419 60 419 60 421 129 c 1,0,1
EndSplineSet
Validated: 33
EndChar

StartChar: x
Encoding: 120 120 59
Width: 602
GlyphClass: 1
Flags: W
LayerCount: 2
Fore
SplineSet
149 294 m 1,0,1
 135 316 135 316 119.5 339.5 c 128,-1,2
 104 363 104 363 89 387 c 128,-1,3
 74 411 74 411 61 436 c 128,-1,4
 48 461 48 461 41 486 c 0,5,6
 33 510 33 510 41 534.5 c 128,-1,7
 49 559 49 559 72 573 c 0,8,9
 104 593 104 593 131.5 585.5 c 128,-1,10
 159 578 159 578 183 557 c 128,-1,11
 207 536 207 536 227.5 509.5 c 128,-1,12
 248 483 248 483 265 465 c 1,13,14
 276 478 276 478 290 497 c 128,-1,15
 304 516 304 516 321 535 c 128,-1,16
 338 554 338 554 356.5 571 c 128,-1,17
 375 588 375 588 395.5 597.5 c 128,-1,18
 416 607 416 607 436.5 607 c 128,-1,19
 457 607 457 607 478 592 c 0,20,21
 501 575 501 575 505 550.5 c 128,-1,22
 509 526 509 526 498 502 c 0,23,24
 476 457 476 457 438.5 413.5 c 128,-1,25
 401 370 401 370 369 328 c 1,26,27
 399 294 399 294 432 253.5 c 128,-1,28
 465 213 465 213 496 172 c 0,29,30
 511 152 511 152 524.5 134.5 c 128,-1,31
 538 117 538 117 546.5 99 c 128,-1,32
 555 81 555 81 554.5 62 c 128,-1,33
 554 43 554 43 540 22 c 0,34,35
 523 -2 523 -2 499.5 -3 c 128,-1,36
 476 -4 476 -4 449.5 8.5 c 128,-1,37
 423 21 423 21 394.5 43.5 c 128,-1,38
 366 66 366 66 340.5 90 c 128,-1,39
 315 114 315 114 293 136 c 128,-1,40
 271 158 271 158 258 170 c 1,41,42
 250 156 250 156 238.5 134.5 c 128,-1,43
 227 113 227 113 212.5 90.5 c 128,-1,44
 198 68 198 68 181 46.5 c 128,-1,45
 164 25 164 25 145.5 11 c 128,-1,46
 127 -3 127 -3 106 -7.5 c 128,-1,47
 85 -12 85 -12 64 0 c 0,48,49
 38 14 38 14 32.5 36.5 c 128,-1,50
 27 59 27 59 35 82 c 0,51,52
 54 139 54 139 86 190.5 c 128,-1,53
 118 242 118 242 149 294 c 1,0,1
EndSplineSet
Validated: 33
EndChar

StartChar: w
Encoding: 119 119 60
Width: 939
GlyphClass: 1
Flags: W
LayerCount: 2
Fore
SplineSet
447 114 m 1,0,1
 393 55 393 55 343.5 30 c 128,-1,2
 294 5 294 5 251 6.5 c 128,-1,3
 208 8 208 8 173 33.5 c 128,-1,4
 138 59 138 59 112 101 c 128,-1,5
 86 143 86 143 71.5 198 c 128,-1,6
 57 253 57 253 55.5 315 c 128,-1,7
 54 377 54 377 67 442 c 128,-1,8
 80 507 80 507 109 569 c 0,9,10
 127 607 127 607 154.5 620 c 128,-1,11
 182 633 182 633 208.5 628.5 c 128,-1,12
 235 624 235 624 253.5 605 c 128,-1,13
 272 586 272 586 272 561 c 0,14,15
 272 529 272 529 268.5 497 c 128,-1,16
 265 465 265 465 261 432 c 128,-1,17
 257 399 257 399 254 366 c 128,-1,18
 251 333 251 333 252 301 c 0,19,20
 253 244 253 244 265 213.5 c 128,-1,21
 277 183 277 183 293.5 181 c 128,-1,22
 310 179 310 179 329.5 207.5 c 128,-1,23
 349 236 349 236 365 297 c 0,24,25
 372 322 372 322 377.5 348.5 c 128,-1,26
 383 375 383 375 388 399.5 c 128,-1,27
 393 424 393 424 397.5 445.5 c 128,-1,28
 402 467 402 467 408 483 c 0,29,30
 417 510 417 510 439 522 c 128,-1,31
 461 534 461 534 484.5 532 c 128,-1,32
 508 530 508 530 527.5 515 c 128,-1,33
 547 500 547 500 551 472 c 0,34,35
 555 441 555 441 553.5 396 c 128,-1,36
 552 351 552 351 557 306 c 0,37,38
 563 246 563 246 584 217 c 128,-1,39
 605 188 605 188 629.5 188 c 128,-1,40
 654 188 654 188 675.5 216.5 c 128,-1,41
 697 245 697 245 703 301 c 0,42,43
 707 332 707 332 706 365.5 c 128,-1,44
 705 399 705 399 703.5 431 c 128,-1,45
 702 463 702 463 702.5 492 c 128,-1,46
 703 521 703 521 709 544 c 0,47,48
 719 576 719 576 743.5 588 c 128,-1,49
 768 600 768 600 794 605 c 0,50,51
 874 619 874 619 888 515 c 0,52,53
 892 477 892 477 893 425.5 c 128,-1,54
 894 374 894 374 887.5 318.5 c 128,-1,55
 881 263 881 263 865.5 208 c 128,-1,56
 850 153 850 153 822.5 109 c 128,-1,57
 795 65 795 65 753.5 37 c 128,-1,58
 712 9 712 9 653 7 c 0,59,60
 600 5 600 5 544.5 35 c 128,-1,61
 489 65 489 65 447 114 c 1,0,1
EndSplineSet
Validated: 33
EndChar

StartChar: v
Encoding: 118 118 61
Width: 620
GlyphClass: 1
Flags: W
LayerCount: 2
Fore
SplineSet
390 294 m 0,0,1
 398 328 398 328 404 365.5 c 128,-1,2
 410 403 410 403 416 438.5 c 128,-1,3
 422 474 422 474 427.5 505 c 128,-1,4
 433 536 433 536 441 558 c 0,5,6
 451 584 451 584 472 594.5 c 128,-1,7
 493 605 493 605 514.5 602 c 128,-1,8
 536 599 536 599 553 583 c 128,-1,9
 570 567 570 567 572 539 c 0,10,11
 574 510 574 510 569.5 468.5 c 128,-1,12
 565 427 565 427 555.5 380 c 128,-1,13
 546 333 546 333 531.5 284 c 128,-1,14
 517 235 517 235 500 190 c 128,-1,15
 483 145 483 145 463 108 c 128,-1,16
 443 71 443 71 422 48 c 0,17,18
 393 17 393 17 357.5 4 c 128,-1,19
 322 -9 322 -9 285.5 -5.5 c 128,-1,20
 249 -2 249 -2 215 18 c 128,-1,21
 181 38 181 38 154 73 c 0,22,23
 136 96 136 96 120 132.5 c 128,-1,24
 104 169 104 169 91 212.5 c 128,-1,25
 78 256 78 256 69 302.5 c 128,-1,26
 60 349 60 349 55.5 393 c 128,-1,27
 51 437 51 437 52 475 c 128,-1,28
 53 513 53 513 60 538 c 0,29,30
 66 563 66 563 84.5 578 c 128,-1,31
 103 593 103 593 130 598 c 0,32,33
 156 601 156 601 180.5 588.5 c 128,-1,34
 205 576 205 576 211 553 c 0,35,36
 218 529 218 529 224 497.5 c 128,-1,37
 230 466 230 466 236 431.5 c 128,-1,38
 242 397 242 397 249 361 c 128,-1,39
 256 325 256 325 266 291 c 0,40,41
 280 238 280 238 295.5 210 c 128,-1,42
 311 182 311 182 327 180.5 c 128,-1,43
 343 179 343 179 359 206.5 c 128,-1,44
 375 234 375 234 390 294 c 0,0,1
EndSplineSet
Validated: 33
EndChar

StartChar: u
Encoding: 117 117 62
Width: 679
GlyphClass: 1
Flags: W
LayerCount: 2
Fore
SplineSet
477 80 m 1,0,1
 462 69 462 69 447.5 57 c 128,-1,2
 433 45 433 45 416 34 c 0,3,4
 376 10 376 10 334.5 4 c 128,-1,5
 293 -2 293 -2 254.5 6.5 c 128,-1,6
 216 15 216 15 181.5 36.5 c 128,-1,7
 147 58 147 58 120.5 88.5 c 128,-1,8
 94 119 94 119 76.5 157.5 c 128,-1,9
 59 196 59 196 55 238 c 0,10,11
 49 305 49 305 54 377.5 c 128,-1,12
 59 450 59 450 75 516 c 0,13,14
 77 523 77 523 79 530 c 128,-1,15
 81 537 81 537 85 543 c 0,16,17
 97 568 97 568 117.5 579.5 c 128,-1,18
 138 591 138 591 159.5 590 c 128,-1,19
 181 589 181 589 199 574.5 c 128,-1,20
 217 560 217 560 223 532 c 0,21,22
 231 495 231 495 231 455.5 c 128,-1,23
 231 416 231 416 229.5 376.5 c 128,-1,24
 228 337 228 337 229 298 c 128,-1,25
 230 259 230 259 242 224 c 0,26,27
 250 203 250 203 263 187.5 c 128,-1,28
 276 172 276 172 300 168 c 0,29,30
 333 163 333 163 353.5 179.5 c 128,-1,31
 374 196 374 196 386 225 c 128,-1,32
 398 254 398 254 403.5 293.5 c 128,-1,33
 409 333 409 333 413 374.5 c 128,-1,34
 417 416 417 416 421.5 456.5 c 128,-1,35
 426 497 426 497 435 529 c 128,-1,36
 444 561 444 561 460 581 c 128,-1,37
 476 601 476 601 503 602 c 0,38,39
 536 603 536 603 560 585 c 128,-1,40
 584 567 584 567 589 538 c 0,41,42
 595 506 595 506 596 473 c 128,-1,43
 597 440 597 440 596.5 407 c 128,-1,44
 596 374 596 374 596 341 c 128,-1,45
 596 308 596 308 600 276 c 0,46,47
 603 253 603 253 612.5 221 c 128,-1,48
 622 189 622 189 628 156.5 c 128,-1,49
 634 124 634 124 631.5 95.5 c 128,-1,50
 629 67 629 67 608 51 c 0,51,52
 590 38 590 38 572.5 37 c 128,-1,53
 555 36 555 36 538.5 42 c 128,-1,54
 522 48 522 48 507 58.5 c 128,-1,55
 492 69 492 69 477 80 c 1,0,1
EndSplineSet
Validated: 33
EndChar

StartChar: t
Encoding: 116 116 63
Width: 566
GlyphClass: 1
Flags: W
LayerCount: 2
Fore
SplineSet
355 276 m 1,0,1
 355 226 355 226 358.5 174 c 128,-1,2
 362 122 362 122 360 70 c 0,3,4
 359 32 359 32 333.5 12.5 c 128,-1,5
 308 -7 308 -7 277 -6 c 128,-1,6
 246 -5 246 -5 219.5 16.5 c 128,-1,7
 193 38 193 38 190 83 c 0,8,9
 189 100 189 100 189 125.5 c 128,-1,10
 189 151 189 151 189 179 c 128,-1,11
 189 207 189 207 189 233 c 128,-1,12
 189 259 189 259 188 276 c 1,13,14
 165 280 165 280 141 283.5 c 128,-1,15
 117 287 117 287 96 295 c 0,16,17
 66 305 66 305 52 325 c 128,-1,18
 38 345 38 345 39 366.5 c 128,-1,19
 40 388 40 388 56 406.5 c 128,-1,20
 72 425 72 425 102 433 c 0,21,22
 124 439 124 439 148 441.5 c 128,-1,23
 172 444 172 444 194 446 c 1,24,25
 197 462 197 462 200.5 497.5 c 128,-1,26
 204 533 204 533 209 573 c 128,-1,27
 214 613 214 613 222 651 c 128,-1,28
 230 689 230 689 241 710 c 0,29,30
 253 734 253 734 276 745 c 128,-1,31
 299 756 299 756 321.5 755.5 c 128,-1,32
 344 755 344 755 362.5 744 c 128,-1,33
 381 733 381 733 384 712 c 0,34,35
 387 694 387 694 386 661 c 128,-1,36
 385 628 385 628 381.5 591 c 128,-1,37
 378 554 378 554 374 519.5 c 128,-1,38
 370 485 370 485 367 463 c 1,39,40
 387 461 387 461 407.5 461 c 128,-1,41
 428 461 428 461 447 456 c 0,42,43
 486 445 486 445 504 419 c 128,-1,44
 522 393 522 393 519.5 364.5 c 128,-1,45
 517 336 517 336 494.5 312 c 128,-1,46
 472 288 472 288 432 282 c 0,47,48
 412 280 412 280 393 279 c 128,-1,49
 374 278 374 278 355 276 c 1,0,1
EndSplineSet
Validated: 33
EndChar

StartChar: s
Encoding: 115 115 64
Width: 492
GlyphClass: 1
Flags: W
LayerCount: 2
Fore
SplineSet
249 -13 m 0,0,1
 226 -12 226 -12 193 -8.5 c 128,-1,2
 160 -5 160 -5 129.5 5 c 128,-1,3
 99 15 99 15 77 34 c 128,-1,4
 55 53 55 53 54 84 c 0,5,6
 53 106 53 106 60 122.5 c 128,-1,7
 67 139 67 139 78.5 150.5 c 128,-1,8
 90 162 90 162 105 168 c 128,-1,9
 120 174 120 174 136 174 c 0,10,11
 156 175 156 175 177 169 c 128,-1,12
 198 163 198 163 219 160 c 0,13,14
 247 157 247 157 264.5 163 c 128,-1,15
 282 169 282 169 286.5 181 c 128,-1,16
 291 193 291 193 282 208.5 c 128,-1,17
 273 224 273 224 249 238 c 0,18,19
 229 250 229 250 204 262 c 128,-1,20
 179 274 179 274 153.5 288.5 c 128,-1,21
 128 303 128 303 105.5 321.5 c 128,-1,22
 83 340 83 340 69 364 c 0,23,24
 48 401 48 401 51.5 443.5 c 128,-1,25
 55 486 55 486 76 523.5 c 128,-1,26
 97 561 97 561 133 589 c 128,-1,27
 169 617 169 617 213 625 c 0,28,29
 268 635 268 635 326.5 620.5 c 128,-1,30
 385 606 385 606 432 566 c 0,31,32
 443 557 443 557 447 543 c 128,-1,33
 451 529 451 529 449 513 c 128,-1,34
 447 497 447 497 440 481.5 c 128,-1,35
 433 466 433 466 423 453 c 0,36,37
 409 436 409 436 394 433 c 128,-1,38
 379 430 379 430 362 433 c 128,-1,39
 345 436 345 436 326.5 443 c 128,-1,40
 308 450 308 450 289 455 c 0,41,42
 259 462 259 462 235 457 c 128,-1,43
 211 452 211 452 202.5 439.5 c 128,-1,44
 194 427 194 427 207.5 409.5 c 128,-1,45
 221 392 221 392 268 374 c 0,46,47
 298 362 298 362 332 346 c 128,-1,48
 366 330 366 330 394 305 c 128,-1,49
 422 280 422 280 439 245 c 128,-1,50
 456 210 456 210 452 160 c 0,51,52
 449 122 449 122 430 90 c 128,-1,53
 411 58 411 58 382 35 c 128,-1,54
 353 12 353 12 318 -1 c 128,-1,55
 283 -14 283 -14 249 -13 c 0,0,1
EndSplineSet
Validated: 33
EndChar

StartChar: r
Encoding: 114 114 65
Width: 559
GlyphClass: 1
Flags: W
LayerCount: 2
Fore
SplineSet
236 564 m 1,0,1
 255 575 255 575 282 583.5 c 128,-1,2
 309 592 309 592 338 595 c 128,-1,3
 367 598 367 598 396.5 595 c 128,-1,4
 426 592 426 592 450.5 581 c 128,-1,5
 475 570 475 570 492.5 549.5 c 128,-1,6
 510 529 510 529 515 498 c 0,7,8
 520 465 520 465 510 439.5 c 128,-1,9
 500 414 500 414 481 399 c 128,-1,10
 462 384 462 384 435.5 381 c 128,-1,11
 409 378 409 378 381 390 c 0,12,13
 346 405 346 405 323 398.5 c 128,-1,14
 300 392 300 392 284.5 371.5 c 128,-1,15
 269 351 269 351 261 320 c 128,-1,16
 253 289 253 289 249 256 c 128,-1,17
 245 223 245 223 244 191.5 c 128,-1,18
 243 160 243 160 242 138 c 0,19,20
 241 110 241 110 238 86 c 128,-1,21
 235 62 235 62 227 43 c 128,-1,22
 219 24 219 24 205 12.5 c 128,-1,23
 191 1 191 1 167 -2 c 0,24,25
 137 -5 137 -5 117 15 c 128,-1,26
 97 35 97 35 84.5 70 c 128,-1,27
 72 105 72 105 66.5 152 c 128,-1,28
 61 199 61 199 60.5 250 c 128,-1,29
 60 301 60 301 63.5 352.5 c 128,-1,30
 67 404 67 404 72.5 449.5 c 128,-1,31
 78 495 78 495 85 530 c 128,-1,32
 92 565 92 565 98 582 c 0,33,34
 106 606 106 606 122.5 620.5 c 128,-1,35
 139 635 139 635 164 635 c 0,36,37
 181 635 181 635 192.5 629.5 c 128,-1,38
 204 624 204 624 211.5 614 c 128,-1,39
 219 604 219 604 224.5 591.5 c 128,-1,40
 230 579 230 579 236 564 c 1,0,1
EndSplineSet
Validated: 33
EndChar

StartChar: q
Encoding: 113 113 66
Width: 660
GlyphClass: 1
Flags: W
LayerCount: 2
Fore
SplineSet
416 119 m 1,0,1
 390 111 390 111 363.5 103.5 c 128,-1,2
 337 96 337 96 310 91 c 0,3,4
 263 82 263 82 219.5 93.5 c 128,-1,5
 176 105 176 105 142 131.5 c 128,-1,6
 108 158 108 158 85.5 197 c 128,-1,7
 63 236 63 236 58 283 c 0,8,9
 50 355 50 355 74 421.5 c 128,-1,10
 98 488 98 488 145 536.5 c 128,-1,11
 192 585 192 585 257 608.5 c 128,-1,12
 322 632 322 632 397 618 c 0,13,14
 406 616 406 616 421 616 c 128,-1,15
 436 616 436 616 452 617.5 c 128,-1,16
 468 619 468 619 483 620.5 c 128,-1,17
 498 622 498 622 507 623 c 0,18,19
 538 627 538 627 562 623 c 128,-1,20
 586 619 586 619 602 604.5 c 128,-1,21
 618 590 618 590 624 563 c 128,-1,22
 630 536 630 536 625 494 c 0,23,24
 622 466 622 466 615 439 c 128,-1,25
 608 412 608 412 606 383 c 0,26,27
 600 289 600 289 597.5 194.5 c 128,-1,28
 595 100 595 100 593 6 c 0,29,30
 593 -10 593 -10 592.5 -25.5 c 128,-1,31
 592 -41 592 -41 589 -56 c 0,32,33
 584 -81 584 -81 573 -99 c 256,34,35
 562 -117 562 -117 546.5 -127 c 128,-1,36
 531 -137 531 -137 514 -138.5 c 128,-1,37
 497 -140 497 -140 480 -133.5 c 128,-1,38
 463 -127 463 -127 450 -110 c 0,39,40
 433 -89 433 -89 425.5 -60.5 c 128,-1,41
 418 -32 418 -32 416 -0.5 c 128,-1,42
 414 31 414 31 415 62 c 128,-1,43
 416 93 416 93 416 119 c 1,0,1
451 441 m 1,44,45
 412 457 412 457 372 455.5 c 128,-1,46
 332 454 332 454 299.5 436.5 c 128,-1,47
 267 419 267 419 248 386 c 128,-1,48
 229 353 229 353 233 308 c 0,49,50
 235 287 235 287 246 276.5 c 128,-1,51
 257 266 257 266 273.5 263.5 c 128,-1,52
 290 261 290 261 310 265 c 128,-1,53
 330 269 330 269 349.5 275.5 c 128,-1,54
 369 282 369 282 386.5 289.5 c 128,-1,55
 404 297 404 297 415 303 c 256,56,57
 426 309 426 309 432 326.5 c 128,-1,58
 438 344 438 344 442 366 c 128,-1,59
 446 388 446 388 447.5 408.5 c 128,-1,60
 449 429 449 429 451 441 c 1,44,45
EndSplineSet
Validated: 33
EndChar

StartChar: p
Encoding: 112 112 67
Width: 620
GlyphClass: 1
Flags: W
LayerCount: 2
Fore
SplineSet
198 553 m 1,0,1
 262 588 262 588 316.5 591.5 c 128,-1,2
 371 595 371 595 415 575.5 c 128,-1,3
 459 556 459 556 491 518.5 c 128,-1,4
 523 481 523 481 541.5 433.5 c 128,-1,5
 560 386 560 386 564.5 333.5 c 128,-1,6
 569 281 569 281 556.5 232 c 128,-1,7
 544 183 544 183 515 142 c 128,-1,8
 486 101 486 101 437 76 c 0,9,10
 405 60 405 60 377.5 55 c 128,-1,11
 350 50 350 50 322.5 51.5 c 128,-1,12
 295 53 295 53 266.5 59 c 128,-1,13
 238 65 238 65 206 70 c 1,14,15
 205 58 205 58 204 41.5 c 128,-1,16
 203 25 203 25 202 8 c 128,-1,17
 201 -9 201 -9 199.5 -25 c 128,-1,18
 198 -41 198 -41 196 -53 c 0,19,20
 190 -91 190 -91 167 -109 c 128,-1,21
 144 -127 144 -127 118.5 -125.5 c 128,-1,22
 93 -124 93 -124 72 -103.5 c 128,-1,23
 51 -83 51 -83 49 -44 c 0,24,25
 48 -25 48 -25 48 21.5 c 128,-1,26
 48 68 48 68 48.5 127.5 c 128,-1,27
 49 187 49 187 50.5 252.5 c 128,-1,28
 52 318 52 318 54.5 375.5 c 128,-1,29
 57 433 57 433 60 474.5 c 128,-1,30
 63 516 63 516 67 528 c 0,31,32
 77 558 77 558 91.5 571 c 128,-1,33
 106 584 106 584 123 585 c 128,-1,34
 140 586 140 586 159.5 577 c 128,-1,35
 179 568 179 568 198 553 c 1,0,1
209 252 m 1,36,37
 240 238 240 238 277 232.5 c 128,-1,38
 314 227 314 227 343 239 c 128,-1,39
 372 251 372 251 387 284 c 128,-1,40
 402 317 402 317 389 380 c 0,41,42
 384 402 384 402 370.5 415.5 c 128,-1,43
 357 429 357 429 339.5 433 c 128,-1,44
 322 437 322 437 302.5 431.5 c 128,-1,45
 283 426 283 426 267 411 c 0,46,47
 234 379 234 379 219 338.5 c 128,-1,48
 204 298 204 298 209 252 c 1,36,37
EndSplineSet
Validated: 33
EndChar

StartChar: o
Encoding: 111 111 68
Width: 639
GlyphClass: 1
Flags: W
LayerCount: 2
Fore
SplineSet
588 308 m 0,0,1
 589 220 589 220 553 155 c 128,-1,2
 517 90 517 90 461.5 51 c 128,-1,3
 406 12 406 12 340 0 c 128,-1,4
 274 -12 274 -12 214 5 c 0,5,6
 171 17 171 17 139.5 43.5 c 128,-1,7
 108 70 108 70 86.5 105.5 c 128,-1,8
 65 141 65 141 53 182.5 c 128,-1,9
 41 224 41 224 38 267.5 c 128,-1,10
 35 311 35 311 40 352.5 c 128,-1,11
 45 394 45 394 58 429 c 0,12,13
 86 507 86 507 136 557 c 128,-1,14
 186 607 186 607 244.5 628 c 128,-1,15
 303 649 303 649 363.5 640 c 128,-1,16
 424 631 424 631 473.5 592 c 128,-1,17
 523 553 523 553 555 482 c 128,-1,18
 587 411 587 411 588 308 c 0,0,1
205 287 m 0,19,20
 208 254 208 254 221 222 c 128,-1,21
 234 190 234 190 255.5 170.5 c 128,-1,22
 277 151 277 151 307.5 149 c 128,-1,23
 338 147 338 147 375 173 c 0,24,25
 406 195 406 195 422.5 233.5 c 128,-1,26
 439 272 439 272 439 313 c 128,-1,27
 439 354 439 354 422.5 391 c 128,-1,28
 406 428 406 428 371 448 c 0,29,30
 333 470 333 470 301.5 459.5 c 128,-1,31
 270 449 270 449 248 421.5 c 128,-1,32
 226 394 226 394 214.5 357 c 128,-1,33
 203 320 203 320 205 287 c 0,19,20
EndSplineSet
Validated: 33
EndChar

StartChar: n
Encoding: 110 110 69
Width: 608
GlyphClass: 1
Flags: W
LayerCount: 2
Fore
SplineSet
181 545 m 1,0,1
 222 580 222 580 265.5 594 c 128,-1,2
 309 608 309 608 350 602 c 128,-1,3
 391 596 391 596 429 571 c 128,-1,4
 467 546 467 546 498 503 c 0,5,6
 528 459 528 459 542.5 408.5 c 128,-1,7
 557 358 557 358 562.5 305 c 128,-1,8
 568 252 568 252 566.5 198.5 c 128,-1,9
 565 145 565 145 564 94 c 0,10,11
 564 86 564 86 561.5 77 c 128,-1,12
 559 68 559 68 557 59 c 0,13,14
 546 26 546 26 519.5 10.5 c 128,-1,15
 493 -5 493 -5 465.5 -2.5 c 128,-1,16
 438 0 438 0 416 20 c 128,-1,17
 394 40 394 40 391 77 c 0,18,19
 390 95 390 95 390 120 c 128,-1,20
 390 145 390 145 390.5 174.5 c 128,-1,21
 391 204 391 204 390.5 235 c 128,-1,22
 390 266 390 266 387 296 c 0,23,24
 380 357 380 357 363 388.5 c 128,-1,25
 346 420 346 420 325 421 c 128,-1,26
 304 422 304 422 281.5 393 c 128,-1,27
 259 364 259 364 242 303 c 0,28,29
 230 261 230 261 226 228.5 c 128,-1,30
 222 196 222 196 220.5 168 c 128,-1,31
 219 140 219 140 218.5 113.5 c 128,-1,32
 218 87 218 87 213 57 c 0,33,34
 208 29 208 29 187 10 c 128,-1,35
 166 -9 166 -9 137 -8 c 256,36,37
 108 -7 108 -7 88.5 11.5 c 128,-1,38
 69 30 69 30 64 56 c 0,39,40
 62 66 62 66 59.5 101 c 128,-1,41
 57 136 57 136 54.5 184 c 128,-1,42
 52 232 52 232 50.5 286 c 128,-1,43
 49 340 49 340 47.5 388.5 c 128,-1,44
 46 437 46 437 46 473.5 c 128,-1,45
 46 510 46 510 47 522 c 0,46,47
 49 547 49 547 60.5 564.5 c 128,-1,48
 72 582 72 582 98 588 c 0,49,50
 128 597 128 597 147 582 c 128,-1,51
 166 567 166 567 181 545 c 1,0,1
EndSplineSet
Validated: 33
EndChar

StartChar: m
Encoding: 109 109 70
Width: 920
GlyphClass: 1
Flags: W
LayerCount: 2
Fore
SplineSet
185 532 m 1,0,1
 219 559 219 559 257.5 572.5 c 128,-1,2
 296 586 296 586 334 584.5 c 128,-1,3
 372 583 372 583 408 565 c 128,-1,4
 444 547 444 547 472 512 c 1,5,6
 519 557 519 557 573.5 576.5 c 128,-1,7
 628 596 628 596 680 589 c 128,-1,8
 732 582 732 582 775.5 547.5 c 128,-1,9
 819 513 819 513 845 449 c 0,10,11
 860 411 860 411 864 370.5 c 128,-1,12
 868 330 868 330 870 289 c 0,13,14
 871 265 871 265 873 234 c 128,-1,15
 875 203 875 203 875 170.5 c 128,-1,16
 875 138 875 138 872.5 107.5 c 128,-1,17
 870 77 870 77 862 55 c 0,18,19
 851 27 851 27 829.5 14.5 c 128,-1,20
 808 2 808 2 785 3.5 c 128,-1,21
 762 5 762 5 741.5 20.5 c 128,-1,22
 721 36 721 36 712 64 c 0,23,24
 700 103 700 103 700 144 c 128,-1,25
 700 185 700 185 701.5 227 c 128,-1,26
 703 269 703 269 700 311 c 128,-1,27
 697 353 697 353 681 393 c 0,28,29
 671 418 671 418 656 423.5 c 128,-1,30
 641 429 641 429 626 422.5 c 128,-1,31
 611 416 611 416 597 401.5 c 128,-1,32
 583 387 583 387 575 372 c 0,33,34
 544 315 544 315 535.5 267.5 c 128,-1,35
 527 220 527 220 525.5 179.5 c 128,-1,36
 524 139 524 139 523 104.5 c 128,-1,37
 522 70 522 70 506 37 c 0,38,39
 486 -6 486 -6 437 -7 c 0,40,41
 400 -8 400 -8 380 21.5 c 128,-1,42
 360 51 360 51 350.5 95 c 128,-1,43
 341 139 341 139 339 189 c 128,-1,44
 337 239 337 239 336 280 c 0,45,46
 333 341 333 341 320 368.5 c 128,-1,47
 307 396 307 396 291.5 393 c 128,-1,48
 276 390 276 390 260.5 360 c 128,-1,49
 245 330 245 330 238 276 c 0,50,51
 234 243 234 243 235 210 c 128,-1,52
 236 177 236 177 237 146.5 c 128,-1,53
 238 116 238 116 237 89 c 128,-1,54
 236 62 236 62 227 41.5 c 128,-1,55
 218 21 218 21 199.5 9 c 128,-1,56
 181 -3 181 -3 147 -5 c 0,57,58
 107 -7 107 -7 86.5 19.5 c 128,-1,59
 66 46 66 46 62 81 c 0,60,61
 60 96 60 96 58.5 132 c 128,-1,62
 57 168 57 168 55 213.5 c 128,-1,63
 53 259 53 259 52 309.5 c 128,-1,64
 51 360 51 360 50.5 404.5 c 128,-1,65
 50 449 50 449 51 481.5 c 128,-1,66
 52 514 52 514 54 525 c 0,67,68
 61 555 61 555 77 566.5 c 128,-1,69
 93 578 93 578 112 576.5 c 128,-1,70
 131 575 131 575 150.5 562.5 c 128,-1,71
 170 550 170 550 185 532 c 1,0,1
EndSplineSet
Validated: 33
EndChar

StartChar: l
Encoding: 108 108 71
Width: 267
GlyphClass: 1
Flags: W
LayerCount: 2
Fore
SplineSet
210 652 m 0,0,1
 219 547 219 547 221.5 457 c 128,-1,2
 224 367 224 367 221.5 294 c 128,-1,3
 219 221 219 221 213 165.5 c 128,-1,4
 207 110 207 110 200 75 c 256,5,6
 193 40 193 40 169 21 c 128,-1,7
 145 2 145 2 117 0 c 0,8,9
 101 -1 101 -1 85 5 c 128,-1,10
 69 11 69 11 56.5 25 c 128,-1,11
 44 39 44 39 36.5 62 c 128,-1,12
 29 85 29 85 29 119 c 0,13,14
 29 136 29 136 30.5 182.5 c 128,-1,15
 32 229 32 229 34 289.5 c 128,-1,16
 36 350 36 350 39 417.5 c 128,-1,17
 42 485 42 485 45.5 543 c 128,-1,18
 49 601 49 601 52.5 642 c 128,-1,19
 56 683 56 683 59 692 c 0,20,21
 71 722 71 722 94.5 738 c 128,-1,22
 118 754 118 754 142.5 751 c 128,-1,23
 167 748 167 748 186.5 724 c 128,-1,24
 206 700 206 700 210 652 c 0,0,1
EndSplineSet
Validated: 33
EndChar

StartChar: k
Encoding: 107 107 72
Width: 492
GlyphClass: 1
Flags: W
LayerCount: 2
Fore
SplineSet
287 307 m 1,0,1
 306 286 306 286 330 265 c 128,-1,2
 354 244 354 244 376.5 221.5 c 128,-1,3
 399 199 399 199 418 175.5 c 128,-1,4
 437 152 437 152 448 125 c 0,5,6
 461 94 461 94 448.5 67 c 128,-1,7
 436 40 436 40 412.5 24.5 c 128,-1,8
 389 9 389 9 360.5 8.5 c 128,-1,9
 332 8 332 8 313 30 c 0,10,11
 299 46 299 46 286 70.5 c 128,-1,12
 273 95 273 95 260 121 c 128,-1,13
 247 147 247 147 234.5 172 c 128,-1,14
 222 197 222 197 211 214 c 1,15,-1
 202 211 l 1,16,17
 198 170 198 170 197.5 129.5 c 128,-1,18
 197 89 197 89 181 54 c 0,19,20
 168 24 168 24 142 11 c 128,-1,21
 116 -2 116 -2 90 2.5 c 128,-1,22
 64 7 64 7 45 29.5 c 128,-1,23
 26 52 26 52 27 94 c 0,24,25
 28 126 28 126 29.5 172.5 c 128,-1,26
 31 219 31 219 32.5 272.5 c 128,-1,27
 34 326 34 326 35.5 382.5 c 128,-1,28
 37 439 37 439 38.5 492 c 128,-1,29
 40 545 40 545 41.5 590 c 128,-1,30
 43 635 43 635 44 666 c 0,31,32
 44 685 44 685 57.5 702.5 c 128,-1,33
 71 720 71 720 90.5 731.5 c 128,-1,34
 110 743 110 743 132.5 746.5 c 128,-1,35
 155 750 155 750 175 741.5 c 128,-1,36
 195 733 195 733 208.5 711 c 128,-1,37
 222 689 222 689 223 650 c 0,38,39
 223 630 223 630 221 600 c 128,-1,40
 219 570 219 570 216.5 537.5 c 128,-1,41
 214 505 214 505 211.5 475 c 128,-1,42
 209 445 209 445 209 425 c 1,43,44
 222 435 222 435 236.5 449.5 c 128,-1,45
 251 464 251 464 266 479.5 c 128,-1,46
 281 495 281 495 295.5 509.5 c 128,-1,47
 310 524 310 524 324 533 c 0,48,49
 350 551 350 551 375.5 546.5 c 128,-1,50
 401 542 401 542 418.5 525.5 c 128,-1,51
 436 509 436 509 441 484.5 c 128,-1,52
 446 460 446 460 431 437 c 0,53,54
 405 397 405 397 365 365.5 c 128,-1,55
 325 334 325 334 287 307 c 1,0,1
EndSplineSet
Validated: 33
EndChar

StartChar: j
Encoding: 106 106 73
Width: 296
GlyphClass: 1
Flags: W
LayerCount: 2
Fore
SplineSet
193 -107 m 0,0,1
 165 -161 165 -161 127 -191 c 128,-1,2
 89 -221 89 -221 48.5 -231.5 c 128,-1,3
 8 -242 8 -242 -30 -236 c 128,-1,4
 -68 -230 -68 -230 -96.5 -212.5 c 128,-1,5
 -125 -195 -125 -195 -138.5 -169 c 128,-1,6
 -152 -143 -152 -143 -143 -114 c 0,7,8
 -133 -83 -133 -83 -114.5 -74.5 c 128,-1,9
 -96 -66 -96 -66 -74.5 -66 c 128,-1,10
 -53 -66 -53 -66 -32 -68.5 c 128,-1,11
 -11 -71 -11 -71 4 -60 c 0,12,13
 47 -30 47 -30 63 22.5 c 128,-1,14
 79 75 79 75 80.5 134.5 c 128,-1,15
 82 194 82 194 77 253 c 128,-1,16
 72 312 72 312 74 356 c 0,17,18
 75 382 75 382 90 399.5 c 128,-1,19
 105 417 105 417 124.5 423 c 128,-1,20
 144 429 144 429 164.5 422.5 c 128,-1,21
 185 416 185 416 198 393 c 0,22,23
 223 347 223 347 233.5 280 c 128,-1,24
 244 213 244 213 242.5 142 c 128,-1,25
 241 71 241 71 228 4.5 c 128,-1,26
 215 -62 215 -62 193 -107 c 0,0,1
207 587 m 0,27,28
 207 562 207 562 195 545.5 c 128,-1,29
 183 529 183 529 165.5 521 c 128,-1,30
 148 513 148 513 128 513.5 c 128,-1,31
 108 514 108 514 91 523 c 128,-1,32
 74 532 74 532 63 549.5 c 128,-1,33
 52 567 52 567 53 593 c 0,34,35
 54 618 54 618 65.5 634 c 128,-1,36
 77 650 77 650 94.5 657.5 c 128,-1,37
 112 665 112 665 131.5 664 c 128,-1,38
 151 663 151 663 168 654 c 128,-1,39
 185 645 185 645 196 628 c 128,-1,40
 207 611 207 611 207 587 c 0,27,28
EndSplineSet
Validated: 33
EndChar

StartChar: i
Encoding: 105 105 74
Width: 280
GlyphClass: 1
Flags: W
LayerCount: 2
Fore
SplineSet
217 53 m 0,0,1
 202 18 202 18 171 3.5 c 128,-1,2
 140 -11 140 -11 109.5 -5.5 c 128,-1,3
 79 0 79 0 56 24.5 c 128,-1,4
 33 49 33 49 34 91 c 0,5,6
 35 121 35 121 36.5 160 c 128,-1,7
 38 199 38 199 41.5 240 c 128,-1,8
 45 281 45 281 51 319.5 c 128,-1,9
 57 358 57 358 67 387 c 0,10,11
 74 409 74 409 96.5 424.5 c 128,-1,12
 119 440 119 440 146 438 c 0,13,14
 179 437 179 437 197 421 c 128,-1,15
 215 405 215 405 223 380 c 0,16,17
 228 366 228 366 231 340 c 128,-1,18
 234 314 234 314 235 282 c 128,-1,19
 236 250 236 250 235.5 215 c 128,-1,20
 235 180 235 180 232.5 148 c 128,-1,21
 230 116 230 116 226 90.5 c 128,-1,22
 222 65 222 65 217 53 c 0,0,1
244 591 m 0,23,24
 245 567 245 567 233 549.5 c 128,-1,25
 221 532 221 532 202 522.5 c 128,-1,26
 183 513 183 513 161 510.5 c 128,-1,27
 139 508 139 508 119.5 514.5 c 128,-1,28
 100 521 100 521 86.5 536.5 c 128,-1,29
 73 552 73 552 72 577 c 256,30,31
 71 602 71 602 83 619.5 c 128,-1,32
 95 637 95 637 114 646.5 c 128,-1,33
 133 656 133 656 155 657 c 128,-1,34
 177 658 177 658 196.5 651 c 128,-1,35
 216 644 216 644 229.5 629 c 128,-1,36
 243 614 243 614 244 591 c 0,23,24
EndSplineSet
Validated: 33
EndChar

StartChar: h
Encoding: 104 104 75
Width: 582
GlyphClass: 1
Flags: W
LayerCount: 2
Fore
SplineSet
243 499 m 1,0,1
 269 502 269 502 294 507 c 128,-1,2
 319 512 319 512 345 511 c 0,3,4
 397 509 397 509 435.5 484 c 128,-1,5
 474 459 474 459 494 414 c 0,6,7
 507 385 507 385 518.5 338.5 c 128,-1,8
 530 292 530 292 536.5 241 c 128,-1,9
 543 190 543 190 544 142.5 c 128,-1,10
 545 95 545 95 538 66 c 0,11,12
 530 36 530 36 505 15.5 c 128,-1,13
 480 -5 480 -5 446 -3 c 0,14,15
 409 -1 409 -1 385 21.5 c 128,-1,16
 361 44 361 44 356 76 c 0,17,18
 351 123 351 123 351.5 177 c 128,-1,19
 352 231 352 231 348 276 c 0,20,21
 345 321 345 321 330 340.5 c 128,-1,22
 315 360 315 360 297 357.5 c 128,-1,23
 279 355 279 355 262 332.5 c 128,-1,24
 245 310 245 310 236 271 c 0,25,26
 230 244 230 244 229 214.5 c 128,-1,27
 228 185 228 185 226.5 155.5 c 128,-1,28
 225 126 225 126 221 98.5 c 128,-1,29
 217 71 217 71 205 49 c 0,30,31
 187 14 187 14 157 1 c 128,-1,32
 127 -12 127 -12 99.5 -3.5 c 128,-1,33
 72 5 72 5 52.5 35 c 128,-1,34
 33 65 33 65 36 117 c 0,35,36
 37 144 37 144 38 191.5 c 128,-1,37
 39 239 39 239 40.5 296.5 c 128,-1,38
 42 354 42 354 44 415.5 c 128,-1,39
 46 477 46 477 50 532 c 128,-1,40
 54 587 54 587 60 631 c 128,-1,41
 66 675 66 675 76 696 c 0,42,43
 87 720 87 720 109.5 732.5 c 128,-1,44
 132 745 132 745 157.5 746 c 128,-1,45
 183 747 183 747 205.5 736 c 128,-1,46
 228 725 228 725 239 702 c 0,47,48
 248 681 248 681 249.5 653.5 c 128,-1,49
 251 626 251 626 249.5 597.5 c 128,-1,50
 248 569 248 569 245.5 543 c 128,-1,51
 243 517 243 517 243 499 c 1,0,1
EndSplineSet
Validated: 33
EndChar

StartChar: g
Encoding: 103 103 76
Width: 596
GlyphClass: 1
Flags: W
LayerCount: 2
Fore
SplineSet
378 189 m 1,0,1
 348 183 348 183 318 175 c 128,-1,2
 288 167 288 167 256 167 c 0,3,4
 197 166 197 166 153 194 c 128,-1,5
 109 222 109 222 83 266 c 128,-1,6
 57 310 57 310 51.5 363.5 c 128,-1,7
 46 417 46 417 65 468.5 c 128,-1,8
 84 520 84 520 129 563 c 128,-1,9
 174 606 174 606 249 629 c 0,10,11
 274 636 274 636 295 638.5 c 128,-1,12
 316 641 316 641 336.5 639.5 c 128,-1,13
 357 638 357 638 378 633.5 c 128,-1,14
 399 629 399 629 423 622 c 1,15,-1
 429 623 l 1,16,17
 437 633 437 633 446 643.5 c 128,-1,18
 455 654 455 654 466 661.5 c 128,-1,19
 477 669 477 669 490 672 c 128,-1,20
 503 675 503 675 519 669 c 0,21,22
 537 663 537 663 545 650 c 128,-1,23
 553 637 553 637 554 620 c 0,24,25
 555 605 555 605 554.5 590.5 c 128,-1,26
 554 576 554 576 552 561 c 0,27,28
 537 469 537 469 537.5 379.5 c 128,-1,29
 538 290 538 290 547 198 c 0,30,31
 553 151 553 151 553 106 c 0,32,33
 552 33 552 33 529 -14.5 c 128,-1,34
 506 -62 506 -62 468.5 -88 c 128,-1,35
 431 -114 431 -114 381.5 -119 c 128,-1,36
 332 -124 332 -124 278 -112 c 0,37,38
 266 -109 266 -109 249 -104.5 c 128,-1,39
 232 -100 232 -100 215 -92.5 c 128,-1,40
 198 -85 198 -85 183 -73.5 c 128,-1,41
 168 -62 168 -62 158 -46 c 0,42,43
 146 -26 146 -26 144.5 -4 c 128,-1,44
 143 18 143 18 158 42 c 0,45,46
 169 60 169 60 185 63 c 128,-1,47
 201 66 201 66 219 62 c 128,-1,48
 237 58 237 58 256.5 51.5 c 128,-1,49
 276 45 276 45 295 44 c 128,-1,50
 314 43 314 43 332.5 52 c 128,-1,51
 351 61 351 61 366 89 c 0,52,53
 380 112 380 112 381.5 137.5 c 128,-1,54
 383 163 383 163 378 189 c 1,0,1
384 479 m 1,55,56
 340 498 340 498 308 492 c 128,-1,57
 276 486 276 486 256 466 c 128,-1,58
 236 446 236 446 228 418 c 128,-1,59
 220 390 220 390 223.5 365.5 c 128,-1,60
 227 341 227 341 243 324.5 c 128,-1,61
 259 308 259 308 286 312 c 0,62,63
 297 313 297 313 311.5 322.5 c 128,-1,64
 326 332 326 332 339.5 344.5 c 128,-1,65
 353 357 353 357 363 370.5 c 128,-1,66
 373 384 373 384 375 394 c 0,67,68
 380 415 380 415 381 436.5 c 128,-1,69
 382 458 382 458 384 479 c 1,55,56
EndSplineSet
Validated: 33
EndChar

StartChar: f
Encoding: 102 102 77
Width: 602
GlyphClass: 1
Flags: W
LayerCount: 2
Fore
SplineSet
143 293 m 1,0,1
 148 336 148 336 152 378.5 c 128,-1,2
 156 421 156 421 165.5 461.5 c 128,-1,3
 175 502 175 502 194.5 540 c 128,-1,4
 214 578 214 578 250 612 c 0,5,6
 282 643 282 643 318 657.5 c 128,-1,7
 354 672 354 672 391 672 c 128,-1,8
 428 672 428 672 465 657.5 c 128,-1,9
 502 643 502 643 536 616 c 0,10,11
 544 610 544 610 550 602 c 128,-1,12
 556 594 556 594 561 586 c 0,13,14
 573 565 573 565 572 542.5 c 128,-1,15
 571 520 571 520 554 501 c 0,16,17
 540 486 540 486 523.5 481 c 128,-1,18
 507 476 507 476 489 477.5 c 128,-1,19
 471 479 471 479 453 484 c 128,-1,20
 435 489 435 489 418 494 c 0,21,22
 392 502 392 502 374 493.5 c 128,-1,23
 356 485 356 485 344 467 c 128,-1,24
 332 449 332 449 325.5 424.5 c 128,-1,25
 319 400 319 400 316 375 c 128,-1,26
 313 350 313 350 313 327.5 c 128,-1,27
 313 305 313 305 314 291 c 1,28,29
 329 288 329 288 354.5 286 c 128,-1,30
 380 284 380 284 408 282 c 128,-1,31
 436 280 436 280 462 277 c 128,-1,32
 488 274 488 274 502 269 c 0,33,34
 523 261 523 261 530.5 246.5 c 128,-1,35
 538 232 538 232 538 211 c 0,36,37
 538 185 538 185 513 171 c 128,-1,38
 488 157 488 157 454 150 c 128,-1,39
 420 143 420 143 384.5 141 c 128,-1,40
 349 139 349 139 329 138 c 1,41,42
 329 91 329 91 331 43 c 128,-1,43
 333 -5 333 -5 327 -52 c 0,44,45
 323 -85 323 -85 302 -103 c 128,-1,46
 281 -121 281 -121 256 -122.5 c 128,-1,47
 231 -124 231 -124 207 -109 c 128,-1,48
 183 -94 183 -94 173 -61 c 0,49,50
 158 -11 158 -11 154.5 40 c 128,-1,51
 151 91 151 91 147 142 c 1,52,53
 135 144 135 144 122.5 145 c 128,-1,54
 110 146 110 146 98 149 c 0,55,56
 71 156 71 156 55.5 171.5 c 128,-1,57
 40 187 40 187 37 205.5 c 128,-1,58
 34 224 34 224 44.5 241.5 c 128,-1,59
 55 259 55 259 81 271 c 0,60,61
 96 279 96 279 111.5 283.5 c 128,-1,62
 127 288 127 288 143 293 c 1,0,1
EndSplineSet
Validated: 33
EndChar

StartChar: e
Encoding: 101 101 78
Width: 559
GlyphClass: 1
Flags: W
LayerCount: 2
Fore
SplineSet
213 235 m 1,0,1
 220 211 220 211 234 192 c 128,-1,2
 248 173 248 173 267.5 161 c 128,-1,3
 287 149 287 149 310.5 145.5 c 128,-1,4
 334 142 334 142 358 150 c 0,5,6
 374 155 374 155 393.5 163.5 c 128,-1,7
 413 172 413 172 431.5 175.5 c 128,-1,8
 450 179 450 179 467.5 175 c 128,-1,9
 485 171 485 171 498 151 c 0,10,11
 515 125 515 125 511 102 c 128,-1,12
 507 79 507 79 489 59 c 128,-1,13
 471 39 471 39 443 24 c 128,-1,14
 415 9 415 9 383 0 c 128,-1,15
 351 -9 351 -9 318.5 -11 c 128,-1,16
 286 -13 286 -13 260 -6 c 0,17,18
 210 7 210 7 170 32.5 c 128,-1,19
 130 58 130 58 102 94 c 128,-1,20
 74 130 74 130 59.5 174.5 c 128,-1,21
 45 219 45 219 45 271 c 0,22,23
 45 342 45 342 59.5 406 c 128,-1,24
 74 470 74 470 108 519 c 128,-1,25
 142 568 142 568 197 597.5 c 128,-1,26
 252 627 252 627 332 629 c 0,27,28
 389 630 389 630 429 601.5 c 128,-1,29
 469 573 469 573 491 529 c 128,-1,30
 513 485 513 485 515 433 c 128,-1,31
 517 381 517 381 497 334.5 c 128,-1,32
 477 288 477 288 434 254 c 128,-1,33
 391 220 391 220 323 214 c 0,34,35
 299 212 299 212 267.5 220 c 128,-1,36
 236 228 236 228 213 235 c 1,0,1
238 374 m 1,37,38
 267 366 267 366 297 364 c 128,-1,39
 327 362 327 362 356 371 c 0,40,41
 372 376 372 376 379 392.5 c 128,-1,42
 386 409 386 409 383.5 425.5 c 128,-1,43
 381 442 381 442 367.5 453 c 128,-1,44
 354 464 354 464 329 457 c 0,45,46
 291 447 291 447 271 429 c 128,-1,47
 251 411 251 411 238 374 c 1,37,38
EndSplineSet
Validated: 33
EndChar

StartChar: d
Encoding: 100 100 79
Width: 624
GlyphClass: 1
Flags: W
LayerCount: 2
Fore
SplineSet
409 564 m 1,0,1
 412 602 412 602 418 642.5 c 128,-1,2
 424 683 424 683 438 719 c 0,3,4
 451 751 451 751 476.5 762.5 c 128,-1,5
 502 774 502 774 528.5 768.5 c 128,-1,6
 555 763 555 763 575 742.5 c 128,-1,7
 595 722 595 722 597 690 c 0,8,9
 598 670 598 670 596.5 650 c 128,-1,10
 595 630 595 630 593 610 c 0,11,12
 579 493 579 493 572.5 379 c 128,-1,13
 566 265 566 265 568 147 c 0,14,15
 568 128 568 128 567 109 c 128,-1,16
 566 90 566 90 561 72 c 0,17,18
 551 30 551 30 531.5 18.5 c 128,-1,19
 512 7 512 7 488 9 c 128,-1,20
 464 11 464 11 439.5 17 c 128,-1,21
 415 23 415 23 394 15 c 0,22,23
 363 3 363 3 332.5 -5 c 128,-1,24
 302 -13 302 -13 268 -11 c 0,25,26
 195 -8 195 -8 147.5 24.5 c 128,-1,27
 100 57 100 57 74.5 107 c 128,-1,28
 49 157 49 157 46 218 c 128,-1,29
 43 279 43 279 60 338 c 128,-1,30
 77 397 77 397 113 448.5 c 128,-1,31
 149 500 149 500 203 531 c 0,32,33
 228 546 228 546 253 553 c 128,-1,34
 278 560 278 560 303.5 562.5 c 128,-1,35
 329 565 329 565 355 564.5 c 128,-1,36
 381 564 381 564 409 564 c 1,0,1
397 374 m 1,37,38
 356 381 356 381 323 366.5 c 128,-1,39
 290 352 290 352 267.5 326 c 128,-1,40
 245 300 245 300 234 269 c 128,-1,41
 223 238 223 238 226 212.5 c 128,-1,42
 229 187 229 187 247 173 c 128,-1,43
 265 159 265 159 300 167 c 0,44,45
 325 173 325 173 349 181.5 c 128,-1,46
 373 190 373 190 397 198 c 1,47,-1
 397 374 l 1,37,38
EndSplineSet
Validated: 33
EndChar

StartChar: c
Encoding: 99 99 80
Width: 650
GlyphClass: 1
Flags: W
LayerCount: 2
Fore
SplineSet
326 -10 m 0,0,1
 241 -11 241 -11 183 18.5 c 128,-1,2
 125 48 125 48 91.5 97 c 128,-1,3
 58 146 58 146 47.5 208.5 c 128,-1,4
 37 271 37 271 47 336.5 c 128,-1,5
 57 402 57 402 87.5 464 c 128,-1,6
 118 526 118 526 166 573 c 0,7,8
 211 617 211 617 266 635 c 128,-1,9
 321 653 321 653 375.5 650.5 c 128,-1,10
 430 648 430 648 478 628.5 c 128,-1,11
 526 609 526 609 556.5 580 c 128,-1,12
 587 551 587 551 594 516 c 128,-1,13
 601 481 601 481 575 446 c 0,14,15
 552 417 552 417 517.5 412 c 128,-1,16
 483 407 483 407 451 424 c 0,17,18
 443 428 443 428 436.5 433 c 128,-1,19
 430 438 430 438 423 443 c 0,20,21
 398 460 398 460 375.5 459.5 c 128,-1,22
 353 459 353 459 333.5 445.5 c 128,-1,23
 314 432 314 432 298 409.5 c 128,-1,24
 282 387 282 387 269.5 362 c 128,-1,25
 257 337 257 337 249 311.5 c 128,-1,26
 241 286 241 286 238 267 c 0,27,28
 235 246 235 246 239.5 228 c 128,-1,29
 244 210 244 210 255.5 198 c 128,-1,30
 267 186 267 186 284.5 181 c 128,-1,31
 302 176 302 176 324 180 c 0,32,33
 342 183 342 183 367.5 191.5 c 128,-1,34
 393 200 393 200 421.5 208.5 c 128,-1,35
 450 217 450 217 478.5 223 c 128,-1,36
 507 229 507 229 532 228 c 128,-1,37
 557 227 557 227 576 216 c 128,-1,38
 595 205 595 205 603 179 c 0,39,40
 612 149 612 149 601.5 123 c 128,-1,41
 591 97 591 97 567.5 76.5 c 128,-1,42
 544 56 544 56 511.5 39.5 c 128,-1,43
 479 23 479 23 445 12.5 c 128,-1,44
 411 2 411 2 379.5 -4 c 128,-1,45
 348 -10 348 -10 326 -10 c 0,0,1
EndSplineSet
Validated: 33
EndChar

StartChar: b
Encoding: 98 98 81
Width: 645
GlyphClass: 1
Flags: W
LayerCount: 2
Fore
SplineSet
226 570 m 1,0,-1
 266 584 l 2,1,2
 321 603 321 603 369.5 597.5 c 128,-1,3
 418 592 418 592 457.5 569 c 128,-1,4
 497 546 497 546 527 509 c 128,-1,5
 557 472 557 472 575 426.5 c 128,-1,6
 593 381 593 381 599 330.5 c 128,-1,7
 605 280 605 280 596 231 c 0,8,9
 586 174 586 174 555 128 c 128,-1,10
 524 82 524 82 479 51.5 c 128,-1,11
 434 21 434 21 380 8.5 c 128,-1,12
 326 -4 326 -4 269 5 c 0,13,14
 257 7 257 7 240.5 11.5 c 128,-1,15
 224 16 224 16 207.5 21 c 128,-1,16
 191 26 191 26 176 30 c 128,-1,17
 161 34 161 34 152 34 c 0,18,19
 125 34 125 34 107 48.5 c 128,-1,20
 89 63 89 63 78 86 c 0,21,22
 65 112 65 112 57.5 164 c 128,-1,23
 50 216 50 216 47 280.5 c 128,-1,24
 44 345 44 345 46 415.5 c 128,-1,25
 48 486 48 486 54 549.5 c 128,-1,26
 60 613 60 613 71 663 c 128,-1,27
 82 713 82 713 96 737 c 0,28,29
 110 760 110 760 130 771 c 128,-1,30
 150 782 150 782 177 777 c 0,31,32
 214 771 214 771 228 747.5 c 128,-1,33
 242 724 242 724 243 692.5 c 128,-1,34
 244 661 244 661 237.5 627.5 c 128,-1,35
 231 594 231 594 226 570 c 1,0,-1
215 217 m 1,36,37
 263 193 263 193 305 201.5 c 128,-1,38
 347 210 347 210 373.5 239 c 128,-1,39
 400 268 400 268 406 311.5 c 128,-1,40
 412 355 412 355 389 402 c 0,41,42
 378 424 378 424 360.5 432.5 c 128,-1,43
 343 441 343 441 323.5 439 c 128,-1,44
 304 437 304 437 284 426.5 c 128,-1,45
 264 416 264 416 248 400 c 128,-1,46
 232 384 232 384 221.5 365.5 c 128,-1,47
 211 347 211 347 210 329 c 0,48,49
 208 301 208 301 210.5 273 c 128,-1,50
 213 245 213 245 215 217 c 1,36,37
EndSplineSet
Validated: 33
EndChar

StartChar: a
Encoding: 97 97 82
Width: 579
GlyphClass: 1
Flags: W
LayerCount: 2
Fore
SplineSet
378 57 m 1,0,1
 351 46 351 46 324 33.5 c 128,-1,2
 297 21 297 21 268 13 c 0,3,4
 238 4 238 4 208 5.5 c 128,-1,5
 178 7 178 7 149 16 c 0,6,7
 102 31 102 31 77 62.5 c 128,-1,8
 52 94 52 94 46 133.5 c 128,-1,9
 40 173 40 173 51.5 216 c 128,-1,10
 63 259 63 259 89 297 c 128,-1,11
 115 335 115 335 155 363.5 c 128,-1,12
 195 392 195 392 246 402 c 0,13,14
 269 407 269 407 293 408.5 c 128,-1,15
 317 410 317 410 340 412 c 1,16,17
 334 439 334 439 317 445 c 128,-1,18
 300 451 300 451 277 446.5 c 128,-1,19
 254 442 254 442 227.5 432.5 c 128,-1,20
 201 423 201 423 176 419 c 128,-1,21
 151 415 151 415 129 422 c 128,-1,22
 107 429 107 429 94 457 c 0,23,24
 80 485 80 485 88.5 509.5 c 128,-1,25
 97 534 97 534 120 552.5 c 128,-1,26
 143 571 143 571 176 584.5 c 128,-1,27
 209 598 209 598 245.5 604 c 128,-1,28
 282 610 282 610 317.5 609 c 128,-1,29
 353 608 353 608 380 598 c 0,30,31
 437 578 437 578 464 540.5 c 128,-1,32
 491 503 491 503 501.5 456 c 128,-1,33
 512 409 512 409 513 357.5 c 128,-1,34
 514 306 514 306 517 259 c 0,35,36
 518 237 518 237 524 204.5 c 128,-1,37
 530 172 530 172 532 139.5 c 128,-1,38
 534 107 534 107 529 78.5 c 128,-1,39
 524 50 524 50 505 36 c 0,40,41
 488 23 488 23 471.5 20.5 c 128,-1,42
 455 18 455 18 439 22.5 c 128,-1,43
 423 27 423 27 408 36.5 c 128,-1,44
 393 46 393 46 378 57 c 1,0,1
340 181 m 1,45,46
 339 181 339 181 339 188.5 c 128,-1,47
 339 196 339 196 339.5 207.5 c 128,-1,48
 340 219 340 219 340 231.5 c 128,-1,49
 340 244 340 244 339 253 c 0,50,51
 338 264 338 264 333.5 265 c 128,-1,52
 329 266 329 266 328 266 c 0,53,54
 295 259 295 259 268.5 242 c 128,-1,55
 242 225 242 225 225.5 205 c 128,-1,56
 209 185 209 185 204.5 167 c 128,-1,57
 200 149 200 149 212 142 c 128,-1,58
 224 135 224 135 255 142.5 c 128,-1,59
 286 150 286 150 340 181 c 1,45,46
EndSplineSet
Validated: 33
EndChar

StartChar: grave
Encoding: 96 96 83
Width: 387
GlyphClass: 1
Flags: W
LayerCount: 2
Fore
SplineSet
323 579 m 4,0,1
 321 543 321 543 296.5 534.5 c 132,-1,2
 272 526 272 526 238 536 c 132,-1,3
 204 546 204 546 167 570 c 132,-1,4
 130 594 130 594 105 623.5 c 132,-1,5
 80 653 80 653 73 683.5 c 132,-1,6
 66 714 66 714 91 737 c 4,7,8
 112 756 112 756 139.5 748 c 132,-1,9
 167 740 167 740 194 720 c 132,-1,10
 221 700 221 700 245.5 675 c 132,-1,11
 270 650 270 650 287 637 c 4,12,13
 301 626 301 626 312.5 612.5 c 132,-1,14
 324 599 324 599 323 579 c 4,0,1
EndSplineSet
Validated: 33
EndChar

StartChar: dollar
Encoding: 36 36 84
Width: 632
GlyphClass: 1
Flags: W
LayerCount: 2
Fore
SplineSet
379 87 m 1,0,1
 381 66 381 66 383 44.5 c 128,-1,2
 385 23 385 23 385 2 c 0,3,4
 385 -15 385 -15 379 -29.5 c 128,-1,5
 373 -44 373 -44 354 -50 c 0,6,7
 328 -58 328 -58 312 -44.5 c 128,-1,8
 296 -31 296 -31 286.5 -9 c 128,-1,9
 277 13 277 13 272.5 37.5 c 128,-1,10
 268 62 268 62 265 77 c 1,11,12
 242 74 242 74 218 71 c 128,-1,13
 194 68 194 68 172 69 c 0,14,15
 127 70 127 70 102.5 94 c 128,-1,16
 78 118 78 118 75 148.5 c 128,-1,17
 72 179 72 179 91.5 207 c 128,-1,18
 111 235 111 235 154 244 c 0,19,20
 180 249 180 249 208 250.5 c 128,-1,21
 236 252 236 252 263 254 c 1,22,-1
 263 302 l 1,23,24
 234 305 234 305 205.5 308 c 128,-1,25
 177 311 177 311 151 322 c 0,26,27
 99 341 99 341 74 370.5 c 128,-1,28
 49 400 49 400 45 433.5 c 128,-1,29
 41 467 41 467 55 502 c 128,-1,30
 69 537 69 537 95.5 567.5 c 128,-1,31
 122 598 122 598 159 621 c 128,-1,32
 196 644 196 644 238 654 c 2,33,-1
 277 663 l 1,34,35
 279 676 279 676 281 702.5 c 128,-1,36
 283 729 283 729 289.5 753.5 c 128,-1,37
 296 778 296 778 310 793.5 c 128,-1,38
 324 809 324 809 349 801 c 0,39,40
 365 796 365 796 370.5 779.5 c 128,-1,41
 376 763 376 763 375.5 742.5 c 128,-1,42
 375 722 375 722 371.5 701.5 c 128,-1,43
 368 681 368 681 367 668 c 1,44,45
 388 664 388 664 419.5 658.5 c 128,-1,46
 451 653 451 653 479.5 641.5 c 128,-1,47
 508 630 508 630 526 611.5 c 128,-1,48
 544 593 544 593 538 563 c 0,49,50
 536 552 536 552 531.5 540 c 128,-1,51
 527 528 527 528 520 517.5 c 128,-1,52
 513 507 513 507 504 499.5 c 128,-1,53
 495 492 495 492 484 489 c 0,54,55
 470 486 470 486 455 488 c 128,-1,56
 440 490 440 490 424 492.5 c 128,-1,57
 408 495 408 495 392.5 497.5 c 128,-1,58
 377 500 377 500 363 499 c 1,59,-1
 363 450 l 1,60,-1
 422 442 l 2,61,62
 472 435 472 435 508 411 c 128,-1,63
 544 387 544 387 564 354.5 c 128,-1,64
 584 322 584 322 588.5 284.5 c 128,-1,65
 593 247 593 247 580.5 212 c 128,-1,66
 568 177 568 177 538 149 c 128,-1,67
 508 121 508 121 461 107 c 0,68,69
 441 101 441 101 420 96.5 c 128,-1,70
 399 92 399 92 379 87 c 1,0,1
268 486 m 1,71,72
 238 487 238 487 222 483 c 0,73,74
 215 481 215 481 209.5 473.5 c 128,-1,75
 204 466 204 466 206 458 c 128,-1,76
 208 450 208 450 221 445 c 128,-1,77
 234 440 234 440 265 443 c 1,78,-1
 268 486 l 1,71,72
371 266 m 1,79,80
 396 268 396 268 405.5 274 c 128,-1,81
 415 280 415 280 413.5 286.5 c 128,-1,82
 412 293 412 293 400 298 c 128,-1,83
 388 303 388 303 369 303 c 1,84,-1
 371 266 l 1,79,80
EndSplineSet
Validated: 33
EndChar

StartChar: Euro
Encoding: 8364 8364 85
Width: 697
GlyphClass: 1
Flags: W
LayerCount: 2
Fore
SplineSet
347 506 m 1,0,1
 362 507 362 507 390 511 c 128,-1,2
 418 515 418 515 446.5 516.5 c 128,-1,3
 475 518 475 518 498.5 514 c 128,-1,4
 522 510 522 510 527 494 c 0,5,6
 533 474 533 474 523 462.5 c 128,-1,7
 513 451 513 451 493 446 c 0,8,9
 451 435 451 435 408 428 c 128,-1,10
 365 421 365 421 323 413 c 1,11,-1
 321 382 l 1,12,13
 364 377 364 377 407.5 382 c 128,-1,14
 451 387 451 387 495 386 c 0,15,16
 518 386 518 386 531.5 374.5 c 128,-1,17
 545 363 545 363 547.5 348.5 c 128,-1,18
 550 334 550 334 541.5 320 c 128,-1,19
 533 306 533 306 513 299 c 0,20,21
 471 285 471 285 421.5 278.5 c 128,-1,22
 372 272 372 272 327 267 c 1,23,24
 332 243 332 243 348 216 c 128,-1,25
 364 189 364 189 386.5 171.5 c 128,-1,26
 409 154 409 154 437 150.5 c 128,-1,27
 465 147 465 147 494 170 c 0,28,29
 508 181 508 181 520 192.5 c 128,-1,30
 532 204 532 204 546 215 c 0,31,32
 570 235 570 235 593 237.5 c 128,-1,33
 616 240 616 240 632 230 c 128,-1,34
 648 220 648 220 653.5 199.5 c 128,-1,35
 659 179 659 179 648 154 c 0,36,37
 620 88 620 88 577 50.5 c 128,-1,38
 534 13 534 13 484.5 0.5 c 128,-1,39
 435 -12 435 -12 382.5 -1.5 c 128,-1,40
 330 9 330 9 283.5 39 c 128,-1,41
 237 69 237 69 199.5 116.5 c 128,-1,42
 162 164 162 164 142 225 c 0,43,44
 140 232 140 232 137 242 c 128,-1,45
 134 252 134 252 129 257 c 0,46,47
 114 261 114 261 98 265.5 c 128,-1,48
 82 270 82 270 69 277.5 c 128,-1,49
 56 285 56 285 48.5 296.5 c 128,-1,50
 41 308 41 308 43 326 c 0,51,52
 46 345 46 345 56 353 c 128,-1,53
 66 361 66 361 79.5 366 c 128,-1,54
 93 371 93 371 107.5 375.5 c 128,-1,55
 122 380 122 380 132 391 c 1,56,57
 118 394 118 394 101 397 c 128,-1,58
 84 400 84 400 69 405.5 c 128,-1,59
 54 411 54 411 44 421 c 128,-1,60
 34 431 34 431 35 448 c 0,61,62
 37 479 37 479 71 487 c 0,63,64
 90 492 90 492 109 493 c 128,-1,65
 128 494 128 494 147 497 c 1,66,67
 158 527 158 527 170.5 558 c 128,-1,68
 183 589 183 589 200 616 c 0,69,70
 227 661 227 661 271.5 691 c 128,-1,71
 316 721 316 721 367 735 c 128,-1,72
 418 749 418 749 469.5 747.5 c 128,-1,73
 521 746 521 746 563 729.5 c 128,-1,74
 605 713 605 713 632 680.5 c 128,-1,75
 659 648 659 648 660 600 c 0,76,77
 660 578 660 578 649 562 c 128,-1,78
 638 546 638 546 621 538.5 c 128,-1,79
 604 531 604 531 584 533.5 c 128,-1,80
 564 536 564 536 547 551 c 0,81,82
 521 573 521 573 490.5 581 c 128,-1,83
 460 589 460 589 431.5 583 c 128,-1,84
 403 577 403 577 380 557.5 c 128,-1,85
 357 538 357 538 347 506 c 1,0,1
EndSplineSet
Validated: 33
EndChar

StartChar: yen
Encoding: 165 165 86
Width: 716
GlyphClass: 1
Flags: W
LayerCount: 2
Fore
SplineSet
244 241 m 1,0,-1
 258 278 l 1,1,2
 223 278 223 278 185.5 277.5 c 128,-1,3
 148 277 148 277 114 289 c 0,4,5
 95 295 95 295 85 308.5 c 128,-1,6
 75 322 75 322 78 339 c 0,7,8
 81 359 81 359 98 369 c 128,-1,9
 115 379 115 379 137.5 383 c 128,-1,10
 160 387 160 387 184.5 387 c 128,-1,11
 209 387 209 387 227 387 c 1,12,13
 199 416 199 416 169.5 450 c 128,-1,14
 140 484 140 484 116 521 c 128,-1,15
 92 558 92 558 77.5 597.5 c 128,-1,16
 63 637 63 637 66 676 c 0,17,18
 68 700 68 700 83 718.5 c 128,-1,19
 98 737 98 737 119 744.5 c 128,-1,20
 140 752 140 752 163 747 c 128,-1,21
 186 742 186 742 204 720 c 0,22,23
 225 694 225 694 242.5 663.5 c 128,-1,24
 260 633 260 633 277 601 c 128,-1,25
 294 569 294 569 312 537.5 c 128,-1,26
 330 506 330 506 351 478 c 1,27,28
 361 492 361 492 378.5 521 c 128,-1,29
 396 550 396 550 417.5 584.5 c 128,-1,30
 439 619 439 619 464.5 653.5 c 128,-1,31
 490 688 490 688 517 713 c 128,-1,32
 544 738 544 738 572 749 c 128,-1,33
 600 760 600 760 626 747 c 0,34,35
 646 736 646 736 655 718.5 c 128,-1,36
 664 701 664 701 659 681 c 0,37,38
 652 656 652 656 632.5 619 c 128,-1,39
 613 582 613 582 590 542.5 c 128,-1,40
 567 503 567 503 544.5 465 c 128,-1,41
 522 427 522 427 509 400 c 1,42,43
 537 400 537 400 566 400.5 c 128,-1,44
 595 401 595 401 623 399 c 0,45,46
 645 397 645 397 658 387 c 128,-1,47
 671 377 671 377 674 364.5 c 128,-1,48
 677 352 677 352 668.5 338.5 c 128,-1,49
 660 325 660 325 639 318 c 0,50,51
 598 304 598 304 550.5 301.5 c 128,-1,52
 503 299 503 299 459 296 c 1,53,54
 453 284 453 284 448 272.5 c 128,-1,55
 443 261 443 261 437 249 c 1,56,57
 449 249 449 249 470.5 250 c 128,-1,58
 492 251 492 251 516.5 251.5 c 128,-1,59
 541 252 541 252 566.5 250.5 c 128,-1,60
 592 249 592 249 613.5 244 c 128,-1,61
 635 239 635 239 649 229 c 128,-1,62
 663 219 663 219 664 202 c 0,63,64
 665 183 665 183 649 171 c 128,-1,65
 633 159 633 159 606 152 c 128,-1,66
 579 145 579 145 546 142.5 c 128,-1,67
 513 140 513 140 481 139.5 c 128,-1,68
 449 139 449 139 421.5 139.5 c 128,-1,69
 394 140 394 140 379 140 c 1,70,71
 370 124 370 124 356 94 c 128,-1,72
 342 64 342 64 323.5 36 c 128,-1,73
 305 8 305 8 281 -10 c 128,-1,74
 257 -28 257 -28 228 -19 c 0,75,76
 205 -12 205 -12 196.5 6.5 c 128,-1,77
 188 25 188 25 188 48 c 128,-1,78
 188 71 188 71 193.5 94 c 128,-1,79
 199 117 199 117 204 132 c 1,80,81
 135 132 135 132 103 147 c 128,-1,82
 71 162 71 162 65.5 180.5 c 128,-1,83
 60 199 60 199 77.5 215.5 c 128,-1,84
 95 232 95 232 125 235 c 0,85,86
 155 237 155 237 185 238 c 128,-1,87
 215 239 215 239 244 241 c 1,0,-1
EndSplineSet
Validated: 33
EndChar

StartChar: cent
Encoding: 162 162 87
Width: 729
GlyphClass: 1
Flags: W
LayerCount: 2
Fore
SplineSet
446 645 m 1,0,-1
 484 635 l 2,1,2
 501 631 501 631 526 619.5 c 128,-1,3
 551 608 551 608 576.5 591.5 c 128,-1,4
 602 575 602 575 624.5 554.5 c 128,-1,5
 647 534 647 534 659.5 512 c 128,-1,6
 672 490 672 490 670.5 467.5 c 128,-1,7
 669 445 669 445 647 424 c 0,8,9
 627 405 627 405 601 408 c 128,-1,10
 575 411 575 411 546.5 422.5 c 128,-1,11
 518 434 518 434 487 445.5 c 128,-1,12
 456 457 456 457 426 455 c 1,13,-1
 415 277 l 1,14,15
 455 277 455 277 492 284 c 128,-1,16
 529 291 529 291 568 296 c 0,17,18
 587 298 587 298 602.5 292 c 128,-1,19
 618 286 618 286 628 274 c 128,-1,20
 638 262 638 262 642 246 c 128,-1,21
 646 230 646 230 642 212 c 0,22,23
 635 182 635 182 608.5 162.5 c 128,-1,24
 582 143 582 143 548 129.5 c 128,-1,25
 514 116 514 116 478.5 106.5 c 128,-1,26
 443 97 443 97 418 88 c 1,27,28
 417 70 417 70 423 50.5 c 128,-1,29
 429 31 429 31 434.5 12 c 128,-1,30
 440 -7 440 -7 441 -23 c 128,-1,31
 442 -39 442 -39 430 -50 c 0,32,33
 412 -66 412 -66 396.5 -65.5 c 128,-1,34
 381 -65 381 -65 368.5 -53.5 c 128,-1,35
 356 -42 356 -42 345.5 -23.5 c 128,-1,36
 335 -5 335 -5 327 15.5 c 128,-1,37
 319 36 319 36 314 54.5 c 128,-1,38
 309 73 309 73 307 83 c 1,39,40
 287 88 287 88 268 91 c 128,-1,41
 249 94 249 94 230 100 c 0,42,43
 171 118 171 118 133 152 c 128,-1,44
 95 186 95 186 76 228 c 128,-1,45
 57 270 57 270 56 318 c 128,-1,46
 55 366 55 366 71 412 c 128,-1,47
 87 458 87 458 118.5 499 c 128,-1,48
 150 540 150 540 195 570 c 0,49,50
 224 589 224 589 255.5 604 c 128,-1,51
 287 619 287 619 318 636 c 1,52,53
 320 647 320 647 322.5 663.5 c 128,-1,54
 325 680 325 680 328.5 697 c 128,-1,55
 332 714 332 714 336 729.5 c 128,-1,56
 340 745 340 745 345 754 c 0,57,58
 353 768 353 768 366 777 c 128,-1,59
 379 786 379 786 396 785 c 0,60,61
 421 783 421 783 433 767.5 c 128,-1,62
 445 752 445 752 448 730.5 c 128,-1,63
 451 709 451 709 449 685.5 c 128,-1,64
 447 662 447 662 446 645 c 1,0,-1
292 414 m 1,65,66
 273 402 273 402 259.5 384 c 128,-1,67
 246 366 246 366 242 347 c 128,-1,68
 238 328 238 328 245.5 310.5 c 128,-1,69
 253 293 253 293 277 283 c 0,70,71
 279 282 279 282 280.5 302.5 c 128,-1,72
 282 323 282 323 284 348 c 128,-1,73
 286 373 286 373 288 393.5 c 128,-1,74
 290 414 290 414 292 414 c 1,65,66
EndSplineSet
Validated: 37
EndChar

StartChar: sterling
Encoding: 163 163 88
Width: 768
GlyphClass: 1
Flags: W
LayerCount: 2
Fore
SplineSet
206 240 m 1,0,1
 192 243 192 243 177.5 244.5 c 128,-1,2
 163 246 163 246 149 250 c 0,3,4
 120 257 120 257 106 273 c 128,-1,5
 92 289 92 289 92 306.5 c 128,-1,6
 92 324 92 324 106 339.5 c 128,-1,7
 120 355 120 355 149 361 c 2,8,-1
 186 368 l 1,9,10
 184 427 184 427 184 486 c 128,-1,11
 184 545 184 545 204 602 c 0,12,13
 224 658 224 658 261.5 693 c 128,-1,14
 299 728 299 728 345 743.5 c 128,-1,15
 391 759 391 759 440.5 756 c 128,-1,16
 490 753 490 753 533 733 c 128,-1,17
 576 713 576 713 608 677 c 128,-1,18
 640 641 640 641 652 590 c 0,19,20
 662 551 662 551 645.5 517 c 128,-1,21
 629 483 629 483 602 465 c 128,-1,22
 575 447 575 447 545 451 c 128,-1,23
 515 455 515 455 496 491 c 0,24,25
 485 512 485 512 468.5 537 c 128,-1,26
 452 562 452 562 435 572.5 c 128,-1,27
 418 583 418 583 403 569 c 128,-1,28
 388 555 388 555 379 499 c 0,29,30
 376 481 376 481 374.5 462 c 128,-1,31
 373 443 373 443 373 426.5 c 128,-1,32
 373 410 373 410 373 396.5 c 128,-1,33
 373 383 373 383 373 376 c 1,34,35
 414 372 414 372 457 370.5 c 128,-1,36
 500 369 500 369 539 360 c 0,37,38
 559 355 559 355 573.5 343.5 c 128,-1,39
 588 332 588 332 588 313 c 0,40,41
 589 297 589 297 578.5 286.5 c 128,-1,42
 568 276 568 276 550.5 269.5 c 128,-1,43
 533 263 533 263 511 259.5 c 128,-1,44
 489 256 489 256 467 254.5 c 128,-1,45
 445 253 445 253 425.5 253 c 128,-1,46
 406 253 406 253 393 252 c 1,47,48
 391 230 391 230 389.5 209 c 128,-1,49
 388 188 388 188 386 166 c 1,50,-1
 391 161 l 1,51,52
 436 159 436 159 476.5 146.5 c 128,-1,53
 517 134 517 134 561 126 c 0,54,55
 580 122 580 122 603 124 c 128,-1,56
 626 126 626 126 648.5 126.5 c 128,-1,57
 671 127 671 127 690.5 122.5 c 128,-1,58
 710 118 710 118 722 100 c 0,59,60
 742 66 742 66 718 38 c 0,61,62
 697 13 697 13 668 -2 c 128,-1,63
 639 -17 639 -17 603 -19 c 0,64,65
 563 -22 563 -22 530.5 -14.5 c 128,-1,66
 498 -7 498 -7 467 2 c 128,-1,67
 436 11 436 11 405 18.5 c 128,-1,68
 374 26 374 26 338 23 c 0,69,70
 306 20 306 20 275.5 4.5 c 128,-1,71
 245 -11 245 -11 214.5 -25.5 c 128,-1,72
 184 -40 184 -40 153 -47 c 128,-1,73
 122 -54 122 -54 90 -39 c 0,74,75
 54 -22 54 -22 44.5 0.5 c 128,-1,76
 35 23 35 23 44.5 45.5 c 128,-1,77
 54 68 54 68 78.5 87.5 c 128,-1,78
 103 107 103 107 133 118 c 0,79,80
 183 136 183 136 199 165 c 128,-1,81
 215 194 215 194 206 240 c 1,0,1
EndSplineSet
Validated: 33
EndChar

StartChar: currency
Encoding: 164 164 89
Width: 710
GlyphClass: 1
Flags: W
LayerCount: 2
Fore
SplineSet
136 479 m 1,0,1
 122 491 122 491 106.5 502 c 128,-1,2
 91 513 91 513 77 526 c 0,3,4
 65 537 65 537 59.5 552.5 c 128,-1,5
 54 568 54 568 56 581.5 c 128,-1,6
 58 595 58 595 67.5 605 c 128,-1,7
 77 615 77 615 95 615 c 128,-1,8
 113 615 113 615 139.5 602.5 c 128,-1,9
 166 590 166 590 202 559 c 1,10,11
 226 582 226 582 262.5 599 c 128,-1,12
 299 616 299 616 339.5 623 c 128,-1,13
 380 630 380 630 419.5 626 c 128,-1,14
 459 622 459 622 488 604 c 2,15,-1
 512 589 l 1,16,17
 555 623 555 623 587.5 629 c 128,-1,18
 620 635 620 635 638.5 623.5 c 128,-1,19
 657 612 657 612 660.5 589.5 c 128,-1,20
 664 567 664 567 650 545 c 0,21,22
 637 525 637 525 621 508 c 128,-1,23
 605 491 605 491 590 474 c 1,24,25
 606 408 606 408 590.5 346 c 128,-1,26
 575 284 575 284 535 230 c 1,27,28
 555 214 555 214 579 196 c 128,-1,29
 603 178 603 178 618 157 c 256,30,31
 633 136 633 136 632 115.5 c 128,-1,32
 631 95 631 95 618.5 82.5 c 128,-1,33
 606 70 606 70 585.5 68.5 c 128,-1,34
 565 67 565 67 543 82 c 0,35,36
 520 98 520 98 498.5 118 c 128,-1,37
 477 138 477 138 454 155 c 1,38,39
 394 120 394 120 333.5 123.5 c 128,-1,40
 273 127 273 127 213 157 c 1,41,42
 198 140 198 140 183 123.5 c 128,-1,43
 168 107 168 107 148 96 c 0,44,45
 130 87 130 87 113.5 90 c 128,-1,46
 97 93 97 93 86 104.5 c 128,-1,47
 75 116 75 116 72.5 132.5 c 128,-1,48
 70 149 70 149 81 166 c 0,49,50
 91 182 91 182 103.5 196 c 128,-1,51
 116 210 116 210 128 224 c 1,52,53
 108 255 108 255 102 287 c 128,-1,54
 96 319 96 319 99.5 351 c 128,-1,55
 103 383 103 383 113 415 c 128,-1,56
 123 447 123 447 136 479 c 1,0,1
419 308 m 0,57,58
 433 322 433 322 444 339.5 c 128,-1,59
 455 357 455 357 460 375 c 128,-1,60
 465 393 465 393 462.5 410 c 128,-1,61
 460 427 460 427 448 441 c 0,62,63
 424 468 424 468 395.5 467 c 128,-1,64
 367 466 367 466 339 446 c 0,65,66
 306 422 306 422 291 395 c 128,-1,67
 276 368 276 368 275.5 343.5 c 128,-1,68
 275 319 275 319 287 300.5 c 128,-1,69
 299 282 299 282 319 275 c 128,-1,70
 339 268 339 268 365 274.5 c 128,-1,71
 391 281 391 281 419 308 c 0,57,58
EndSplineSet
Validated: 33
EndChar

StartChar: multiply
Encoding: 215 215 90
Width: 512
GlyphClass: 1
Flags: W
LayerCount: 2
Fore
SplineSet
231 419 m 1,0,1
 244 430 244 430 253.5 437.5 c 128,-1,2
 263 445 263 445 272 451.5 c 128,-1,3
 281 458 281 458 290.5 465 c 128,-1,4
 300 472 300 472 314 483 c 0,5,6
 341 504 341 504 363 505 c 128,-1,7
 385 506 385 506 395.5 494 c 128,-1,8
 406 482 406 482 402.5 460 c 128,-1,9
 399 438 399 438 374 413 c 0,10,11
 364 402 364 402 357.5 395.5 c 128,-1,12
 351 389 351 389 345 383 c 128,-1,13
 339 377 339 377 332 370 c 128,-1,14
 325 363 325 363 315 353 c 1,15,16
 344 331 344 331 373 311 c 128,-1,17
 402 291 402 291 431 268 c 0,18,19
 454 250 454 250 458.5 229 c 128,-1,20
 463 208 463 208 454 192 c 128,-1,21
 445 176 445 176 425 168.5 c 128,-1,22
 405 161 405 161 379 170 c 0,23,24
 338 184 338 184 300 205.5 c 128,-1,25
 262 227 262 227 224 247 c 1,26,27
 201 221 201 221 178.5 192.5 c 128,-1,28
 156 164 156 164 125 147 c 0,29,30
 108 137 108 137 91.5 140.5 c 128,-1,31
 75 144 75 144 64.5 155 c 128,-1,32
 54 166 54 166 52 183.5 c 128,-1,33
 50 201 50 201 61 219 c 0,34,35
 76 244 76 244 94 267.5 c 128,-1,36
 112 291 112 291 129 314 c 1,37,38
 116 324 116 324 99 336 c 128,-1,39
 82 348 82 348 67.5 362.5 c 128,-1,40
 53 377 53 377 46.5 393.5 c 128,-1,41
 40 410 40 410 48 430 c 0,42,43
 58 453 58 453 80 460.5 c 128,-1,44
 102 468 102 468 125 461 c 0,45,46
 153 453 153 453 179 441.5 c 128,-1,47
 205 430 205 430 231 419 c 1,0,1
EndSplineSet
Validated: 33
EndChar

StartChar: divide
Encoding: 247 247 91
Width: 581
GlyphClass: 1
Flags: W
LayerCount: 2
Fore
SplineSet
211 371 m 0,0,1
 226 371 226 371 258.5 372.5 c 128,-1,2
 291 374 291 374 329.5 374.5 c 128,-1,3
 368 375 368 375 408 372 c 128,-1,4
 448 369 448 369 478 359.5 c 128,-1,5
 508 350 508 350 523 332.5 c 128,-1,6
 538 315 538 315 527 286 c 0,7,8
 519 266 519 266 491.5 254.5 c 128,-1,9
 464 243 464 243 430.5 236.5 c 128,-1,10
 397 230 397 230 363 227.5 c 128,-1,11
 329 225 329 225 310 223 c 0,12,13
 284 220 284 220 253 218.5 c 128,-1,14
 222 217 222 217 190.5 219.5 c 128,-1,15
 159 222 159 222 129.5 229 c 128,-1,16
 100 236 100 236 78 250 c 0,17,18
 59 262 59 262 52 282 c 128,-1,19
 45 302 45 302 50 321 c 128,-1,20
 55 340 55 340 70.5 354.5 c 128,-1,21
 86 369 86 369 112 371 c 0,22,23
 137 373 137 373 161.5 372.5 c 128,-1,24
 186 372 186 372 211 371 c 0,0,1
346 483 m 256,25,26
 346 460 346 460 335 444 c 128,-1,27
 324 428 324 428 308 420 c 128,-1,28
 292 412 292 412 273.5 412 c 128,-1,29
 255 412 255 412 239 419.5 c 128,-1,30
 223 427 223 427 212.5 443 c 128,-1,31
 202 459 202 459 203 483 c 0,32,33
 203 506 203 506 214 522 c 128,-1,34
 225 538 225 538 241 545.5 c 128,-1,35
 257 553 257 553 275.5 553 c 128,-1,36
 294 553 294 553 310 545 c 128,-1,37
 326 537 326 537 336 521.5 c 128,-1,38
 346 506 346 506 346 483 c 256,25,26
266 56 m 0,39,40
 233 56 233 56 217.5 76.5 c 128,-1,41
 202 97 202 97 203 121.5 c 128,-1,42
 204 146 204 146 221.5 166.5 c 128,-1,43
 239 187 239 187 272 186 c 0,44,45
 293 185 293 185 307 175.5 c 128,-1,46
 321 166 321 166 327.5 151.5 c 128,-1,47
 334 137 334 137 333 120.5 c 128,-1,48
 332 104 332 104 324.5 89.5 c 128,-1,49
 317 75 317 75 302 65.5 c 128,-1,50
 287 56 287 56 266 56 c 0,39,40
EndSplineSet
Validated: 33
EndChar

StartChar: X
Encoding: 88 88 92
Width: 523
GlyphClass: 1
Flags: W
LayerCount: 2
Fore
SplineSet
223 169 m 1,0,1
 214 148 214 148 200.5 114 c 128,-1,2
 187 80 187 80 169 50.5 c 128,-1,3
 151 21 151 21 127.5 3 c 128,-1,4
 104 -15 104 -15 73 -5 c 0,5,6
 35 6 35 6 33 49 c 0,7,8
 33 76 33 76 42 111 c 128,-1,9
 51 146 51 146 64.5 182.5 c 128,-1,10
 78 219 78 219 93 253.5 c 128,-1,11
 108 288 108 288 119 314 c 0,12,13
 128 335 128 335 126.5 362.5 c 128,-1,14
 125 390 125 390 117.5 420.5 c 128,-1,15
 110 451 110 451 99 483.5 c 128,-1,16
 88 516 88 516 78.5 548 c 128,-1,17
 69 580 69 580 63 610.5 c 128,-1,18
 57 641 57 641 59 667 c 0,19,20
 61 689 61 689 74.5 706.5 c 128,-1,21
 88 724 88 724 106 732 c 128,-1,22
 124 740 124 740 144.5 738 c 128,-1,23
 165 736 165 736 180 721 c 0,24,25
 194 707 194 707 203.5 691 c 128,-1,26
 213 675 213 675 222 658 c 0,27,28
 233 639 233 639 241 620 c 128,-1,29
 249 601 249 601 258 581 c 1,30,31
 270 597 270 597 286 621 c 128,-1,32
 302 645 302 645 319 669.5 c 128,-1,33
 336 694 336 694 354 714.5 c 128,-1,34
 372 735 372 735 387 746 c 0,35,36
 408 761 408 761 428.5 760.5 c 128,-1,37
 449 760 449 760 464 749.5 c 128,-1,38
 479 739 479 739 484.5 720 c 128,-1,39
 490 701 490 701 480 678 c 0,40,41
 475 666 475 666 463.5 642 c 128,-1,42
 452 618 452 618 437 588.5 c 128,-1,43
 422 559 422 559 406 526.5 c 128,-1,44
 390 494 390 494 377 466.5 c 128,-1,45
 364 439 364 439 355 419 c 128,-1,46
 346 399 346 399 346 393 c 0,47,48
 345 379 345 379 354.5 351 c 128,-1,49
 364 323 364 323 379 287.5 c 128,-1,50
 394 252 394 252 411 212 c 128,-1,51
 428 172 428 172 442 135.5 c 128,-1,52
 456 99 456 99 464 69.5 c 128,-1,53
 472 40 472 40 470 24 c 0,54,55
 467 7 467 7 457 -5.5 c 128,-1,56
 447 -18 447 -18 432.5 -24.5 c 128,-1,57
 418 -31 418 -31 402 -31 c 128,-1,58
 386 -31 386 -31 372 -24 c 0,59,60
 354 -15 354 -15 333 9.5 c 128,-1,61
 312 34 312 34 291.5 63.5 c 128,-1,62
 271 93 271 93 253 122 c 128,-1,63
 235 151 235 151 223 169 c 1,0,1
EndSplineSet
Validated: 33
EndChar

StartChar: V
Encoding: 86 86 93
Width: 585
GlyphClass: 1
Flags: W
LayerCount: 2
Fore
SplineSet
314 210 m 1,0,1
 332 240 332 240 344 282 c 128,-1,2
 356 324 356 324 364.5 372.5 c 128,-1,3
 373 421 373 421 380 473 c 128,-1,4
 387 525 387 525 395 574 c 128,-1,5
 403 623 403 623 414.5 666.5 c 128,-1,6
 426 710 426 710 443 742 c 0,7,8
 456 767 456 767 476 775.5 c 128,-1,9
 496 784 496 784 514 779 c 128,-1,10
 532 774 532 774 545.5 756.5 c 128,-1,11
 559 739 559 739 559 713 c 0,12,13
 559 697 559 697 556 682 c 128,-1,14
 553 667 553 667 551 652 c 0,15,16
 546 618 546 618 539.5 571.5 c 128,-1,17
 533 525 533 525 525 472.5 c 128,-1,18
 517 420 517 420 508 364.5 c 128,-1,19
 499 309 499 309 488.5 258.5 c 128,-1,20
 478 208 478 208 466 165.5 c 128,-1,21
 454 123 454 123 441 96 c 0,22,23
 419 52 419 52 386.5 26.5 c 128,-1,24
 354 1 354 1 317 -4 c 128,-1,25
 280 -9 280 -9 242 6 c 128,-1,26
 204 21 204 21 171 57 c 0,27,28
 150 80 150 80 130 123 c 128,-1,29
 110 166 110 166 92.5 220.5 c 128,-1,30
 75 275 75 275 62 337 c 128,-1,31
 49 399 49 399 41.5 460.5 c 128,-1,32
 34 522 34 522 34 579 c 128,-1,33
 34 636 34 636 43.5 680 c 128,-1,34
 53 724 53 724 73 751 c 128,-1,35
 93 778 93 778 125 780 c 0,36,37
 179 781 179 781 201 729 c 0,38,39
 209 710 209 710 216.5 679 c 128,-1,40
 224 648 224 648 231 611 c 128,-1,41
 238 574 238 574 244.5 533.5 c 128,-1,42
 251 493 251 493 257 454.5 c 128,-1,43
 263 416 263 416 268.5 382 c 128,-1,44
 274 348 274 348 279 324 c 0,45,46
 284 295 284 295 294.5 267 c 128,-1,47
 305 239 305 239 314 210 c 1,0,1
EndSplineSet
Validated: 33
EndChar

StartChar: O
Encoding: 79 79 94
Width: 793
GlyphClass: 1
Flags: W
LayerCount: 2
Fore
SplineSet
743 425 m 0,0,1
 745 380 745 380 735 331.5 c 128,-1,2
 725 283 725 283 705.5 237 c 128,-1,3
 686 191 686 191 657.5 150.5 c 128,-1,4
 629 110 629 110 594 80 c 0,5,6
 527 21 527 21 450 4 c 128,-1,7
 373 -13 373 -13 301 5.5 c 128,-1,8
 229 24 229 24 169.5 76.5 c 128,-1,9
 110 129 110 129 78 209 c 0,10,11
 54 270 54 270 51 335.5 c 128,-1,12
 48 401 48 401 65 463 c 128,-1,13
 82 525 82 525 117 580.5 c 128,-1,14
 152 636 152 636 204 677 c 0,15,16
 262 723 262 723 324 742.5 c 128,-1,17
 386 762 386 762 444.5 758.5 c 128,-1,18
 503 755 503 755 556 730 c 128,-1,19
 609 705 609 705 649 662 c 128,-1,20
 689 619 689 619 714 558.5 c 128,-1,21
 739 498 739 498 743 425 c 0,0,1
578 395 m 0,22,23
 578 422 578 422 570.5 448 c 128,-1,24
 563 474 563 474 547 496 c 0,25,26
 508 551 508 551 465 565 c 128,-1,27
 422 579 422 579 383 563.5 c 128,-1,28
 344 548 344 548 312.5 510 c 128,-1,29
 281 472 281 472 263.5 422.5 c 128,-1,30
 246 373 246 373 246 318.5 c 128,-1,31
 246 264 246 264 271 216 c 0,32,33
 290 179 290 179 320.5 163 c 128,-1,34
 351 147 351 147 385 149 c 128,-1,35
 419 151 419 151 453.5 170 c 128,-1,36
 488 189 488 189 515.5 221 c 128,-1,37
 543 253 543 253 560.5 297.5 c 128,-1,38
 578 342 578 342 578 395 c 0,22,23
EndSplineSet
Validated: 33
EndChar

StartChar: F
Encoding: 70 70 95
Width: 607
GlyphClass: 1
Flags: W
LayerCount: 2
Fore
SplineSet
91 642 m 1,0,1
 81 649 81 649 70.5 654.5 c 128,-1,2
 60 660 60 660 51 668 c 0,3,4
 36 680 36 680 32.5 696 c 128,-1,5
 29 712 29 712 34.5 725.5 c 128,-1,6
 40 739 40 739 53.5 748.5 c 128,-1,7
 67 758 67 758 86 757 c 0,8,9
 106 756 106 756 125 752.5 c 128,-1,10
 144 749 144 749 164 746 c 0,11,12
 208 740 208 740 253.5 746 c 128,-1,13
 299 752 299 752 344.5 760 c 128,-1,14
 390 768 390 768 435 772.5 c 128,-1,15
 480 777 480 777 523 768 c 0,16,17
 552 762 552 762 566.5 736.5 c 128,-1,18
 581 711 581 711 575 683 c 128,-1,19
 569 655 569 655 538.5 632 c 128,-1,20
 508 609 508 609 447 606 c 0,21,22
 402 604 402 604 356.5 606.5 c 128,-1,23
 311 609 311 609 266 610 c 1,24,-1
 274 421 l 1,25,26
 313 421 313 421 358.5 426 c 128,-1,27
 404 431 404 431 443 428 c 0,28,29
 466 426 466 426 480.5 420 c 128,-1,30
 495 414 495 414 503 404 c 128,-1,31
 511 394 511 394 513.5 382 c 128,-1,32
 516 370 516 370 515 358 c 0,33,34
 513 332 513 332 495 309 c 128,-1,35
 477 286 477 286 437 281 c 0,36,37
 420 279 420 279 397.5 280.5 c 128,-1,38
 375 282 375 282 352 284 c 128,-1,39
 329 286 329 286 308 288.5 c 128,-1,40
 287 291 287 291 274 291 c 1,41,42
 269 245 269 245 269.5 193.5 c 128,-1,43
 270 142 270 142 263 98 c 128,-1,44
 256 54 256 54 237 24 c 128,-1,45
 218 -6 218 -6 176 -8 c 0,46,47
 160 -9 160 -9 143.5 -5.5 c 128,-1,48
 127 -2 127 -2 113.5 9.5 c 128,-1,49
 100 21 100 21 91.5 41.5 c 128,-1,50
 83 62 83 62 83 95 c 0,51,52
 83 152 83 152 86.5 217 c 128,-1,53
 90 282 90 282 93 352 c 128,-1,54
 96 422 96 422 96.5 495.5 c 128,-1,55
 97 569 97 569 91 642 c 1,0,1
EndSplineSet
Validated: 33
EndChar

StartChar: E
Encoding: 69 69 96
Width: 562
GlyphClass: 1
Flags: W
LayerCount: 2
Fore
SplineSet
227 604 m 1,0,-1
 227 435 l 1,1,2
 264 435 264 435 300.5 433.5 c 128,-1,3
 337 432 337 432 374 427 c 0,4,5
 413 421 413 421 424 383 c 0,6,7
 433 351 433 351 411.5 332.5 c 128,-1,8
 390 314 390 314 356.5 305 c 128,-1,9
 323 296 323 296 287 294 c 128,-1,10
 251 292 251 292 232 292 c 1,11,12
 230 257 230 257 231 222.5 c 128,-1,13
 232 188 232 188 236 153 c 1,14,15
 291 153 291 153 344 166.5 c 128,-1,16
 397 180 397 180 451 188 c 0,17,18
 482 192 482 192 500 174 c 128,-1,19
 518 156 518 156 522 130 c 128,-1,20
 526 104 526 104 515.5 77.5 c 128,-1,21
 505 51 505 51 480 39 c 0,22,23
 459 29 459 29 428.5 22 c 128,-1,24
 398 15 398 15 364.5 10 c 128,-1,25
 331 5 331 5 299 1.5 c 128,-1,26
 267 -2 267 -2 243 -4 c 0,27,28
 184 -9 184 -9 147.5 11 c 128,-1,29
 111 31 111 31 91 69.5 c 128,-1,30
 71 108 71 108 64 159.5 c 128,-1,31
 57 211 57 211 57.5 268 c 128,-1,32
 58 325 58 325 63.5 383.5 c 128,-1,33
 69 442 69 442 73.5 493.5 c 128,-1,34
 78 545 78 545 78 585.5 c 128,-1,35
 78 626 78 626 69 647 c 0,36,37
 55 679 55 679 63 704 c 128,-1,38
 71 729 71 729 109 736 c 0,39,40
 192 752 192 752 286 756 c 128,-1,41
 380 760 380 760 463 746 c 0,42,43
 500 740 500 740 517 716 c 128,-1,44
 534 692 534 692 532.5 665.5 c 128,-1,45
 531 639 531 639 510.5 618 c 128,-1,46
 490 597 490 597 452 597 c 0,47,48
 395 596 395 596 339.5 601 c 128,-1,49
 284 606 284 606 227 604 c 1,0,-1
EndSplineSet
Validated: 33
EndChar

StartChar: D
Encoding: 68 68 97
Width: 656
GlyphClass: 1
Flags: W
LayerCount: 2
Fore
SplineSet
43 463 m 0,0,1
 45 509 45 509 47.5 555.5 c 128,-1,2
 50 602 50 602 54 649 c 0,3,4
 56 674 56 674 61.5 692.5 c 128,-1,5
 67 711 67 711 77.5 724.5 c 128,-1,6
 88 738 88 738 105 746.5 c 128,-1,7
 122 755 122 755 146 761 c 0,8,9
 227 780 227 780 300.5 773.5 c 128,-1,10
 374 767 374 767 434 734 c 128,-1,11
 494 701 494 701 538.5 642.5 c 128,-1,12
 583 584 583 584 606 500 c 0,13,14
 619 451 619 451 617 399 c 128,-1,15
 615 347 615 347 601.5 297.5 c 128,-1,16
 588 248 588 248 564 203.5 c 128,-1,17
 540 159 540 159 509 125 c 0,18,19
 473 83 473 83 426 52 c 128,-1,20
 379 21 379 21 328 7 c 128,-1,21
 277 -7 277 -7 224 -2 c 128,-1,22
 171 3 171 3 123 33 c 0,23,24
 102 46 102 46 88 76.5 c 128,-1,25
 74 107 74 107 65 147 c 128,-1,26
 56 187 56 187 51 233 c 128,-1,27
 46 279 46 279 44 322.5 c 128,-1,28
 42 366 42 366 42 403 c 128,-1,29
 42 440 42 440 43 463 c 0,0,1
215 608 m 1,30,31
 216 573 216 573 215.5 525 c 128,-1,32
 215 477 215 477 214 426.5 c 128,-1,33
 213 376 213 376 213 329 c 128,-1,34
 213 282 213 282 215 250 c 0,35,36
 217 217 217 217 237 198 c 128,-1,37
 257 179 257 179 285 177 c 128,-1,38
 313 175 313 175 344 192 c 128,-1,39
 375 209 375 209 399 250 c 0,40,41
 426 295 426 295 436 342 c 128,-1,42
 446 389 446 389 442 432.5 c 128,-1,43
 438 476 438 476 420.5 513 c 128,-1,44
 403 550 403 550 373.5 575 c 128,-1,45
 344 600 344 600 304 609.5 c 128,-1,46
 264 619 264 619 215 608 c 1,30,31
EndSplineSet
Validated: 33
EndChar

StartChar: C
Encoding: 67 67 98
Width: 634
GlyphClass: 1
Flags: W
LayerCount: 2
Fore
SplineSet
189 693 m 0,0,1
 241 742 241 742 294.5 759 c 128,-1,2
 348 776 348 776 396.5 769.5 c 128,-1,3
 445 763 445 763 485.5 737.5 c 128,-1,4
 526 712 526 712 551.5 675.5 c 128,-1,5
 577 639 577 639 584.5 595.5 c 128,-1,6
 592 552 592 552 575 510 c 0,7,8
 567 492 567 492 554 480.5 c 128,-1,9
 541 469 541 469 526 464 c 128,-1,10
 511 459 511 459 495 460 c 128,-1,11
 479 461 479 461 466 468 c 0,12,13
 451 476 451 476 442.5 495 c 128,-1,14
 434 514 434 514 430 531 c 0,15,16
 424 556 424 556 412 572 c 128,-1,17
 400 588 400 588 384.5 595 c 128,-1,18
 369 602 369 602 351 600 c 128,-1,19
 333 598 333 598 316 589 c 0,20,21
 289 574 289 574 269 541 c 128,-1,22
 249 508 249 508 236 465.5 c 128,-1,23
 223 423 223 423 219 376.5 c 128,-1,24
 215 330 215 330 221 288.5 c 128,-1,25
 227 247 227 247 244.5 215.5 c 128,-1,26
 262 184 262 184 292 172 c 0,27,28
 324 159 324 159 359 169.5 c 128,-1,29
 394 180 394 180 429 224 c 0,30,31
 441 238 441 238 454 252 c 128,-1,32
 467 266 467 266 482 277 c 0,33,34
 505 294 505 294 528 293.5 c 128,-1,35
 551 293 551 293 567.5 280.5 c 128,-1,36
 584 268 584 268 590 245.5 c 128,-1,37
 596 223 596 223 585 196 c 0,38,39
 553 123 553 123 506.5 79 c 128,-1,40
 460 35 460 35 406.5 17.5 c 128,-1,41
 353 0 353 0 297 7 c 128,-1,42
 241 14 241 14 192 43 c 0,43,44
 136 76 136 76 101.5 125 c 128,-1,45
 67 174 67 174 52 232 c 128,-1,46
 37 290 37 290 39.5 353.5 c 128,-1,47
 42 417 42 417 60.5 478.5 c 128,-1,48
 79 540 79 540 111.5 595.5 c 128,-1,49
 144 651 144 651 189 693 c 0,0,1
EndSplineSet
Validated: 33
EndChar

StartChar: B
Encoding: 66 66 99
Width: 609
GlyphClass: 1
Flags: W
LayerCount: 2
Fore
SplineSet
236 744 m 1,0,1
 274 764 274 764 315 777.5 c 128,-1,2
 356 791 356 791 400 793 c 0,3,4
 443 795 443 795 475.5 780 c 128,-1,5
 508 765 508 765 528 738 c 128,-1,6
 548 711 548 711 554 674.5 c 128,-1,7
 560 638 560 638 549 598 c 0,8,9
 532 536 532 536 497.5 489 c 128,-1,10
 463 442 463 442 423 394 c 1,11,12
 436 387 436 387 448.5 380.5 c 128,-1,13
 461 374 461 374 474 366 c 0,14,15
 513 342 513 342 536 311.5 c 128,-1,16
 559 281 559 281 565.5 246.5 c 128,-1,17
 572 212 572 212 561.5 175 c 128,-1,18
 551 138 551 138 523 102 c 0,19,20
 499 72 499 72 460 46 c 128,-1,21
 421 20 421 20 375 3 c 128,-1,22
 329 -14 329 -14 280.5 -20 c 128,-1,23
 232 -26 232 -26 189.5 -16.5 c 128,-1,24
 147 -7 147 -7 114.5 20 c 128,-1,25
 82 47 82 47 68 96 c 0,26,27
 56 138 56 138 50 191 c 128,-1,28
 44 244 44 244 42.5 301.5 c 128,-1,29
 41 359 41 359 44 419.5 c 128,-1,30
 47 480 47 480 55 537 c 128,-1,31
 63 594 63 594 75 646 c 128,-1,32
 87 698 87 698 102 739 c 0,33,34
 113 768 113 768 131 783.5 c 128,-1,35
 149 799 149 799 168.5 800.5 c 128,-1,36
 188 802 188 802 206 788 c 128,-1,37
 224 774 224 774 236 744 c 1,0,1
328 633 m 0,38,39
 291 614 291 614 263 581 c 128,-1,40
 235 548 235 548 221 509 c 0,41,42
 213 489 213 489 211.5 469 c 128,-1,43
 210 449 210 449 216.5 437 c 128,-1,44
 223 425 223 425 238.5 425.5 c 128,-1,45
 254 426 254 426 281 446 c 0,46,47
 313 470 313 470 344 508 c 128,-1,48
 375 546 375 546 392 588 c 0,49,50
 403 615 403 615 402.5 629 c 128,-1,51
 402 643 402 643 392.5 647.5 c 128,-1,52
 383 652 383 652 366.5 648 c 128,-1,53
 350 644 350 644 328 633 c 0,38,39
312 273 m 0,54,55
 289 276 289 276 267.5 275 c 128,-1,56
 246 274 246 274 230.5 265.5 c 128,-1,57
 215 257 215 257 206.5 239.5 c 128,-1,58
 198 222 198 222 201 192 c 0,59,60
 204 172 204 172 219 160 c 128,-1,61
 234 148 234 148 255 144 c 128,-1,62
 276 140 276 140 300.5 145 c 128,-1,63
 325 150 325 150 347 165 c 0,64,65
 376 184 376 184 386 201.5 c 128,-1,66
 396 219 396 219 390 233.5 c 128,-1,67
 384 248 384 248 363.5 258 c 128,-1,68
 343 268 343 268 312 273 c 0,54,55
EndSplineSet
Validated: 33
EndChar

StartChar: A
Encoding: 65 65 100
Width: 586
GlyphClass: 1
Flags: W
LayerCount: 2
Fore
SplineSet
376 205 m 1,0,-1
 218 192 l 1,1,2
 215 159 215 159 213.5 126 c 128,-1,3
 212 93 212 93 209 60 c 0,4,5
 207 35 207 35 195 18 c 128,-1,6
 183 1 183 1 166 -7 c 128,-1,7
 149 -15 149 -15 130 -13 c 128,-1,8
 111 -11 111 -11 93.5 3.5 c 128,-1,9
 76 18 76 18 63.5 46 c 128,-1,10
 51 74 51 74 48 117 c 0,11,12
 45 163 45 163 50 221 c 128,-1,13
 55 279 55 279 68 341.5 c 128,-1,14
 81 404 81 404 102.5 467 c 128,-1,15
 124 530 124 530 153 585.5 c 128,-1,16
 182 641 182 641 219.5 684 c 128,-1,17
 257 727 257 727 302 751 c 0,18,19
 359 780 359 780 398 765.5 c 128,-1,20
 437 751 437 751 462.5 708.5 c 128,-1,21
 488 666 488 666 502 606 c 128,-1,22
 516 546 516 546 523 484.5 c 128,-1,23
 530 423 530 423 531.5 369.5 c 128,-1,24
 533 316 533 316 534 288 c 0,25,26
 534 271 534 271 534 237 c 128,-1,27
 534 203 534 203 533.5 165.5 c 128,-1,28
 533 128 533 128 531 95.5 c 128,-1,29
 529 63 529 63 526 50 c 0,30,31
 521 28 521 28 505 12 c 128,-1,32
 489 -4 489 -4 466 -6 c 0,33,34
 433 -9 433 -9 415 15.5 c 128,-1,35
 397 40 397 40 389 74.5 c 128,-1,36
 381 109 381 109 379 146 c 128,-1,37
 377 183 377 183 376 205 c 1,0,-1
301 507 m 0,38,39
 284 472 284 472 272 427.5 c 128,-1,40
 260 383 260 383 251 332 c 1,41,-1
 377 332 l 1,42,43
 377 376 377 376 376.5 419.5 c 128,-1,44
 376 463 376 463 370 507 c 0,45,46
 362 567 362 567 345.5 566 c 128,-1,47
 329 565 329 565 301 507 c 0,38,39
EndSplineSet
Validated: 33
EndChar

StartChar: colon
Encoding: 58 58 101
Width: 263
GlyphClass: 1
Flags: W
LayerCount: 2
Fore
SplineSet
59 415 m 0,0,1
 61 450 61 450 74 471 c 128,-1,2
 87 492 87 492 105 500.5 c 128,-1,3
 123 509 123 509 143.5 507 c 128,-1,4
 164 505 164 505 181 494 c 128,-1,5
 198 483 198 483 208.5 464 c 128,-1,6
 219 445 219 445 217 421 c 0,7,8
 215 392 215 392 202 372 c 128,-1,9
 189 352 189 352 171 341.5 c 128,-1,10
 153 331 153 331 132.5 330 c 128,-1,11
 112 329 112 329 95 338 c 128,-1,12
 78 347 78 347 67.5 366 c 128,-1,13
 57 385 57 385 59 415 c 0,0,1
59 118 m 0,14,15
 61 153 61 153 74 174 c 128,-1,16
 87 195 87 195 105 203.5 c 128,-1,17
 123 212 123 212 143.5 210 c 128,-1,18
 164 208 164 208 181 197 c 128,-1,19
 198 186 198 186 208.5 167 c 128,-1,20
 219 148 219 148 217 124 c 0,21,22
 215 95 215 95 202 75 c 128,-1,23
 189 55 189 55 171 44.5 c 128,-1,24
 153 34 153 34 132.5 33 c 128,-1,25
 112 32 112 32 95 41 c 128,-1,26
 78 50 78 50 67.5 69 c 128,-1,27
 57 88 57 88 59 118 c 0,14,15
EndSplineSet
Validated: 33
EndChar

StartChar: plusminus
Encoding: 177 177 102
Width: 578
GlyphClass: 1
Flags: W
LayerCount: 2
Fore
SplineSet
199 417 m 1,0,1
 178 415 178 415 155.5 414 c 128,-1,2
 133 413 133 413 112 416 c 0,3,4
 82 420 82 420 66 436 c 128,-1,5
 50 452 50 452 49 471.5 c 128,-1,6
 48 491 48 491 62 509.5 c 128,-1,7
 76 528 76 528 105 537 c 0,8,9
 130 544 130 544 155 546 c 128,-1,10
 180 548 180 548 206 550 c 1,11,12
 208 568 208 568 210.5 596.5 c 128,-1,13
 213 625 213 625 220 651 c 128,-1,14
 227 677 227 677 241.5 695 c 128,-1,15
 256 713 256 713 283 712 c 0,16,17
 308 710 308 710 320.5 692 c 128,-1,18
 333 674 333 674 339 648.5 c 128,-1,19
 345 623 345 623 346 596 c 128,-1,20
 347 569 347 569 349 550 c 1,21,22
 362 549 362 549 382.5 547 c 128,-1,23
 403 545 403 545 424.5 542.5 c 128,-1,24
 446 540 446 540 465.5 536.5 c 128,-1,25
 485 533 485 533 496 529 c 0,26,27
 516 521 516 521 525 505.5 c 128,-1,28
 534 490 534 490 532 473.5 c 128,-1,29
 530 457 530 457 516.5 444.5 c 128,-1,30
 503 432 503 432 478 431 c 0,31,32
 443 429 443 429 409 429.5 c 128,-1,33
 375 430 375 430 340 430 c 1,34,35
 335 391 335 391 331 350 c 128,-1,36
 327 309 327 309 316 271 c 0,37,38
 309 246 309 246 294.5 230.5 c 128,-1,39
 280 215 280 215 252 218 c 0,40,41
 223 221 223 221 211.5 245 c 128,-1,42
 200 269 200 269 197 300.5 c 128,-1,43
 194 332 194 332 196.5 364.5 c 128,-1,44
 199 397 199 397 199 417 c 1,0,1
69 129 m 0,45,46
 103 147 103 147 152.5 153.5 c 128,-1,47
 202 160 202 160 254.5 159 c 128,-1,48
 307 158 307 158 356.5 151.5 c 128,-1,49
 406 145 406 145 441 138 c 0,50,51
 467 133 467 133 480 115.5 c 128,-1,52
 493 98 493 98 492.5 78.5 c 128,-1,53
 492 59 492 59 478 43 c 128,-1,54
 464 27 464 27 435 25 c 0,55,56
 357 18 357 18 278 15 c 128,-1,57
 199 12 199 12 121 8 c 0,58,59
 85 6 85 6 64 20.5 c 128,-1,60
 43 35 43 35 36.5 55.5 c 128,-1,61
 30 76 30 76 38.5 97 c 128,-1,62
 47 118 47 118 69 129 c 0,45,46
EndSplineSet
Validated: 33
EndChar

StartChar: trademark
Encoding: 8482 8482 103
Width: 657
GlyphClass: 1
Flags: W
LayerCount: 2
Fore
SplineSet
109 686 m 1,0,1
 100 686 100 686 87 685.5 c 128,-1,2
 74 685 74 685 61 687 c 128,-1,3
 48 689 48 689 39 694.5 c 128,-1,4
 30 700 30 700 29 712 c 0,5,6
 29 722 29 722 36 728 c 128,-1,7
 43 734 43 734 53 737 c 0,8,9
 62 739 62 739 82.5 740 c 128,-1,10
 103 741 103 741 126 741.5 c 128,-1,11
 149 742 149 742 170 742 c 128,-1,12
 191 742 191 742 203 742 c 0,13,14
 226 742 226 742 237.5 735 c 128,-1,15
 249 728 249 728 251.5 718.5 c 128,-1,16
 254 709 254 709 248 700 c 128,-1,17
 242 691 242 691 229 687 c 0,18,19
 218 683 218 683 206 683 c 128,-1,20
 194 683 194 683 181 683 c 1,21,22
 181 668 181 668 182 638 c 128,-1,23
 183 608 183 608 182.5 575 c 128,-1,24
 182 542 182 542 180 512.5 c 128,-1,25
 178 483 178 483 173 470 c 0,26,27
 168 459 168 459 157.5 454 c 128,-1,28
 147 449 147 449 135.5 450.5 c 128,-1,29
 124 452 124 452 115.5 459.5 c 128,-1,30
 107 467 107 467 107 479 c 0,31,32
 106 531 106 531 108 584.5 c 128,-1,33
 110 638 110 638 109 686 c 1,0,1
365 584 m 0,34,35
 365 570 365 570 365.5 554 c 128,-1,36
 366 538 366 538 365.5 523 c 128,-1,37
 365 508 365 508 364 495.5 c 128,-1,38
 363 483 363 483 361 476 c 0,39,40
 357 467 357 467 350 461 c 128,-1,41
 343 455 343 455 332 454 c 0,42,43
 312 452 312 452 301 467.5 c 128,-1,44
 290 483 290 483 285.5 507 c 128,-1,45
 281 531 281 531 281.5 560.5 c 128,-1,46
 282 590 282 590 284.5 617 c 128,-1,47
 287 644 287 644 291 665 c 128,-1,48
 295 686 295 686 297 693 c 0,49,50
 302 711 302 711 314 724 c 128,-1,51
 326 737 326 737 340.5 740.5 c 128,-1,52
 355 744 355 744 369 737.5 c 128,-1,53
 383 731 383 731 392 710 c 0,54,55
 403 683 403 683 413.5 655.5 c 128,-1,56
 424 628 424 628 444 596 c 1,57,58
 451 609 451 609 461.5 629 c 128,-1,59
 472 649 472 649 483.5 668.5 c 128,-1,60
 495 688 495 688 507.5 705.5 c 128,-1,61
 520 723 520 723 532 732 c 0,62,63
 547 743 547 743 564 741.5 c 128,-1,64
 581 740 581 740 591 724 c 0,65,66
 598 713 598 713 602 683 c 128,-1,67
 606 653 606 653 607.5 618.5 c 128,-1,68
 609 584 609 584 608.5 551.5 c 128,-1,69
 608 519 608 519 607 504 c 0,70,71
 606 482 606 482 595 470 c 128,-1,72
 584 458 584 458 570 455 c 128,-1,73
 556 452 556 452 543 458 c 128,-1,74
 530 464 530 464 525 478 c 0,75,76
 523 484 523 484 523 495.5 c 128,-1,77
 523 507 523 507 524.5 521.5 c 128,-1,78
 526 536 526 536 528 551.5 c 128,-1,79
 530 567 530 567 530 582 c 0,80,81
 531 607 531 607 524.5 603.5 c 128,-1,82
 518 600 518 600 504 583 c 0,83,84
 490 564 490 564 478.5 546 c 128,-1,85
 467 528 467 528 454 522.5 c 128,-1,86
 441 517 441 517 425 529 c 128,-1,87
 409 541 409 541 385 583 c 0,88,89
 380 592 380 592 376.5 598 c 128,-1,90
 373 604 373 604 370.5 605.5 c 128,-1,91
 368 607 368 607 366.5 602 c 128,-1,92
 365 597 365 597 365 584 c 0,34,35
EndSplineSet
Validated: 33
EndChar

StartChar: quotedblright
Encoding: 8221 8221 104
Width: 459
GlyphClass: 1
Flags: W
LayerCount: 2
Fore
SplineSet
180 545 m 0,0,1
 170 514 170 514 148.5 503 c 128,-1,2
 127 492 127 492 106 496 c 128,-1,3
 85 500 85 500 72 516.5 c 128,-1,4
 59 533 59 533 67 557 c 0,5,6
 74 578 74 578 78 597 c 128,-1,7
 82 616 82 616 84 634.5 c 128,-1,8
 86 653 86 653 86.5 672 c 128,-1,9
 87 691 87 691 87 713 c 0,10,11
 87 752 87 752 107.5 765 c 128,-1,12
 128 778 128 778 152 776 c 0,13,14
 175 773 175 773 187.5 759 c 128,-1,15
 200 745 200 745 204.5 724 c 128,-1,16
 209 703 209 703 207.5 678 c 128,-1,17
 206 653 206 653 201.5 628 c 128,-1,18
 197 603 197 603 190.5 581 c 128,-1,19
 184 559 184 559 180 545 c 0,0,1
352 545 m 0,20,21
 342 514 342 514 320.5 503 c 128,-1,22
 299 492 299 492 278 496 c 128,-1,23
 257 500 257 500 244 516.5 c 128,-1,24
 231 533 231 533 239 557 c 0,25,26
 246 578 246 578 250 597 c 128,-1,27
 254 616 254 616 256 634.5 c 128,-1,28
 258 653 258 653 258.5 672 c 128,-1,29
 259 691 259 691 259 713 c 0,30,31
 259 752 259 752 279.5 765 c 128,-1,32
 300 778 300 778 324 776 c 0,33,34
 347 773 347 773 359.5 759 c 128,-1,35
 372 745 372 745 376.5 724 c 128,-1,36
 381 703 381 703 379.5 678 c 128,-1,37
 378 653 378 653 373.5 628 c 128,-1,38
 369 603 369 603 362.5 581 c 128,-1,39
 356 559 356 559 352 545 c 0,20,21
EndSplineSet
Validated: 33
EndChar

StartChar: quotedblleft
Encoding: 8220 8220 105
Width: 459
GlyphClass: 1
Flags: W
LayerCount: 2
Fore
SplineSet
283 696 m 0,0,1
 293 727 293 727 314.5 738 c 128,-1,2
 336 749 336 749 357 745 c 128,-1,3
 378 741 378 741 391 724.5 c 128,-1,4
 404 708 404 708 396 684 c 0,5,6
 382 642 382 642 379 606.5 c 128,-1,7
 376 571 376 571 376 528 c 0,8,9
 376 489 376 489 355.5 476 c 128,-1,10
 335 463 335 463 311 465 c 0,11,12
 288 467 288 467 275.5 481.5 c 128,-1,13
 263 496 263 496 258.5 517 c 128,-1,14
 254 538 254 538 255.5 563 c 128,-1,15
 257 588 257 588 261.5 613 c 128,-1,16
 266 638 266 638 272 660 c 128,-1,17
 278 682 278 682 283 696 c 0,0,1
111 696 m 0,18,19
 121 727 121 727 142.5 738 c 128,-1,20
 164 749 164 749 185 745 c 128,-1,21
 206 741 206 741 219 724.5 c 128,-1,22
 232 708 232 708 224 684 c 0,23,24
 210 642 210 642 207 606.5 c 128,-1,25
 204 571 204 571 204 528 c 0,26,27
 204 489 204 489 183.5 476 c 128,-1,28
 163 463 163 463 139 465 c 0,29,30
 116 467 116 467 103.5 481.5 c 128,-1,31
 91 496 91 496 86.5 517 c 128,-1,32
 82 538 82 538 83.5 563 c 128,-1,33
 85 588 85 588 89.5 613 c 128,-1,34
 94 638 94 638 100 660 c 128,-1,35
 106 682 106 682 111 696 c 0,18,19
EndSplineSet
Validated: 33
EndChar

StartChar: quoteright
Encoding: 8217 8217 106
Width: 267
GlyphClass: 1
Flags: W
LayerCount: 2
Fore
SplineSet
180 545 m 0,0,1
 170 514 170 514 148.5 503 c 128,-1,2
 127 492 127 492 106 496 c 128,-1,3
 85 500 85 500 72 516.5 c 128,-1,4
 59 533 59 533 67 557 c 0,5,6
 74 578 74 578 78 597 c 128,-1,7
 82 616 82 616 84 634.5 c 128,-1,8
 86 653 86 653 86.5 672 c 128,-1,9
 87 691 87 691 87 713 c 0,10,11
 87 752 87 752 107.5 765 c 128,-1,12
 128 778 128 778 152 776 c 0,13,14
 175 773 175 773 187.5 759 c 128,-1,15
 200 745 200 745 204.5 724 c 128,-1,16
 209 703 209 703 207.5 678 c 128,-1,17
 206 653 206 653 201.5 628 c 128,-1,18
 197 603 197 603 190.5 581 c 128,-1,19
 184 559 184 559 180 545 c 0,0,1
EndSplineSet
Validated: 33
EndChar

StartChar: quoteleft
Encoding: 8216 8216 107
Width: 267
GlyphClass: 1
Flags: W
LayerCount: 2
Fore
SplineSet
111 696 m 0,0,1
 121 727 121 727 142.5 738 c 128,-1,2
 164 749 164 749 185 745 c 128,-1,3
 206 741 206 741 219 724.5 c 128,-1,4
 232 708 232 708 224 684 c 0,5,6
 210 642 210 642 207 606.5 c 128,-1,7
 204 571 204 571 204 528 c 0,8,9
 204 489 204 489 183.5 476 c 128,-1,10
 163 463 163 463 139 465 c 0,11,12
 116 467 116 467 103.5 481.5 c 128,-1,13
 91 496 91 496 86.5 517 c 128,-1,14
 82 538 82 538 83.5 563 c 128,-1,15
 85 588 85 588 89.5 613 c 128,-1,16
 94 638 94 638 100 660 c 128,-1,17
 106 682 106 682 111 696 c 0,0,1
EndSplineSet
Validated: 33
EndChar

StartChar: bracketright
Encoding: 93 93 108
Width: 477
GlyphClass: 1
Flags: W
LayerCount: 2
Fore
SplineSet
263 774 m 1,0,1
 236 772 236 772 210 770 c 128,-1,2
 184 768 184 768 158 770 c 0,3,4
 142 771 142 771 125.5 774 c 128,-1,5
 109 777 109 777 95 785 c 0,6,7
 79 794 79 794 71 806.5 c 128,-1,8
 63 819 63 819 63 833 c 128,-1,9
 63 847 63 847 70.5 860.5 c 128,-1,10
 78 874 78 874 92 884 c 0,11,12
 111 898 111 898 142 906.5 c 128,-1,13
 173 915 173 915 208 916.5 c 128,-1,14
 243 918 243 918 279.5 912 c 128,-1,15
 316 906 316 906 345.5 892.5 c 128,-1,16
 375 879 375 879 395.5 856.5 c 128,-1,17
 416 834 416 834 419 802 c 0,18,19
 434 669 434 669 434 533.5 c 128,-1,20
 434 398 434 398 421 265 c 0,21,22
 413 173 413 173 413.5 80 c 128,-1,23
 414 -13 414 -13 402 -104 c 0,24,25
 390 -186 390 -186 307 -208 c 0,26,27
 287 -213 287 -213 258.5 -217 c 128,-1,28
 230 -221 230 -221 200.5 -222 c 128,-1,29
 171 -223 171 -223 143 -221 c 128,-1,30
 115 -219 115 -219 95 -213 c 0,31,32
 74 -207 74 -207 60.5 -193 c 128,-1,33
 47 -179 47 -179 46 -157 c 0,34,35
 44 -127 44 -127 69 -112 c 128,-1,36
 94 -97 94 -97 128 -91 c 128,-1,37
 162 -85 162 -85 198 -85 c 128,-1,38
 234 -85 234 -85 255 -84 c 1,39,40
 255 32 255 32 253 147 c 128,-1,41
 251 262 251 262 259 378 c 0,42,43
 264 476 264 476 268 576.5 c 128,-1,44
 272 677 272 677 263 774 c 1,0,1
EndSplineSet
Validated: 33
EndChar

StartChar: underscore
Encoding: 95 95 109
Width: 585
GlyphClass: 1
Flags: W
LayerCount: 2
Fore
SplineSet
472 69 m 0,0,1
 497 69 497 69 512.5 57.5 c 128,-1,2
 528 46 528 46 531.5 29.5 c 128,-1,3
 535 13 535 13 526 -4.5 c 128,-1,4
 517 -22 517 -22 495 -34 c 0,5,6
 464 -51 464 -51 415.5 -59 c 128,-1,7
 367 -67 367 -67 314 -69 c 128,-1,8
 261 -71 261 -71 210.5 -68.5 c 128,-1,9
 160 -66 160 -66 126 -60 c 0,10,11
 112 -58 112 -58 99 -54 c 128,-1,12
 86 -50 86 -50 74 -44 c 0,13,14
 56 -35 56 -35 48.5 -19 c 128,-1,15
 41 -3 41 -3 43.5 13 c 128,-1,16
 46 29 46 29 57 42.5 c 128,-1,17
 68 56 68 56 87 61 c 0,18,19
 110 67 110 67 141.5 69 c 128,-1,20
 173 71 173 71 218 71 c 128,-1,21
 263 71 263 71 325.5 70 c 128,-1,22
 388 69 388 69 472 69 c 0,0,1
EndSplineSet
Validated: 33
EndChar

StartChar: asciicircum
Encoding: 94 94 110
Width: 492
GlyphClass: 1
Flags: W
LayerCount: 2
Fore
SplineSet
263 529 m 1,0,1
 256 518 256 518 245.5 497 c 128,-1,2
 235 476 235 476 221.5 452 c 128,-1,3
 208 428 208 428 192 404.5 c 128,-1,4
 176 381 176 381 159.5 364 c 128,-1,5
 143 347 143 347 126 340 c 128,-1,6
 109 333 109 333 93 343 c 0,7,8
 74 355 74 355 71 372.5 c 128,-1,9
 68 390 68 390 73 410 c 0,10,11
 76 424 76 424 86 447.5 c 128,-1,12
 96 471 96 471 109 499.5 c 128,-1,13
 122 528 122 528 137 559 c 128,-1,14
 152 590 152 590 167 618.5 c 128,-1,15
 182 647 182 647 194.5 671.5 c 128,-1,16
 207 696 207 696 215 712 c 0,17,18
 225 732 225 732 242 741.5 c 128,-1,19
 259 751 259 751 281 749 c 256,20,21
 303 747 303 747 317 734.5 c 128,-1,22
 331 722 331 722 339 702 c 0,23,24
 362 642 362 642 380.5 583.5 c 128,-1,25
 399 525 399 525 425 466 c 0,26,27
 429 458 429 458 432.5 449 c 128,-1,28
 436 440 436 440 438 431 c 0,29,30
 442 404 442 404 430 385 c 128,-1,31
 418 366 418 366 397 362.5 c 128,-1,32
 376 359 376 359 350 375 c 128,-1,33
 324 391 324 391 301 435 c 0,34,35
 289 458 289 458 281 482 c 128,-1,36
 273 506 273 506 263 529 c 1,0,1
EndSplineSet
Validated: 33
EndChar

StartChar: eacute
Encoding: 233 233 111
Width: 578
Flags: W
LayerCount: 2
Fore
SplineSet
185.407226562 229.138671875 m 1,0,1
 192.234375 208.771484375 192.234375 208.771484375 205.890625 192.647460938 c 128,-1,2
 219.545898438 176.522460938 219.545898438 176.522460938 238.567382812 166.33984375 c 128,-1,3
 257.587890625 156.15625 257.587890625 156.15625 280.509765625 153.186523438 c 128,-1,4
 303.431640625 150.215820312 303.431640625 150.215820312 326.840820312 157.004882812 c 0,5,6
 342.448242188 161.248046875 342.448242188 161.248046875 361.46875 168.461914062 c 128,-1,7
 380.489257812 175.67578125 380.489257812 175.67578125 398.534179688 178.645507812 c 128,-1,8
 416.579101562 181.615234375 416.579101562 181.615234375 433.6484375 178.221679688 c 128,-1,9
 450.719726562 174.826171875 450.719726562 174.826171875 463.3984375 157.854492188 c 0,10,11
 479.981445312 135.7890625 479.981445312 135.7890625 476.079101562 116.270507812 c 128,-1,12
 472.178710938 96.751953125 472.178710938 96.751953125 454.620117188 79.7802734375 c 128,-1,13
 437.0625 62.8076171875 437.0625 62.8076171875 409.751953125 50.0771484375 c 128,-1,14
 382.440429688 37.34765625 382.440429688 37.34765625 351.227539062 29.7109375 c 128,-1,15
 320.013671875 22.072265625 320.013671875 22.072265625 288.313476562 20.3759765625 c 128,-1,16
 256.611328125 18.677734375 256.611328125 18.677734375 231.251953125 24.6181640625 c 0,17,18
 182.481445312 35.650390625 182.481445312 35.650390625 143.46484375 57.291015625 c 128,-1,19
 104.447265625 78.9306640625 104.447265625 78.9306640625 77.13671875 109.481445312 c 128,-1,20
 49.826171875 140.032226562 49.826171875 140.032226562 35.6806640625 177.795898438 c 128,-1,21
 21.5390625 215.559570312 21.5390625 215.559570312 21.5390625 259.689453125 c 0,22,23
 21.5390625 319.943359375 21.5390625 319.943359375 35.6806640625 374.255859375 c 128,-1,24
 49.826171875 428.567382812 49.826171875 428.567382812 82.9892578125 470.150390625 c 128,-1,25
 116.15234375 511.734375 116.15234375 511.734375 169.799804688 536.768554688 c 128,-1,26
 223.448242188 561.802734375 223.448242188 561.802734375 301.48046875 563.5 c 0,27,28
 357.079101562 564.349609375 357.079101562 564.349609375 396.095703125 540.163085938 c 128,-1,29
 435.111328125 515.9765625 435.111328125 515.9765625 456.5703125 478.63671875 c 128,-1,30
 478.030273438 441.297851562 478.030273438 441.297851562 479.981445312 397.16796875 c 128,-1,31
 481.931640625 353.040039062 481.931640625 353.040039062 462.422851562 313.578125 c 128,-1,32
 442.916015625 274.1171875 442.916015625 274.1171875 400.97265625 245.262695312 c 128,-1,33
 359.029296875 216.409179688 359.029296875 216.409179688 292.702148438 211.318359375 c 0,34,35
 269.291992188 209.620117188 269.291992188 209.620117188 238.567382812 216.409179688 c 128,-1,36
 207.841796875 223.198242188 207.841796875 223.198242188 185.407226562 229.138671875 c 1,0,1
209.79296875 347.098632812 m 1,37,38
 238.079101562 340.309570312 238.079101562 340.309570312 267.340820312 338.61328125 c 128,-1,39
 296.604492188 336.915039062 296.604492188 336.915039062 324.890625 344.552734375 c 0,40,41
 340.49609375 348.796875 340.49609375 348.796875 347.325195312 362.798828125 c 128,-1,42
 354.153320312 376.801757812 354.153320312 376.801757812 351.71484375 390.803710938 c 128,-1,43
 349.276367188 404.806640625 349.276367188 404.806640625 336.107421875 414.141601562 c 128,-1,44
 322.939453125 423.475585938 322.939453125 423.475585938 298.5546875 417.53515625 c 0,45,46
 261.489257812 409.049804688 261.489257812 409.049804688 241.981445312 393.7734375 c 128,-1,47
 222.47265625 378.498046875 222.47265625 378.498046875 209.79296875 347.098632812 c 1,37,38
203.931640625 584.381835938 m 4,48,49
 173 579 173 579 156.354492188 589.323242188 c 4,50,51
 141 598 141 598 134.982421875 621.203125 c 4,52,53
 130 639 130 639 140.390625 659.958984375 c 4,54,55
 150 679 150 679 173.50390625 684.6875 c 4,56,57
 192 689 192 689 211.963867188 695.823242188 c 4,58,59
 229 702 229 702 246.459960938 709.857421875 c 4,60,61
 275.070507232 722.422854322 275.070507232 722.422854322 279.6953125 726.8125 c 4,62,63
 282 729 282 729 315.2265625 747.2109375 c 4,64,65
 350 767 350 767 367.458007812 756.518554688 c 4,66,67
 386 746 386 746 393 725 c 4,68,69
 400 703 400 703 391.150390625 686.772460938 c 4,70,71
 381 667 381 667 367.108398438 654.828125 c 4,72,73
 349 639 349 639 328.528320312 628.973632812 c 4,74,75
 291 612 291 612 283.25390625 608.59375 c 4,76,77
 271 604 271 604 238.76171875 593.903320312 c 4,78,79
 217 587 217 587 203.931640625 584.381835938 c 4,48,49
EndSplineSet
EndChar

StartChar: egrave
Encoding: 232 232 112
Width: 578
Flags: W
LayerCount: 2
Fore
SplineSet
185.407226562 229.138671875 m 1,0,1
 192.234375 208.771484375 192.234375 208.771484375 205.890625 192.647460938 c 128,-1,2
 219.545898438 176.522460938 219.545898438 176.522460938 238.567382812 166.33984375 c 128,-1,3
 257.587890625 156.15625 257.587890625 156.15625 280.509765625 153.186523438 c 128,-1,4
 303.431640625 150.215820312 303.431640625 150.215820312 326.840820312 157.004882812 c 0,5,6
 342.448242188 161.248046875 342.448242188 161.248046875 361.46875 168.461914062 c 128,-1,7
 380.489257812 175.67578125 380.489257812 175.67578125 398.534179688 178.645507812 c 128,-1,8
 416.579101562 181.615234375 416.579101562 181.615234375 433.6484375 178.221679688 c 128,-1,9
 450.719726562 174.826171875 450.719726562 174.826171875 463.3984375 157.854492188 c 0,10,11
 479.981445312 135.7890625 479.981445312 135.7890625 476.079101562 116.270507812 c 128,-1,12
 472.178710938 96.751953125 472.178710938 96.751953125 454.620117188 79.7802734375 c 128,-1,13
 437.0625 62.8076171875 437.0625 62.8076171875 409.751953125 50.0771484375 c 128,-1,14
 382.440429688 37.34765625 382.440429688 37.34765625 351.227539062 29.7109375 c 128,-1,15
 320.013671875 22.072265625 320.013671875 22.072265625 288.313476562 20.3759765625 c 128,-1,16
 256.611328125 18.677734375 256.611328125 18.677734375 231.251953125 24.6181640625 c 0,17,18
 182.481445312 35.650390625 182.481445312 35.650390625 143.46484375 57.291015625 c 128,-1,19
 104.447265625 78.9306640625 104.447265625 78.9306640625 77.13671875 109.481445312 c 128,-1,20
 49.826171875 140.032226562 49.826171875 140.032226562 35.6806640625 177.795898438 c 128,-1,21
 21.5390625 215.559570312 21.5390625 215.559570312 21.5390625 259.689453125 c 0,22,23
 21.5390625 319.943359375 21.5390625 319.943359375 35.6806640625 374.255859375 c 128,-1,24
 49.826171875 428.567382812 49.826171875 428.567382812 82.9892578125 470.150390625 c 128,-1,25
 116.15234375 511.734375 116.15234375 511.734375 169.799804688 536.768554688 c 128,-1,26
 223.448242188 561.802734375 223.448242188 561.802734375 301.48046875 563.5 c 0,27,28
 357.079101562 564.349609375 357.079101562 564.349609375 396.095703125 540.163085938 c 128,-1,29
 435.111328125 515.9765625 435.111328125 515.9765625 456.5703125 478.63671875 c 128,-1,30
 478.030273438 441.297851562 478.030273438 441.297851562 479.981445312 397.16796875 c 128,-1,31
 481.931640625 353.040039062 481.931640625 353.040039062 462.422851562 313.578125 c 128,-1,32
 442.916015625 274.1171875 442.916015625 274.1171875 400.97265625 245.262695312 c 128,-1,33
 359.029296875 216.409179688 359.029296875 216.409179688 292.702148438 211.318359375 c 0,34,35
 269.291992188 209.620117188 269.291992188 209.620117188 238.567382812 216.409179688 c 128,-1,36
 207.841796875 223.198242188 207.841796875 223.198242188 185.407226562 229.138671875 c 1,0,1
209.79296875 347.098632812 m 1,37,38
 238.079101562 340.309570312 238.079101562 340.309570312 267.340820312 338.61328125 c 128,-1,39
 296.604492188 336.915039062 296.604492188 336.915039062 324.890625 344.552734375 c 0,40,41
 340.49609375 348.796875 340.49609375 348.796875 347.325195312 362.798828125 c 128,-1,42
 354.153320312 376.801757812 354.153320312 376.801757812 351.71484375 390.803710938 c 128,-1,43
 349.276367188 404.806640625 349.276367188 404.806640625 336.107421875 414.141601562 c 128,-1,44
 322.939453125 423.475585938 322.939453125 423.475585938 298.5546875 417.53515625 c 0,45,46
 261.489257812 409.049804688 261.489257812 409.049804688 241.981445312 393.7734375 c 128,-1,47
 222.47265625 378.498046875 222.47265625 378.498046875 209.79296875 347.098632812 c 1,37,38
210.302734375 674.404296875 m 4,48,49
 186 692 186 692 182.370117188 713.235351562 c 4,50,51
 179 731 179 731 191.983398438 750.392578125 c 4,52,53
 203 766 203 766 224.532226562 772.11328125 c 4,54,55
 246 778 246 778 265.018554688 763.809570312 c 4,56,57
 282 752 282 752 298.901367188 742.478515625 c 132,-1,58
 316 733 316 733 332.31640625 726.034179688 c 4,59,60
 350 718 350 718 367.075195312 712.473632812 c 4,61,62
 369.472317511 711.875364396 369.472317511 711.875364396 405.931640625 699.486328125 c 4,63,64
 444 686 444 686 447.603515625 666.649414062 c 4,65,66
 452 643 452 643 441.033203125 626.6171875 c 4,67,68
 430 608 430 608 411.243164062 602.588867188 c 4,69,70
 394 597 394 597 371.397460938 599.318359375 c 4,71,72
 348 601 348 601 326.436523438 610.95703125 c 4,73,74
 303.445337114 620.729655748 303.445337114 620.729655748 281.116210938 631.235351562 c 4,75,76
 270 637 270 637 240.567382812 654.711914062 c 4,77,78
 222 666 222 666 210.302734375 674.404296875 c 4,48,49
EndSplineSet
EndChar

StartChar: agrave
Encoding: 224 224 113
Width: 578
Flags: W
LayerCount: 2
Fore
SplineSet
180.87890625 679.498046875 m 4,0,1
 157.874023438 699.163085938 157.874023438 699.163085938 156.247070312 720.501953125 c 4,2,3
 154.711914062 738.567382812 154.711914062 738.567382812 168.89453125 756.739257812 c 4,4,5
 181.060546875 771.75 181.060546875 771.75 203.125 775.69921875 c 4,6,7
 225.326171875 780.045898438 225.326171875 780.045898438 242.788085938 764.08203125 c 4,8,9
 259.052734375 751.01171875 259.052734375 751.01171875 274.794921875 740.02734375 c 132,-1,10
 290.670898438 729.235351562 290.670898438 729.235351562 306.73828125 720.880859375 c 4,11,12
 323.34375 711.606445312 323.34375 711.606445312 340.258789062 704.497070312 c 4,13,14
 358.124023438 698.125976562 358.124023438 698.125976562 377.911132812 688.346679688 c 4,15,16
 415.037109375 672.202148438 415.037109375 672.202148438 416.73046875 652.182617188 c 4,17,18
 419.252929688 628.650390625 419.252929688 628.650390625 406.877929688 612.829101562 c 4,19,20
 393.958007812 595.467773438 393.958007812 595.467773438 375.206054688 591.341796875 c 4,21,22
 357.069335938 587.171875 357.069335938 587.171875 335.2265625 591.37109375 c 4,23,24
 311.75 595.467773438 311.75 595.467773438 291.379882812 606.681640625 c 4,25,26
 269.592773438 619.317382812 269.592773438 619.317382812 247.887695312 630.631835938 c 4,27,28
 236.919921875 636.946289062 236.919921875 636.946289062 209.415039062 657.375 c 4,29,30
 192.654296875 671.166015625 192.654296875 671.166015625 180.87890625 679.498046875 c 4,0,1
385.104492188 63.7138671875 m 5,31,32
 358.124023438 55.212890625 358.124023438 55.212890625 329.619140625 43.0830078125 c 4,33,34
 302.264648438 32.3994140625 302.264648438 32.3994140625 272.079101562 25.0859375 c 4,35,36
 241.135742188 16.8447265625 241.135742188 16.8447265625 210.4296875 18.501953125 c 4,37,38
 180.006835938 19.9560546875 180.006835938 19.9560546875 149.806640625 27.71875 c 4,39,40
 100.9609375 40.6953125 100.9609375 40.6953125 75.8271484375 68.5419921875 c 4,41,42
 50.3720703125 96.6904296875 50.3720703125 96.6904296875 43.974609375 130.874023438 c 132,-1,43
 37.724609375 165.129882812 37.724609375 165.129882812 49.626953125 203.30078125 c 4,44,45
 59.857421875 237.716796875 59.857421875 237.716796875 88.1572265625 274.412109375 c 4,46,47
 112.5546875 305.119140625 112.5546875 305.119140625 155.971679688 332.79296875 c 4,48,49
 193.708007812 355.930664062 193.708007812 355.930664062 249.473632812 366.592773438 c 4,50,51
 264.322265625 369.411132812 264.322265625 369.411132812 297.766601562 372.298828125 c 4,52,53
 322.290039062 374.595703125 322.290039062 374.595703125 346.05859375 375.372070312 c 5,54,55
 340.20703125 399.482421875 340.20703125 399.482421875 322.42578125 404.34375 c 4,56,57
 307.108398438 409.017578125 307.108398438 409.017578125 281.325195312 405.66015625 c 4,58,59
 257.999023438 402.59375 257.999023438 402.59375 230.465820312 393.369140625 c 4,60,61
 203.193359375 384.96484375 203.193359375 384.96484375 177.548828125 381.516601562 c 4,62,63
 152.604492188 378.743164062 152.604492188 378.743164062 129.256835938 384.151367188 c 4,64,65
 107.28515625 390.150390625 107.28515625 390.150390625 93.294921875 414.877929688 c 4,66,67
 78.828125 439.923828125 78.828125 439.923828125 87.6435546875 460.967773438 c 4,68,69
 96.7451171875 482.439453125 96.7451171875 482.439453125 120.008789062 498.717773438 c 4,70,71
 139.95703125 513.547851562 139.95703125 513.547851562 177.548828125 526.810546875 c 4,72,73
 211.625 538.434570312 211.625 538.434570312 248.9609375 543.930664062 c 4,74,75
 286.455078125 549.841796875 286.455078125 549.841796875 322.940429688 548.319335938 c 4,76,77
 359.177734375 547.767578125 359.177734375 547.767578125 387.158203125 538.663085938 c 4,78,79
 445.6015625 521.84375 445.6015625 521.84375 473.467773438 488.182617188 c 4,80,81
 505.439453125 449.901367188 505.439453125 449.901367188 512 414 c 4,82,83
 514.107421875 404.666992188 514.107421875 404.666992188 523.815429688 327.526367188 c 4,84,85
 525.701171875 315.489257812 525.701171875 315.489257812 527.924804688 241.05078125 c 4,86,87
 528.86328125 222.163085938 528.86328125 222.163085938 535.118164062 193.206054688 c 4,88,89
 541.509765625 165.129882812 541.509765625 165.129882812 543.336914062 136.140625 c 4,90,91
 545.725585938 107.060546875 545.725585938 107.060546875 540.255859375 82.5888671875 c 4,92,93
 536.240234375 58.3232421875 536.240234375 58.3232421875 515.595703125 45.27734375 c 4,94,95
 495.13671875 33.4365234375 495.13671875 33.4365234375 481.174804688 31.6689453125 c 4,96,97
 464.572265625 30.3251953125 464.572265625 30.3251953125 447.78125 33.42578125 c 4,98,99
 430.845703125 37.583984375 430.845703125 37.583984375 415.928710938 45.716796875 c 4,100,101
 400.28125 55.212890625 400.28125 55.212890625 385.104492188 63.7138671875 c 5,31,32
346.05859375 172.575195312 m 5,102,103
 345.4765625 173.42578125 345.4765625 173.42578125 345.03125 179.159179688 c 4,104,105
 345.4765625 185.869140625 345.4765625 185.869140625 345.543945312 195.83984375 c 4,106,107
 346.530273438 206.608398438 346.530273438 206.608398438 346.05859375 216.909179688 c 4,108,109
 345.4765625 228.384765625 345.4765625 228.384765625 345.03125 235.784179688 c 4,110,111
 344.422851562 246.012695312 344.422851562 246.012695312 339.379882812 246.318359375 c 4,112,113
 334.936523438 247.049804688 334.936523438 247.049804688 333.729492188 247.196289062 c 4,114,115
 303.318359375 242.90234375 303.318359375 242.90234375 272.592773438 226.126953125 c 4,116,117
 245.3515625 211.79296875 245.3515625 211.79296875 228.411132812 193.64453125 c 4,118,119
 211.625 176.536132812 211.625 176.536132812 206.833007812 160.283203125 c 4,120,121
 202.139648438 145.427734375 202.139648438 145.427734375 214.5390625 138.3359375 c 4,122,123
 227.434570312 131.947265625 227.434570312 131.947265625 258.721679688 138.774414062 c 4,124,125
 290.670898438 146.46484375 290.670898438 146.46484375 346.05859375 172.575195312 c 5,102,103
EndSplineSet
EndChar

StartChar: aacute
Encoding: 225 225 114
Width: 578
Flags: W
LayerCount: 2
Fore
SplineSet
210.875976562 576.584960938 m 4,0,1
 181.197265625 570.662109375 181.197265625 570.662109375 163.418945312 582.575195312 c 4,2,3
 148.270507812 592.538085938 148.270507812 592.538085938 142.756835938 614.918945312 c 4,4,5
 138.479492188 633.76171875 138.479492188 633.76171875 149.016601562 653.545898438 c 4,6,7
 159.326171875 673.682617188 159.326171875 673.682617188 182.668945312 677.5390625 c 4,8,9
 202.998046875 682.2421875 202.998046875 682.2421875 221.364257812 687.823242188 c 4,10,11
 239.661132812 693.629882812 239.661132812 693.629882812 256.162109375 701.09375 c 4,12,13
 273.716796875 708.411132812 273.716796875 708.411132812 289.762695312 717.310546875 c 4,14,15
 305.815429688 727.4140625 305.815429688 727.4140625 325.735351562 736.919921875 c 4,16,17
 361.377929688 756.119140625 361.377929688 756.119140625 378.159179688 745.073242188 c 4,18,19
 398.215820312 732.506835938 398.215820312 732.506835938 403 713 c 4,20,21
 408.658203125 692.111328125 408.658203125 692.111328125 400.307617188 674.821289062 c 4,22,23
 392.372070312 657.98828125 392.372070312 657.98828125 375.567382812 643.416015625 c 4,24,25
 357.833007812 627.497070312 357.833007812 627.497070312 336.424804688 618.418945312 c 4,26,27
 313.024414062 609.106445312 313.024414062 609.106445312 290.711914062 599.041015625 c 4,28,29
 278.967773438 594.325195312 278.967773438 594.325195312 245.907226562 585.336914062 c 4,30,31
 224.705078125 580.689453125 224.705078125 580.689453125 210.875976562 576.584960938 c 4,0,1
385.104492188 63.7138671875 m 1,32,33
 358.124023438 55.212890625 358.124023438 55.212890625 329.619140625 43.0830078125 c 0,34,35
 302.264648438 32.3994140625 302.264648438 32.3994140625 272.079101562 25.0859375 c 0,36,37
 241.135742188 16.8447265625 241.135742188 16.8447265625 210.4296875 18.501953125 c 0,38,39
 180.006835938 19.9560546875 180.006835938 19.9560546875 149.806640625 27.71875 c 0,40,41
 100.9609375 40.6953125 100.9609375 40.6953125 75.8271484375 68.5419921875 c 0,42,43
 50.3720703125 96.6904296875 50.3720703125 96.6904296875 43.974609375 130.874023438 c 128,-1,44
 37.724609375 165.129882812 37.724609375 165.129882812 49.626953125 203.30078125 c 0,45,46
 59.857421875 237.716796875 59.857421875 237.716796875 88.1572265625 274.412109375 c 0,47,48
 112.5546875 305.119140625 112.5546875 305.119140625 155.971679688 332.79296875 c 0,49,50
 193.708007812 355.930664062 193.708007812 355.930664062 249.473632812 366.592773438 c 0,51,52
 264.322265625 369.411132812 264.322265625 369.411132812 297.766601562 372.298828125 c 0,53,54
 322.290039062 374.595703125 322.290039062 374.595703125 346.05859375 375.372070312 c 1,55,56
 340.20703125 399.482421875 340.20703125 399.482421875 322.42578125 404.34375 c 0,57,58
 307.108398438 409.017578125 307.108398438 409.017578125 281.325195312 405.66015625 c 0,59,60
 257.999023438 402.59375 257.999023438 402.59375 230.465820312 393.369140625 c 0,61,62
 203.193359375 384.96484375 203.193359375 384.96484375 177.548828125 381.516601562 c 0,63,64
 152.604492188 378.743164062 152.604492188 378.743164062 129.256835938 384.151367188 c 0,65,66
 107.28515625 390.150390625 107.28515625 390.150390625 93.294921875 414.877929688 c 0,67,68
 78.828125 439.923828125 78.828125 439.923828125 87.6435546875 460.967773438 c 0,69,70
 96.7451171875 482.439453125 96.7451171875 482.439453125 120.008789062 498.717773438 c 0,71,72
 139.95703125 513.547851562 139.95703125 513.547851562 177.548828125 526.810546875 c 0,73,74
 211.625 538.434570312 211.625 538.434570312 248.9609375 543.930664062 c 0,75,76
 286.455078125 549.841796875 286.455078125 549.841796875 322.940429688 548.319335938 c 0,77,78
 359.177734375 547.767578125 359.177734375 547.767578125 387.158203125 538.663085938 c 0,79,80
 445.6015625 521.84375 445.6015625 521.84375 473.467773438 488.182617188 c 0,81,82
 505.439453125 449.901367188 505.439453125 449.901367188 512 414 c 0,83,84
 514.107421875 404.666992188 514.107421875 404.666992188 523.815429688 327.526367188 c 0,85,86
 525.701171875 315.489257812 525.701171875 315.489257812 527.924804688 241.05078125 c 0,87,88
 528.86328125 222.163085938 528.86328125 222.163085938 535.118164062 193.206054688 c 0,89,90
 541.509765625 165.129882812 541.509765625 165.129882812 543.336914062 136.140625 c 0,91,92
 545.725585938 107.060546875 545.725585938 107.060546875 540.255859375 82.5888671875 c 0,93,94
 536.240234375 58.3232421875 536.240234375 58.3232421875 515.595703125 45.27734375 c 0,95,96
 495.13671875 33.4365234375 495.13671875 33.4365234375 481.174804688 31.6689453125 c 0,97,98
 464.572265625 30.3251953125 464.572265625 30.3251953125 447.78125 33.42578125 c 0,99,100
 430.845703125 37.583984375 430.845703125 37.583984375 415.928710938 45.716796875 c 0,101,102
 400.28125 55.212890625 400.28125 55.212890625 385.104492188 63.7138671875 c 1,32,33
346.05859375 172.575195312 m 1,103,104
 345.4765625 173.42578125 345.4765625 173.42578125 345.03125 179.159179688 c 0,105,106
 345.4765625 185.869140625 345.4765625 185.869140625 345.543945312 195.83984375 c 0,107,108
 346.530273438 206.608398438 346.530273438 206.608398438 346.05859375 216.909179688 c 0,109,110
 345.4765625 228.384765625 345.4765625 228.384765625 345.03125 235.784179688 c 0,111,112
 344.422851562 246.012695312 344.422851562 246.012695312 339.379882812 246.318359375 c 0,113,114
 334.936523438 247.049804688 334.936523438 247.049804688 333.729492188 247.196289062 c 0,115,116
 303.318359375 242.90234375 303.318359375 242.90234375 272.592773438 226.126953125 c 0,117,118
 245.3515625 211.79296875 245.3515625 211.79296875 228.411132812 193.64453125 c 0,119,120
 211.625 176.536132812 211.625 176.536132812 206.833007812 160.283203125 c 0,121,122
 202.139648438 145.427734375 202.139648438 145.427734375 214.5390625 138.3359375 c 0,123,124
 227.434570312 131.947265625 227.434570312 131.947265625 258.721679688 138.774414062 c 0,125,126
 290.670898438 146.46484375 290.670898438 146.46484375 346.05859375 172.575195312 c 1,103,104
EndSplineSet
EndChar

